M48
; DRILL file {KiCad (7.0.0)} date Sun May 21 11:29:28 2023
; FORMAT={3:3/ absolute / metric / suppress leading zeros}
; #@! TF.CreationDate,2023-05-21T11:29:28-07:00
; #@! TF.GenerationSoftware,Kicad,Pcbnew,(7.0.0)
; #@! TF.FileFunction,MixedPlating,1,2
FMAT,2
METRIC,TZ
; #@! TA.AperFunction,Plated,PTH,ComponentDrill
T1C0.200
; #@! TA.AperFunction,Plated,PTH,ViaDrill
T2C0.400
; #@! TA.AperFunction,Plated,PTH,ComponentDrill
T3C0.700
; #@! TA.AperFunction,Plated,PTH,ComponentDrill
T4C0.800
; #@! TA.AperFunction,Plated,PTH,ComponentDrill
T5C1.000
; #@! TA.AperFunction,Plated,PTH,ComponentDrill
T6C1.500
; #@! TA.AperFunction,Plated,PTH,ComponentDrill
T7C3.200
%
G90
G05
T1
X129200Y-95300
X129200Y-96800
X129200Y-98300
X130700Y-95300
X130700Y-96800
X130700Y-98300
T2
X118900Y-92900
X120500Y-99300
X121100Y-84300
X121600Y-92500
X122500Y-93800
X122900Y-103400
X123400Y-88700
X124400Y-104700
X124500Y-98100
X125500Y-100720
X126800Y-92000
X127300Y-84700
X129050Y-101800
X130600Y-106300
X132600Y-90100
X132800Y-100600
X132900Y-93400
X134600Y-94200
X135100Y-84700
X136300Y-101320
X137100Y-103520
X137500Y-107600
X139300Y-102120
X139900Y-104320
X140000Y-84300
X140100Y-93700
T3
X124600Y-90200
X129680Y-90200
T4
X138000Y-88655
X138000Y-90655
T5
X119100Y-87900
X119100Y-90440
X119100Y-95520
X119100Y-98060
X119100Y-100600
X119100Y-103140
X119100Y-105680
X141960Y-100600
X141960Y-103140
X141960Y-105680
T6
X128100Y-79800
X128100Y-111600
X133100Y-79800
X133100Y-111600
T7
X120600Y-79200
X120600Y-112200
X140600Y-79200
X140600Y-112200
T0
M30
