%TF.GenerationSoftware,KiCad,Pcbnew,(7.0.0)*%
%TF.CreationDate,2023-05-21T11:30:13-07:00*%
%TF.ProjectId,DRV8874-breakout-board,44525638-3837-4342-9d62-7265616b6f75,rev?*%
%TF.SameCoordinates,Original*%
%TF.FileFunction,Legend,Top*%
%TF.FilePolarity,Positive*%
%FSLAX46Y46*%
G04 Gerber Fmt 4.6, Leading zero omitted, Abs format (unit mm)*
G04 Created by KiCad (PCBNEW (7.0.0)) date 2023-05-21 11:30:13*
%MOMM*%
%LPD*%
G01*
G04 APERTURE LIST*
%ADD10C,0.150000*%
%ADD11C,0.300000*%
%ADD12C,0.120000*%
%ADD13C,0.100000*%
G04 APERTURE END LIST*
D10*
X123000000Y-89000000D02*
X121100000Y-89000000D01*
D11*
X125450000Y-94450000D02*
G75*
G03*
X125450000Y-94450000I-150000J0D01*
G01*
D10*
X126138095Y-93782380D02*
X126138095Y-92782380D01*
X126138095Y-92782380D02*
X126376190Y-92782380D01*
X126376190Y-92782380D02*
X126519047Y-92830000D01*
X126519047Y-92830000D02*
X126614285Y-92925238D01*
X126614285Y-92925238D02*
X126661904Y-93020476D01*
X126661904Y-93020476D02*
X126709523Y-93210952D01*
X126709523Y-93210952D02*
X126709523Y-93353809D01*
X126709523Y-93353809D02*
X126661904Y-93544285D01*
X126661904Y-93544285D02*
X126614285Y-93639523D01*
X126614285Y-93639523D02*
X126519047Y-93734761D01*
X126519047Y-93734761D02*
X126376190Y-93782380D01*
X126376190Y-93782380D02*
X126138095Y-93782380D01*
X127709523Y-93782380D02*
X127376190Y-93306190D01*
X127138095Y-93782380D02*
X127138095Y-92782380D01*
X127138095Y-92782380D02*
X127519047Y-92782380D01*
X127519047Y-92782380D02*
X127614285Y-92830000D01*
X127614285Y-92830000D02*
X127661904Y-92877619D01*
X127661904Y-92877619D02*
X127709523Y-92972857D01*
X127709523Y-92972857D02*
X127709523Y-93115714D01*
X127709523Y-93115714D02*
X127661904Y-93210952D01*
X127661904Y-93210952D02*
X127614285Y-93258571D01*
X127614285Y-93258571D02*
X127519047Y-93306190D01*
X127519047Y-93306190D02*
X127138095Y-93306190D01*
X127995238Y-92782380D02*
X128328571Y-93782380D01*
X128328571Y-93782380D02*
X128661904Y-92782380D01*
X129138095Y-93210952D02*
X129042857Y-93163333D01*
X129042857Y-93163333D02*
X128995238Y-93115714D01*
X128995238Y-93115714D02*
X128947619Y-93020476D01*
X128947619Y-93020476D02*
X128947619Y-92972857D01*
X128947619Y-92972857D02*
X128995238Y-92877619D01*
X128995238Y-92877619D02*
X129042857Y-92830000D01*
X129042857Y-92830000D02*
X129138095Y-92782380D01*
X129138095Y-92782380D02*
X129328571Y-92782380D01*
X129328571Y-92782380D02*
X129423809Y-92830000D01*
X129423809Y-92830000D02*
X129471428Y-92877619D01*
X129471428Y-92877619D02*
X129519047Y-92972857D01*
X129519047Y-92972857D02*
X129519047Y-93020476D01*
X129519047Y-93020476D02*
X129471428Y-93115714D01*
X129471428Y-93115714D02*
X129423809Y-93163333D01*
X129423809Y-93163333D02*
X129328571Y-93210952D01*
X129328571Y-93210952D02*
X129138095Y-93210952D01*
X129138095Y-93210952D02*
X129042857Y-93258571D01*
X129042857Y-93258571D02*
X128995238Y-93306190D01*
X128995238Y-93306190D02*
X128947619Y-93401428D01*
X128947619Y-93401428D02*
X128947619Y-93591904D01*
X128947619Y-93591904D02*
X128995238Y-93687142D01*
X128995238Y-93687142D02*
X129042857Y-93734761D01*
X129042857Y-93734761D02*
X129138095Y-93782380D01*
X129138095Y-93782380D02*
X129328571Y-93782380D01*
X129328571Y-93782380D02*
X129423809Y-93734761D01*
X129423809Y-93734761D02*
X129471428Y-93687142D01*
X129471428Y-93687142D02*
X129519047Y-93591904D01*
X129519047Y-93591904D02*
X129519047Y-93401428D01*
X129519047Y-93401428D02*
X129471428Y-93306190D01*
X129471428Y-93306190D02*
X129423809Y-93258571D01*
X129423809Y-93258571D02*
X129328571Y-93210952D01*
X130090476Y-93210952D02*
X129995238Y-93163333D01*
X129995238Y-93163333D02*
X129947619Y-93115714D01*
X129947619Y-93115714D02*
X129900000Y-93020476D01*
X129900000Y-93020476D02*
X129900000Y-92972857D01*
X129900000Y-92972857D02*
X129947619Y-92877619D01*
X129947619Y-92877619D02*
X129995238Y-92830000D01*
X129995238Y-92830000D02*
X130090476Y-92782380D01*
X130090476Y-92782380D02*
X130280952Y-92782380D01*
X130280952Y-92782380D02*
X130376190Y-92830000D01*
X130376190Y-92830000D02*
X130423809Y-92877619D01*
X130423809Y-92877619D02*
X130471428Y-92972857D01*
X130471428Y-92972857D02*
X130471428Y-93020476D01*
X130471428Y-93020476D02*
X130423809Y-93115714D01*
X130423809Y-93115714D02*
X130376190Y-93163333D01*
X130376190Y-93163333D02*
X130280952Y-93210952D01*
X130280952Y-93210952D02*
X130090476Y-93210952D01*
X130090476Y-93210952D02*
X129995238Y-93258571D01*
X129995238Y-93258571D02*
X129947619Y-93306190D01*
X129947619Y-93306190D02*
X129900000Y-93401428D01*
X129900000Y-93401428D02*
X129900000Y-93591904D01*
X129900000Y-93591904D02*
X129947619Y-93687142D01*
X129947619Y-93687142D02*
X129995238Y-93734761D01*
X129995238Y-93734761D02*
X130090476Y-93782380D01*
X130090476Y-93782380D02*
X130280952Y-93782380D01*
X130280952Y-93782380D02*
X130376190Y-93734761D01*
X130376190Y-93734761D02*
X130423809Y-93687142D01*
X130423809Y-93687142D02*
X130471428Y-93591904D01*
X130471428Y-93591904D02*
X130471428Y-93401428D01*
X130471428Y-93401428D02*
X130423809Y-93306190D01*
X130423809Y-93306190D02*
X130376190Y-93258571D01*
X130376190Y-93258571D02*
X130280952Y-93210952D01*
X130804762Y-92782380D02*
X131471428Y-92782380D01*
X131471428Y-92782380D02*
X131042857Y-93782380D01*
X132280952Y-93115714D02*
X132280952Y-93782380D01*
X132042857Y-92734761D02*
X131804762Y-93449047D01*
X131804762Y-93449047D02*
X132423809Y-93449047D01*
D12*
X121409523Y-105364000D02*
X121333333Y-105325904D01*
X121333333Y-105325904D02*
X121219047Y-105325904D01*
X121219047Y-105325904D02*
X121104761Y-105364000D01*
X121104761Y-105364000D02*
X121028571Y-105440190D01*
X121028571Y-105440190D02*
X120990476Y-105516380D01*
X120990476Y-105516380D02*
X120952380Y-105668761D01*
X120952380Y-105668761D02*
X120952380Y-105783047D01*
X120952380Y-105783047D02*
X120990476Y-105935428D01*
X120990476Y-105935428D02*
X121028571Y-106011619D01*
X121028571Y-106011619D02*
X121104761Y-106087809D01*
X121104761Y-106087809D02*
X121219047Y-106125904D01*
X121219047Y-106125904D02*
X121295238Y-106125904D01*
X121295238Y-106125904D02*
X121409523Y-106087809D01*
X121409523Y-106087809D02*
X121447619Y-106049714D01*
X121447619Y-106049714D02*
X121447619Y-105783047D01*
X121447619Y-105783047D02*
X121295238Y-105783047D01*
X121790476Y-106125904D02*
X121790476Y-105325904D01*
X121790476Y-105325904D02*
X122247619Y-106125904D01*
X122247619Y-106125904D02*
X122247619Y-105325904D01*
X122628571Y-106125904D02*
X122628571Y-105325904D01*
X122628571Y-105325904D02*
X122819047Y-105325904D01*
X122819047Y-105325904D02*
X122933333Y-105364000D01*
X122933333Y-105364000D02*
X123009523Y-105440190D01*
X123009523Y-105440190D02*
X123047618Y-105516380D01*
X123047618Y-105516380D02*
X123085714Y-105668761D01*
X123085714Y-105668761D02*
X123085714Y-105783047D01*
X123085714Y-105783047D02*
X123047618Y-105935428D01*
X123047618Y-105935428D02*
X123009523Y-106011619D01*
X123009523Y-106011619D02*
X122933333Y-106087809D01*
X122933333Y-106087809D02*
X122819047Y-106125904D01*
X122819047Y-106125904D02*
X122628571Y-106125904D01*
D10*
X128238095Y-84982380D02*
X128238095Y-83982380D01*
X128238095Y-83982380D02*
X128619047Y-83982380D01*
X128619047Y-83982380D02*
X128714285Y-84030000D01*
X128714285Y-84030000D02*
X128761904Y-84077619D01*
X128761904Y-84077619D02*
X128809523Y-84172857D01*
X128809523Y-84172857D02*
X128809523Y-84315714D01*
X128809523Y-84315714D02*
X128761904Y-84410952D01*
X128761904Y-84410952D02*
X128714285Y-84458571D01*
X128714285Y-84458571D02*
X128619047Y-84506190D01*
X128619047Y-84506190D02*
X128238095Y-84506190D01*
X129428571Y-83982380D02*
X129619047Y-83982380D01*
X129619047Y-83982380D02*
X129714285Y-84030000D01*
X129714285Y-84030000D02*
X129809523Y-84125238D01*
X129809523Y-84125238D02*
X129857142Y-84315714D01*
X129857142Y-84315714D02*
X129857142Y-84649047D01*
X129857142Y-84649047D02*
X129809523Y-84839523D01*
X129809523Y-84839523D02*
X129714285Y-84934761D01*
X129714285Y-84934761D02*
X129619047Y-84982380D01*
X129619047Y-84982380D02*
X129428571Y-84982380D01*
X129428571Y-84982380D02*
X129333333Y-84934761D01*
X129333333Y-84934761D02*
X129238095Y-84839523D01*
X129238095Y-84839523D02*
X129190476Y-84649047D01*
X129190476Y-84649047D02*
X129190476Y-84315714D01*
X129190476Y-84315714D02*
X129238095Y-84125238D01*
X129238095Y-84125238D02*
X129333333Y-84030000D01*
X129333333Y-84030000D02*
X129428571Y-83982380D01*
X130190476Y-83982380D02*
X130428571Y-84982380D01*
X130428571Y-84982380D02*
X130619047Y-84268095D01*
X130619047Y-84268095D02*
X130809523Y-84982380D01*
X130809523Y-84982380D02*
X131047619Y-83982380D01*
X131428571Y-84458571D02*
X131761904Y-84458571D01*
X131904761Y-84982380D02*
X131428571Y-84982380D01*
X131428571Y-84982380D02*
X131428571Y-83982380D01*
X131428571Y-83982380D02*
X131904761Y-83982380D01*
X132904761Y-84982380D02*
X132571428Y-84506190D01*
X132333333Y-84982380D02*
X132333333Y-83982380D01*
X132333333Y-83982380D02*
X132714285Y-83982380D01*
X132714285Y-83982380D02*
X132809523Y-84030000D01*
X132809523Y-84030000D02*
X132857142Y-84077619D01*
X132857142Y-84077619D02*
X132904761Y-84172857D01*
X132904761Y-84172857D02*
X132904761Y-84315714D01*
X132904761Y-84315714D02*
X132857142Y-84410952D01*
X132857142Y-84410952D02*
X132809523Y-84458571D01*
X132809523Y-84458571D02*
X132714285Y-84506190D01*
X132714285Y-84506190D02*
X132333333Y-84506190D01*
X128238095Y-107382380D02*
X128238095Y-106382380D01*
X128238095Y-106382380D02*
X128571428Y-107096666D01*
X128571428Y-107096666D02*
X128904761Y-106382380D01*
X128904761Y-106382380D02*
X128904761Y-107382380D01*
X129571428Y-106382380D02*
X129761904Y-106382380D01*
X129761904Y-106382380D02*
X129857142Y-106430000D01*
X129857142Y-106430000D02*
X129952380Y-106525238D01*
X129952380Y-106525238D02*
X129999999Y-106715714D01*
X129999999Y-106715714D02*
X129999999Y-107049047D01*
X129999999Y-107049047D02*
X129952380Y-107239523D01*
X129952380Y-107239523D02*
X129857142Y-107334761D01*
X129857142Y-107334761D02*
X129761904Y-107382380D01*
X129761904Y-107382380D02*
X129571428Y-107382380D01*
X129571428Y-107382380D02*
X129476190Y-107334761D01*
X129476190Y-107334761D02*
X129380952Y-107239523D01*
X129380952Y-107239523D02*
X129333333Y-107049047D01*
X129333333Y-107049047D02*
X129333333Y-106715714D01*
X129333333Y-106715714D02*
X129380952Y-106525238D01*
X129380952Y-106525238D02*
X129476190Y-106430000D01*
X129476190Y-106430000D02*
X129571428Y-106382380D01*
X130285714Y-106382380D02*
X130857142Y-106382380D01*
X130571428Y-107382380D02*
X130571428Y-106382380D01*
X131380952Y-106382380D02*
X131571428Y-106382380D01*
X131571428Y-106382380D02*
X131666666Y-106430000D01*
X131666666Y-106430000D02*
X131761904Y-106525238D01*
X131761904Y-106525238D02*
X131809523Y-106715714D01*
X131809523Y-106715714D02*
X131809523Y-107049047D01*
X131809523Y-107049047D02*
X131761904Y-107239523D01*
X131761904Y-107239523D02*
X131666666Y-107334761D01*
X131666666Y-107334761D02*
X131571428Y-107382380D01*
X131571428Y-107382380D02*
X131380952Y-107382380D01*
X131380952Y-107382380D02*
X131285714Y-107334761D01*
X131285714Y-107334761D02*
X131190476Y-107239523D01*
X131190476Y-107239523D02*
X131142857Y-107049047D01*
X131142857Y-107049047D02*
X131142857Y-106715714D01*
X131142857Y-106715714D02*
X131190476Y-106525238D01*
X131190476Y-106525238D02*
X131285714Y-106430000D01*
X131285714Y-106430000D02*
X131380952Y-106382380D01*
X132809523Y-107382380D02*
X132476190Y-106906190D01*
X132238095Y-107382380D02*
X132238095Y-106382380D01*
X132238095Y-106382380D02*
X132619047Y-106382380D01*
X132619047Y-106382380D02*
X132714285Y-106430000D01*
X132714285Y-106430000D02*
X132761904Y-106477619D01*
X132761904Y-106477619D02*
X132809523Y-106572857D01*
X132809523Y-106572857D02*
X132809523Y-106715714D01*
X132809523Y-106715714D02*
X132761904Y-106810952D01*
X132761904Y-106810952D02*
X132714285Y-106858571D01*
X132714285Y-106858571D02*
X132619047Y-106906190D01*
X132619047Y-106906190D02*
X132238095Y-106906190D01*
X139482380Y-106761904D02*
X138482380Y-106761904D01*
X138482380Y-106761904D02*
X138482380Y-106380952D01*
X138482380Y-106380952D02*
X138530000Y-106285714D01*
X138530000Y-106285714D02*
X138577619Y-106238095D01*
X138577619Y-106238095D02*
X138672857Y-106190476D01*
X138672857Y-106190476D02*
X138815714Y-106190476D01*
X138815714Y-106190476D02*
X138910952Y-106238095D01*
X138910952Y-106238095D02*
X138958571Y-106285714D01*
X138958571Y-106285714D02*
X139006190Y-106380952D01*
X139006190Y-106380952D02*
X139006190Y-106761904D01*
X138482380Y-105857142D02*
X139482380Y-105619047D01*
X139482380Y-105619047D02*
X138768095Y-105428571D01*
X138768095Y-105428571D02*
X139482380Y-105238095D01*
X139482380Y-105238095D02*
X138482380Y-105000000D01*
X139482380Y-104619047D02*
X138482380Y-104619047D01*
X138482380Y-104619047D02*
X139196666Y-104285714D01*
X139196666Y-104285714D02*
X138482380Y-103952381D01*
X138482380Y-103952381D02*
X139482380Y-103952381D01*
X139815714Y-103238095D02*
X138387142Y-103238095D01*
X139482380Y-102523809D02*
X138482380Y-102523809D01*
X138482380Y-102523809D02*
X138482380Y-102142857D01*
X138482380Y-102142857D02*
X138530000Y-102047619D01*
X138530000Y-102047619D02*
X138577619Y-102000000D01*
X138577619Y-102000000D02*
X138672857Y-101952381D01*
X138672857Y-101952381D02*
X138815714Y-101952381D01*
X138815714Y-101952381D02*
X138910952Y-102000000D01*
X138910952Y-102000000D02*
X138958571Y-102047619D01*
X138958571Y-102047619D02*
X139006190Y-102142857D01*
X139006190Y-102142857D02*
X139006190Y-102523809D01*
X139482380Y-101523809D02*
X138482380Y-101523809D01*
X138958571Y-101523809D02*
X138958571Y-100952381D01*
X139482380Y-100952381D02*
X138482380Y-100952381D01*
X138434761Y-99761905D02*
X139720476Y-100619047D01*
X138958571Y-99428571D02*
X138958571Y-99095238D01*
X139482380Y-98952381D02*
X139482380Y-99428571D01*
X139482380Y-99428571D02*
X138482380Y-99428571D01*
X138482380Y-99428571D02*
X138482380Y-98952381D01*
X139482380Y-98523809D02*
X138482380Y-98523809D01*
X138482380Y-98523809D02*
X139482380Y-97952381D01*
X139482380Y-97952381D02*
X138482380Y-97952381D01*
X123930000Y-81038095D02*
X123882380Y-81133333D01*
X123882380Y-81133333D02*
X123882380Y-81276190D01*
X123882380Y-81276190D02*
X123930000Y-81419047D01*
X123930000Y-81419047D02*
X124025238Y-81514285D01*
X124025238Y-81514285D02*
X124120476Y-81561904D01*
X124120476Y-81561904D02*
X124310952Y-81609523D01*
X124310952Y-81609523D02*
X124453809Y-81609523D01*
X124453809Y-81609523D02*
X124644285Y-81561904D01*
X124644285Y-81561904D02*
X124739523Y-81514285D01*
X124739523Y-81514285D02*
X124834761Y-81419047D01*
X124834761Y-81419047D02*
X124882380Y-81276190D01*
X124882380Y-81276190D02*
X124882380Y-81180952D01*
X124882380Y-81180952D02*
X124834761Y-81038095D01*
X124834761Y-81038095D02*
X124787142Y-80990476D01*
X124787142Y-80990476D02*
X124453809Y-80990476D01*
X124453809Y-80990476D02*
X124453809Y-81180952D01*
X124882380Y-80561904D02*
X123882380Y-80561904D01*
X123882380Y-80561904D02*
X124882380Y-79990476D01*
X124882380Y-79990476D02*
X123882380Y-79990476D01*
X124882380Y-79514285D02*
X123882380Y-79514285D01*
X123882380Y-79514285D02*
X123882380Y-79276190D01*
X123882380Y-79276190D02*
X123930000Y-79133333D01*
X123930000Y-79133333D02*
X124025238Y-79038095D01*
X124025238Y-79038095D02*
X124120476Y-78990476D01*
X124120476Y-78990476D02*
X124310952Y-78942857D01*
X124310952Y-78942857D02*
X124453809Y-78942857D01*
X124453809Y-78942857D02*
X124644285Y-78990476D01*
X124644285Y-78990476D02*
X124739523Y-79038095D01*
X124739523Y-79038095D02*
X124834761Y-79133333D01*
X124834761Y-79133333D02*
X124882380Y-79276190D01*
X124882380Y-79276190D02*
X124882380Y-79514285D01*
D12*
X120690476Y-95925904D02*
X120690476Y-95125904D01*
X121071428Y-95925904D02*
X121071428Y-95125904D01*
X121071428Y-95125904D02*
X121376190Y-95125904D01*
X121376190Y-95125904D02*
X121452380Y-95164000D01*
X121452380Y-95164000D02*
X121490475Y-95202095D01*
X121490475Y-95202095D02*
X121528571Y-95278285D01*
X121528571Y-95278285D02*
X121528571Y-95392571D01*
X121528571Y-95392571D02*
X121490475Y-95468761D01*
X121490475Y-95468761D02*
X121452380Y-95506857D01*
X121452380Y-95506857D02*
X121376190Y-95544952D01*
X121376190Y-95544952D02*
X121071428Y-95544952D01*
X122328571Y-95925904D02*
X122061904Y-95544952D01*
X121871428Y-95925904D02*
X121871428Y-95125904D01*
X121871428Y-95125904D02*
X122176190Y-95125904D01*
X122176190Y-95125904D02*
X122252380Y-95164000D01*
X122252380Y-95164000D02*
X122290475Y-95202095D01*
X122290475Y-95202095D02*
X122328571Y-95278285D01*
X122328571Y-95278285D02*
X122328571Y-95392571D01*
X122328571Y-95392571D02*
X122290475Y-95468761D01*
X122290475Y-95468761D02*
X122252380Y-95506857D01*
X122252380Y-95506857D02*
X122176190Y-95544952D01*
X122176190Y-95544952D02*
X121871428Y-95544952D01*
X122823809Y-95125904D02*
X122976190Y-95125904D01*
X122976190Y-95125904D02*
X123052380Y-95164000D01*
X123052380Y-95164000D02*
X123128571Y-95240190D01*
X123128571Y-95240190D02*
X123166666Y-95392571D01*
X123166666Y-95392571D02*
X123166666Y-95659238D01*
X123166666Y-95659238D02*
X123128571Y-95811619D01*
X123128571Y-95811619D02*
X123052380Y-95887809D01*
X123052380Y-95887809D02*
X122976190Y-95925904D01*
X122976190Y-95925904D02*
X122823809Y-95925904D01*
X122823809Y-95925904D02*
X122747618Y-95887809D01*
X122747618Y-95887809D02*
X122671428Y-95811619D01*
X122671428Y-95811619D02*
X122633332Y-95659238D01*
X122633332Y-95659238D02*
X122633332Y-95392571D01*
X122633332Y-95392571D02*
X122671428Y-95240190D01*
X122671428Y-95240190D02*
X122747618Y-95164000D01*
X122747618Y-95164000D02*
X122823809Y-95125904D01*
X123509523Y-95925904D02*
X123509523Y-95125904D01*
X123509523Y-95125904D02*
X123814285Y-95125904D01*
X123814285Y-95125904D02*
X123890475Y-95164000D01*
X123890475Y-95164000D02*
X123928570Y-95202095D01*
X123928570Y-95202095D02*
X123966666Y-95278285D01*
X123966666Y-95278285D02*
X123966666Y-95392571D01*
X123966666Y-95392571D02*
X123928570Y-95468761D01*
X123928570Y-95468761D02*
X123890475Y-95506857D01*
X123890475Y-95506857D02*
X123814285Y-95544952D01*
X123814285Y-95544952D02*
X123509523Y-95544952D01*
X124309523Y-95925904D02*
X124309523Y-95125904D01*
X120690476Y-100192571D02*
X120690476Y-100725904D01*
X120690476Y-100268761D02*
X120728571Y-100230666D01*
X120728571Y-100230666D02*
X120804761Y-100192571D01*
X120804761Y-100192571D02*
X120919047Y-100192571D01*
X120919047Y-100192571D02*
X120995238Y-100230666D01*
X120995238Y-100230666D02*
X121033333Y-100306857D01*
X121033333Y-100306857D02*
X121033333Y-100725904D01*
X121680952Y-100306857D02*
X121414286Y-100306857D01*
X121414286Y-100725904D02*
X121414286Y-99925904D01*
X121414286Y-99925904D02*
X121795238Y-99925904D01*
X122061904Y-100497333D02*
X122442857Y-100497333D01*
X121985714Y-100725904D02*
X122252381Y-99925904D01*
X122252381Y-99925904D02*
X122519047Y-100725904D01*
X122785714Y-99925904D02*
X122785714Y-100573523D01*
X122785714Y-100573523D02*
X122823809Y-100649714D01*
X122823809Y-100649714D02*
X122861904Y-100687809D01*
X122861904Y-100687809D02*
X122938095Y-100725904D01*
X122938095Y-100725904D02*
X123090476Y-100725904D01*
X123090476Y-100725904D02*
X123166666Y-100687809D01*
X123166666Y-100687809D02*
X123204761Y-100649714D01*
X123204761Y-100649714D02*
X123242857Y-100573523D01*
X123242857Y-100573523D02*
X123242857Y-99925904D01*
X124004761Y-100725904D02*
X123623809Y-100725904D01*
X123623809Y-100725904D02*
X123623809Y-99925904D01*
X124157142Y-99925904D02*
X124614285Y-99925904D01*
X124385713Y-100725904D02*
X124385713Y-99925904D01*
D10*
X136282380Y-112971428D02*
X136282380Y-112780952D01*
X136282380Y-112780952D02*
X136330000Y-112685714D01*
X136330000Y-112685714D02*
X136425238Y-112590476D01*
X136425238Y-112590476D02*
X136615714Y-112542857D01*
X136615714Y-112542857D02*
X136949047Y-112542857D01*
X136949047Y-112542857D02*
X137139523Y-112590476D01*
X137139523Y-112590476D02*
X137234761Y-112685714D01*
X137234761Y-112685714D02*
X137282380Y-112780952D01*
X137282380Y-112780952D02*
X137282380Y-112971428D01*
X137282380Y-112971428D02*
X137234761Y-113066666D01*
X137234761Y-113066666D02*
X137139523Y-113161904D01*
X137139523Y-113161904D02*
X136949047Y-113209523D01*
X136949047Y-113209523D02*
X136615714Y-113209523D01*
X136615714Y-113209523D02*
X136425238Y-113161904D01*
X136425238Y-113161904D02*
X136330000Y-113066666D01*
X136330000Y-113066666D02*
X136282380Y-112971428D01*
X136282380Y-112114285D02*
X137091904Y-112114285D01*
X137091904Y-112114285D02*
X137187142Y-112066666D01*
X137187142Y-112066666D02*
X137234761Y-112019047D01*
X137234761Y-112019047D02*
X137282380Y-111923809D01*
X137282380Y-111923809D02*
X137282380Y-111733333D01*
X137282380Y-111733333D02*
X137234761Y-111638095D01*
X137234761Y-111638095D02*
X137187142Y-111590476D01*
X137187142Y-111590476D02*
X137091904Y-111542857D01*
X137091904Y-111542857D02*
X136282380Y-111542857D01*
X136282380Y-111209523D02*
X136282380Y-110638095D01*
X137282380Y-110923809D02*
X136282380Y-110923809D01*
X136377619Y-110352380D02*
X136330000Y-110304761D01*
X136330000Y-110304761D02*
X136282380Y-110209523D01*
X136282380Y-110209523D02*
X136282380Y-109971428D01*
X136282380Y-109971428D02*
X136330000Y-109876190D01*
X136330000Y-109876190D02*
X136377619Y-109828571D01*
X136377619Y-109828571D02*
X136472857Y-109780952D01*
X136472857Y-109780952D02*
X136568095Y-109780952D01*
X136568095Y-109780952D02*
X136710952Y-109828571D01*
X136710952Y-109828571D02*
X137282380Y-110399999D01*
X137282380Y-110399999D02*
X137282380Y-109780952D01*
D12*
X121290476Y-86810857D02*
X121557142Y-86810857D01*
X121671428Y-87229904D02*
X121290476Y-87229904D01*
X121290476Y-87229904D02*
X121290476Y-86429904D01*
X121290476Y-86429904D02*
X121671428Y-86429904D01*
X122014286Y-87229904D02*
X122014286Y-86429904D01*
X122014286Y-86429904D02*
X122471429Y-87229904D01*
X122471429Y-87229904D02*
X122471429Y-86429904D01*
X121290476Y-88525904D02*
X121290476Y-87725904D01*
X121671428Y-88525904D02*
X121671428Y-87725904D01*
X121671428Y-87725904D02*
X122128571Y-88525904D01*
X122128571Y-88525904D02*
X122128571Y-87725904D01*
X122928570Y-88525904D02*
X122471427Y-88525904D01*
X122699999Y-88525904D02*
X122699999Y-87725904D01*
X122699999Y-87725904D02*
X122623808Y-87840190D01*
X122623808Y-87840190D02*
X122547618Y-87916380D01*
X122547618Y-87916380D02*
X122471427Y-87954476D01*
X120690476Y-97792571D02*
X120690476Y-98325904D01*
X120690476Y-97868761D02*
X120728571Y-97830666D01*
X120728571Y-97830666D02*
X120804761Y-97792571D01*
X120804761Y-97792571D02*
X120919047Y-97792571D01*
X120919047Y-97792571D02*
X120995238Y-97830666D01*
X120995238Y-97830666D02*
X121033333Y-97906857D01*
X121033333Y-97906857D02*
X121033333Y-98325904D01*
X121376190Y-98287809D02*
X121490476Y-98325904D01*
X121490476Y-98325904D02*
X121680952Y-98325904D01*
X121680952Y-98325904D02*
X121757143Y-98287809D01*
X121757143Y-98287809D02*
X121795238Y-98249714D01*
X121795238Y-98249714D02*
X121833333Y-98173523D01*
X121833333Y-98173523D02*
X121833333Y-98097333D01*
X121833333Y-98097333D02*
X121795238Y-98021142D01*
X121795238Y-98021142D02*
X121757143Y-97983047D01*
X121757143Y-97983047D02*
X121680952Y-97944952D01*
X121680952Y-97944952D02*
X121528571Y-97906857D01*
X121528571Y-97906857D02*
X121452381Y-97868761D01*
X121452381Y-97868761D02*
X121414286Y-97830666D01*
X121414286Y-97830666D02*
X121376190Y-97754476D01*
X121376190Y-97754476D02*
X121376190Y-97678285D01*
X121376190Y-97678285D02*
X121414286Y-97602095D01*
X121414286Y-97602095D02*
X121452381Y-97564000D01*
X121452381Y-97564000D02*
X121528571Y-97525904D01*
X121528571Y-97525904D02*
X121719048Y-97525904D01*
X121719048Y-97525904D02*
X121833333Y-97564000D01*
X122557143Y-98325904D02*
X122176191Y-98325904D01*
X122176191Y-98325904D02*
X122176191Y-97525904D01*
X122823810Y-97906857D02*
X123090476Y-97906857D01*
X123204762Y-98325904D02*
X122823810Y-98325904D01*
X122823810Y-98325904D02*
X122823810Y-97525904D01*
X122823810Y-97525904D02*
X123204762Y-97525904D01*
X123547620Y-97906857D02*
X123814286Y-97906857D01*
X123928572Y-98325904D02*
X123547620Y-98325904D01*
X123547620Y-98325904D02*
X123547620Y-97525904D01*
X123547620Y-97525904D02*
X123928572Y-97525904D01*
X124271430Y-98325904D02*
X124271430Y-97525904D01*
X124271430Y-97525904D02*
X124576192Y-97525904D01*
X124576192Y-97525904D02*
X124652382Y-97564000D01*
X124652382Y-97564000D02*
X124690477Y-97602095D01*
X124690477Y-97602095D02*
X124728573Y-97678285D01*
X124728573Y-97678285D02*
X124728573Y-97792571D01*
X124728573Y-97792571D02*
X124690477Y-97868761D01*
X124690477Y-97868761D02*
X124652382Y-97906857D01*
X124652382Y-97906857D02*
X124576192Y-97944952D01*
X124576192Y-97944952D02*
X124271430Y-97944952D01*
X120990476Y-103521142D02*
X121600000Y-103521142D01*
X121295238Y-103825904D02*
X121295238Y-103216380D01*
X121904761Y-103025904D02*
X122399999Y-103025904D01*
X122399999Y-103025904D02*
X122133333Y-103330666D01*
X122133333Y-103330666D02*
X122247618Y-103330666D01*
X122247618Y-103330666D02*
X122323809Y-103368761D01*
X122323809Y-103368761D02*
X122361904Y-103406857D01*
X122361904Y-103406857D02*
X122399999Y-103483047D01*
X122399999Y-103483047D02*
X122399999Y-103673523D01*
X122399999Y-103673523D02*
X122361904Y-103749714D01*
X122361904Y-103749714D02*
X122323809Y-103787809D01*
X122323809Y-103787809D02*
X122247618Y-103825904D01*
X122247618Y-103825904D02*
X122019047Y-103825904D01*
X122019047Y-103825904D02*
X121942856Y-103787809D01*
X121942856Y-103787809D02*
X121904761Y-103749714D01*
X122742857Y-103749714D02*
X122780952Y-103787809D01*
X122780952Y-103787809D02*
X122742857Y-103825904D01*
X122742857Y-103825904D02*
X122704761Y-103787809D01*
X122704761Y-103787809D02*
X122742857Y-103749714D01*
X122742857Y-103749714D02*
X122742857Y-103825904D01*
X123047618Y-103025904D02*
X123542856Y-103025904D01*
X123542856Y-103025904D02*
X123276190Y-103330666D01*
X123276190Y-103330666D02*
X123390475Y-103330666D01*
X123390475Y-103330666D02*
X123466666Y-103368761D01*
X123466666Y-103368761D02*
X123504761Y-103406857D01*
X123504761Y-103406857D02*
X123542856Y-103483047D01*
X123542856Y-103483047D02*
X123542856Y-103673523D01*
X123542856Y-103673523D02*
X123504761Y-103749714D01*
X123504761Y-103749714D02*
X123466666Y-103787809D01*
X123466666Y-103787809D02*
X123390475Y-103825904D01*
X123390475Y-103825904D02*
X123161904Y-103825904D01*
X123161904Y-103825904D02*
X123085713Y-103787809D01*
X123085713Y-103787809D02*
X123047618Y-103749714D01*
X123771428Y-103025904D02*
X124038095Y-103825904D01*
X124038095Y-103825904D02*
X124304761Y-103025904D01*
D10*
X136282380Y-81304761D02*
X137282380Y-80971428D01*
X137282380Y-80971428D02*
X136282380Y-80638095D01*
X137282380Y-80304761D02*
X136282380Y-80304761D01*
X137282380Y-79828571D02*
X136282380Y-79828571D01*
X136282380Y-79828571D02*
X137282380Y-79257143D01*
X137282380Y-79257143D02*
X136282380Y-79257143D01*
D12*
X121290476Y-90229904D02*
X121290476Y-89429904D01*
X121290476Y-89429904D02*
X121595238Y-89429904D01*
X121595238Y-89429904D02*
X121671428Y-89468000D01*
X121671428Y-89468000D02*
X121709523Y-89506095D01*
X121709523Y-89506095D02*
X121747619Y-89582285D01*
X121747619Y-89582285D02*
X121747619Y-89696571D01*
X121747619Y-89696571D02*
X121709523Y-89772761D01*
X121709523Y-89772761D02*
X121671428Y-89810857D01*
X121671428Y-89810857D02*
X121595238Y-89848952D01*
X121595238Y-89848952D02*
X121290476Y-89848952D01*
X122090476Y-90229904D02*
X122090476Y-89429904D01*
X122090476Y-89810857D02*
X122547619Y-89810857D01*
X122547619Y-90229904D02*
X122547619Y-89429904D01*
X121290476Y-91525904D02*
X121290476Y-90725904D01*
X121671428Y-91525904D02*
X121671428Y-90725904D01*
X121671428Y-90725904D02*
X122128571Y-91525904D01*
X122128571Y-91525904D02*
X122128571Y-90725904D01*
X122471427Y-90802095D02*
X122509523Y-90764000D01*
X122509523Y-90764000D02*
X122585713Y-90725904D01*
X122585713Y-90725904D02*
X122776189Y-90725904D01*
X122776189Y-90725904D02*
X122852380Y-90764000D01*
X122852380Y-90764000D02*
X122890475Y-90802095D01*
X122890475Y-90802095D02*
X122928570Y-90878285D01*
X122928570Y-90878285D02*
X122928570Y-90954476D01*
X122928570Y-90954476D02*
X122890475Y-91068761D01*
X122890475Y-91068761D02*
X122433332Y-91525904D01*
X122433332Y-91525904D02*
X122928570Y-91525904D01*
D10*
X123882380Y-112771428D02*
X123882380Y-112580952D01*
X123882380Y-112580952D02*
X123930000Y-112485714D01*
X123930000Y-112485714D02*
X124025238Y-112390476D01*
X124025238Y-112390476D02*
X124215714Y-112342857D01*
X124215714Y-112342857D02*
X124549047Y-112342857D01*
X124549047Y-112342857D02*
X124739523Y-112390476D01*
X124739523Y-112390476D02*
X124834761Y-112485714D01*
X124834761Y-112485714D02*
X124882380Y-112580952D01*
X124882380Y-112580952D02*
X124882380Y-112771428D01*
X124882380Y-112771428D02*
X124834761Y-112866666D01*
X124834761Y-112866666D02*
X124739523Y-112961904D01*
X124739523Y-112961904D02*
X124549047Y-113009523D01*
X124549047Y-113009523D02*
X124215714Y-113009523D01*
X124215714Y-113009523D02*
X124025238Y-112961904D01*
X124025238Y-112961904D02*
X123930000Y-112866666D01*
X123930000Y-112866666D02*
X123882380Y-112771428D01*
X123882380Y-111914285D02*
X124691904Y-111914285D01*
X124691904Y-111914285D02*
X124787142Y-111866666D01*
X124787142Y-111866666D02*
X124834761Y-111819047D01*
X124834761Y-111819047D02*
X124882380Y-111723809D01*
X124882380Y-111723809D02*
X124882380Y-111533333D01*
X124882380Y-111533333D02*
X124834761Y-111438095D01*
X124834761Y-111438095D02*
X124787142Y-111390476D01*
X124787142Y-111390476D02*
X124691904Y-111342857D01*
X124691904Y-111342857D02*
X123882380Y-111342857D01*
X123882380Y-111009523D02*
X123882380Y-110438095D01*
X124882380Y-110723809D02*
X123882380Y-110723809D01*
X124882380Y-109580952D02*
X124882380Y-110152380D01*
X124882380Y-109866666D02*
X123882380Y-109866666D01*
X123882380Y-109866666D02*
X124025238Y-109961904D01*
X124025238Y-109961904D02*
X124120476Y-110057142D01*
X124120476Y-110057142D02*
X124168095Y-110152380D01*
D12*
%TO.C,U101*%
X128528571Y-99893904D02*
X128528571Y-100541523D01*
X128528571Y-100541523D02*
X128566666Y-100617714D01*
X128566666Y-100617714D02*
X128604761Y-100655809D01*
X128604761Y-100655809D02*
X128680952Y-100693904D01*
X128680952Y-100693904D02*
X128833333Y-100693904D01*
X128833333Y-100693904D02*
X128909523Y-100655809D01*
X128909523Y-100655809D02*
X128947618Y-100617714D01*
X128947618Y-100617714D02*
X128985714Y-100541523D01*
X128985714Y-100541523D02*
X128985714Y-99893904D01*
X129785713Y-100693904D02*
X129328570Y-100693904D01*
X129557142Y-100693904D02*
X129557142Y-99893904D01*
X129557142Y-99893904D02*
X129480951Y-100008190D01*
X129480951Y-100008190D02*
X129404761Y-100084380D01*
X129404761Y-100084380D02*
X129328570Y-100122476D01*
X130280952Y-99893904D02*
X130357142Y-99893904D01*
X130357142Y-99893904D02*
X130433333Y-99932000D01*
X130433333Y-99932000D02*
X130471428Y-99970095D01*
X130471428Y-99970095D02*
X130509523Y-100046285D01*
X130509523Y-100046285D02*
X130547618Y-100198666D01*
X130547618Y-100198666D02*
X130547618Y-100389142D01*
X130547618Y-100389142D02*
X130509523Y-100541523D01*
X130509523Y-100541523D02*
X130471428Y-100617714D01*
X130471428Y-100617714D02*
X130433333Y-100655809D01*
X130433333Y-100655809D02*
X130357142Y-100693904D01*
X130357142Y-100693904D02*
X130280952Y-100693904D01*
X130280952Y-100693904D02*
X130204761Y-100655809D01*
X130204761Y-100655809D02*
X130166666Y-100617714D01*
X130166666Y-100617714D02*
X130128571Y-100541523D01*
X130128571Y-100541523D02*
X130090475Y-100389142D01*
X130090475Y-100389142D02*
X130090475Y-100198666D01*
X130090475Y-100198666D02*
X130128571Y-100046285D01*
X130128571Y-100046285D02*
X130166666Y-99970095D01*
X130166666Y-99970095D02*
X130204761Y-99932000D01*
X130204761Y-99932000D02*
X130280952Y-99893904D01*
X131309523Y-100693904D02*
X130852380Y-100693904D01*
X131080952Y-100693904D02*
X131080952Y-99893904D01*
X131080952Y-99893904D02*
X131004761Y-100008190D01*
X131004761Y-100008190D02*
X130928571Y-100084380D01*
X130928571Y-100084380D02*
X130852380Y-100122476D01*
%TO.C,C101*%
X135217714Y-95795237D02*
X135255809Y-95833333D01*
X135255809Y-95833333D02*
X135293904Y-95947618D01*
X135293904Y-95947618D02*
X135293904Y-96023809D01*
X135293904Y-96023809D02*
X135255809Y-96138095D01*
X135255809Y-96138095D02*
X135179619Y-96214285D01*
X135179619Y-96214285D02*
X135103428Y-96252380D01*
X135103428Y-96252380D02*
X134951047Y-96290476D01*
X134951047Y-96290476D02*
X134836761Y-96290476D01*
X134836761Y-96290476D02*
X134684380Y-96252380D01*
X134684380Y-96252380D02*
X134608190Y-96214285D01*
X134608190Y-96214285D02*
X134532000Y-96138095D01*
X134532000Y-96138095D02*
X134493904Y-96023809D01*
X134493904Y-96023809D02*
X134493904Y-95947618D01*
X134493904Y-95947618D02*
X134532000Y-95833333D01*
X134532000Y-95833333D02*
X134570095Y-95795237D01*
X135293904Y-95033333D02*
X135293904Y-95490476D01*
X135293904Y-95261904D02*
X134493904Y-95261904D01*
X134493904Y-95261904D02*
X134608190Y-95338095D01*
X134608190Y-95338095D02*
X134684380Y-95414285D01*
X134684380Y-95414285D02*
X134722476Y-95490476D01*
X134493904Y-94538094D02*
X134493904Y-94461904D01*
X134493904Y-94461904D02*
X134532000Y-94385713D01*
X134532000Y-94385713D02*
X134570095Y-94347618D01*
X134570095Y-94347618D02*
X134646285Y-94309523D01*
X134646285Y-94309523D02*
X134798666Y-94271428D01*
X134798666Y-94271428D02*
X134989142Y-94271428D01*
X134989142Y-94271428D02*
X135141523Y-94309523D01*
X135141523Y-94309523D02*
X135217714Y-94347618D01*
X135217714Y-94347618D02*
X135255809Y-94385713D01*
X135255809Y-94385713D02*
X135293904Y-94461904D01*
X135293904Y-94461904D02*
X135293904Y-94538094D01*
X135293904Y-94538094D02*
X135255809Y-94614285D01*
X135255809Y-94614285D02*
X135217714Y-94652380D01*
X135217714Y-94652380D02*
X135141523Y-94690475D01*
X135141523Y-94690475D02*
X134989142Y-94728571D01*
X134989142Y-94728571D02*
X134798666Y-94728571D01*
X134798666Y-94728571D02*
X134646285Y-94690475D01*
X134646285Y-94690475D02*
X134570095Y-94652380D01*
X134570095Y-94652380D02*
X134532000Y-94614285D01*
X134532000Y-94614285D02*
X134493904Y-94538094D01*
X135293904Y-93509523D02*
X135293904Y-93966666D01*
X135293904Y-93738094D02*
X134493904Y-93738094D01*
X134493904Y-93738094D02*
X134608190Y-93814285D01*
X134608190Y-93814285D02*
X134684380Y-93890475D01*
X134684380Y-93890475D02*
X134722476Y-93966666D01*
%TO.C,C104*%
X141617714Y-90495237D02*
X141655809Y-90533333D01*
X141655809Y-90533333D02*
X141693904Y-90647618D01*
X141693904Y-90647618D02*
X141693904Y-90723809D01*
X141693904Y-90723809D02*
X141655809Y-90838095D01*
X141655809Y-90838095D02*
X141579619Y-90914285D01*
X141579619Y-90914285D02*
X141503428Y-90952380D01*
X141503428Y-90952380D02*
X141351047Y-90990476D01*
X141351047Y-90990476D02*
X141236761Y-90990476D01*
X141236761Y-90990476D02*
X141084380Y-90952380D01*
X141084380Y-90952380D02*
X141008190Y-90914285D01*
X141008190Y-90914285D02*
X140932000Y-90838095D01*
X140932000Y-90838095D02*
X140893904Y-90723809D01*
X140893904Y-90723809D02*
X140893904Y-90647618D01*
X140893904Y-90647618D02*
X140932000Y-90533333D01*
X140932000Y-90533333D02*
X140970095Y-90495237D01*
X141693904Y-89733333D02*
X141693904Y-90190476D01*
X141693904Y-89961904D02*
X140893904Y-89961904D01*
X140893904Y-89961904D02*
X141008190Y-90038095D01*
X141008190Y-90038095D02*
X141084380Y-90114285D01*
X141084380Y-90114285D02*
X141122476Y-90190476D01*
X140893904Y-89238094D02*
X140893904Y-89161904D01*
X140893904Y-89161904D02*
X140932000Y-89085713D01*
X140932000Y-89085713D02*
X140970095Y-89047618D01*
X140970095Y-89047618D02*
X141046285Y-89009523D01*
X141046285Y-89009523D02*
X141198666Y-88971428D01*
X141198666Y-88971428D02*
X141389142Y-88971428D01*
X141389142Y-88971428D02*
X141541523Y-89009523D01*
X141541523Y-89009523D02*
X141617714Y-89047618D01*
X141617714Y-89047618D02*
X141655809Y-89085713D01*
X141655809Y-89085713D02*
X141693904Y-89161904D01*
X141693904Y-89161904D02*
X141693904Y-89238094D01*
X141693904Y-89238094D02*
X141655809Y-89314285D01*
X141655809Y-89314285D02*
X141617714Y-89352380D01*
X141617714Y-89352380D02*
X141541523Y-89390475D01*
X141541523Y-89390475D02*
X141389142Y-89428571D01*
X141389142Y-89428571D02*
X141198666Y-89428571D01*
X141198666Y-89428571D02*
X141046285Y-89390475D01*
X141046285Y-89390475D02*
X140970095Y-89352380D01*
X140970095Y-89352380D02*
X140932000Y-89314285D01*
X140932000Y-89314285D02*
X140893904Y-89238094D01*
X141160571Y-88285713D02*
X141693904Y-88285713D01*
X140855809Y-88476189D02*
X141427238Y-88666666D01*
X141427238Y-88666666D02*
X141427238Y-88171427D01*
%TO.C,C102*%
X135217714Y-99095237D02*
X135255809Y-99133333D01*
X135255809Y-99133333D02*
X135293904Y-99247618D01*
X135293904Y-99247618D02*
X135293904Y-99323809D01*
X135293904Y-99323809D02*
X135255809Y-99438095D01*
X135255809Y-99438095D02*
X135179619Y-99514285D01*
X135179619Y-99514285D02*
X135103428Y-99552380D01*
X135103428Y-99552380D02*
X134951047Y-99590476D01*
X134951047Y-99590476D02*
X134836761Y-99590476D01*
X134836761Y-99590476D02*
X134684380Y-99552380D01*
X134684380Y-99552380D02*
X134608190Y-99514285D01*
X134608190Y-99514285D02*
X134532000Y-99438095D01*
X134532000Y-99438095D02*
X134493904Y-99323809D01*
X134493904Y-99323809D02*
X134493904Y-99247618D01*
X134493904Y-99247618D02*
X134532000Y-99133333D01*
X134532000Y-99133333D02*
X134570095Y-99095237D01*
X135293904Y-98333333D02*
X135293904Y-98790476D01*
X135293904Y-98561904D02*
X134493904Y-98561904D01*
X134493904Y-98561904D02*
X134608190Y-98638095D01*
X134608190Y-98638095D02*
X134684380Y-98714285D01*
X134684380Y-98714285D02*
X134722476Y-98790476D01*
X134493904Y-97838094D02*
X134493904Y-97761904D01*
X134493904Y-97761904D02*
X134532000Y-97685713D01*
X134532000Y-97685713D02*
X134570095Y-97647618D01*
X134570095Y-97647618D02*
X134646285Y-97609523D01*
X134646285Y-97609523D02*
X134798666Y-97571428D01*
X134798666Y-97571428D02*
X134989142Y-97571428D01*
X134989142Y-97571428D02*
X135141523Y-97609523D01*
X135141523Y-97609523D02*
X135217714Y-97647618D01*
X135217714Y-97647618D02*
X135255809Y-97685713D01*
X135255809Y-97685713D02*
X135293904Y-97761904D01*
X135293904Y-97761904D02*
X135293904Y-97838094D01*
X135293904Y-97838094D02*
X135255809Y-97914285D01*
X135255809Y-97914285D02*
X135217714Y-97952380D01*
X135217714Y-97952380D02*
X135141523Y-97990475D01*
X135141523Y-97990475D02*
X134989142Y-98028571D01*
X134989142Y-98028571D02*
X134798666Y-98028571D01*
X134798666Y-98028571D02*
X134646285Y-97990475D01*
X134646285Y-97990475D02*
X134570095Y-97952380D01*
X134570095Y-97952380D02*
X134532000Y-97914285D01*
X134532000Y-97914285D02*
X134493904Y-97838094D01*
X134570095Y-97266666D02*
X134532000Y-97228570D01*
X134532000Y-97228570D02*
X134493904Y-97152380D01*
X134493904Y-97152380D02*
X134493904Y-96961904D01*
X134493904Y-96961904D02*
X134532000Y-96885713D01*
X134532000Y-96885713D02*
X134570095Y-96847618D01*
X134570095Y-96847618D02*
X134646285Y-96809523D01*
X134646285Y-96809523D02*
X134722476Y-96809523D01*
X134722476Y-96809523D02*
X134836761Y-96847618D01*
X134836761Y-96847618D02*
X135293904Y-97304761D01*
X135293904Y-97304761D02*
X135293904Y-96809523D01*
%TO.C,R101*%
X124804762Y-102293904D02*
X124538095Y-101912952D01*
X124347619Y-102293904D02*
X124347619Y-101493904D01*
X124347619Y-101493904D02*
X124652381Y-101493904D01*
X124652381Y-101493904D02*
X124728571Y-101532000D01*
X124728571Y-101532000D02*
X124766666Y-101570095D01*
X124766666Y-101570095D02*
X124804762Y-101646285D01*
X124804762Y-101646285D02*
X124804762Y-101760571D01*
X124804762Y-101760571D02*
X124766666Y-101836761D01*
X124766666Y-101836761D02*
X124728571Y-101874857D01*
X124728571Y-101874857D02*
X124652381Y-101912952D01*
X124652381Y-101912952D02*
X124347619Y-101912952D01*
X125566666Y-102293904D02*
X125109523Y-102293904D01*
X125338095Y-102293904D02*
X125338095Y-101493904D01*
X125338095Y-101493904D02*
X125261904Y-101608190D01*
X125261904Y-101608190D02*
X125185714Y-101684380D01*
X125185714Y-101684380D02*
X125109523Y-101722476D01*
X126061905Y-101493904D02*
X126138095Y-101493904D01*
X126138095Y-101493904D02*
X126214286Y-101532000D01*
X126214286Y-101532000D02*
X126252381Y-101570095D01*
X126252381Y-101570095D02*
X126290476Y-101646285D01*
X126290476Y-101646285D02*
X126328571Y-101798666D01*
X126328571Y-101798666D02*
X126328571Y-101989142D01*
X126328571Y-101989142D02*
X126290476Y-102141523D01*
X126290476Y-102141523D02*
X126252381Y-102217714D01*
X126252381Y-102217714D02*
X126214286Y-102255809D01*
X126214286Y-102255809D02*
X126138095Y-102293904D01*
X126138095Y-102293904D02*
X126061905Y-102293904D01*
X126061905Y-102293904D02*
X125985714Y-102255809D01*
X125985714Y-102255809D02*
X125947619Y-102217714D01*
X125947619Y-102217714D02*
X125909524Y-102141523D01*
X125909524Y-102141523D02*
X125871428Y-101989142D01*
X125871428Y-101989142D02*
X125871428Y-101798666D01*
X125871428Y-101798666D02*
X125909524Y-101646285D01*
X125909524Y-101646285D02*
X125947619Y-101570095D01*
X125947619Y-101570095D02*
X125985714Y-101532000D01*
X125985714Y-101532000D02*
X126061905Y-101493904D01*
X127090476Y-102293904D02*
X126633333Y-102293904D01*
X126861905Y-102293904D02*
X126861905Y-101493904D01*
X126861905Y-101493904D02*
X126785714Y-101608190D01*
X126785714Y-101608190D02*
X126709524Y-101684380D01*
X126709524Y-101684380D02*
X126633333Y-101722476D01*
%TO.C,C103*%
X138304762Y-97017714D02*
X138266666Y-97055809D01*
X138266666Y-97055809D02*
X138152381Y-97093904D01*
X138152381Y-97093904D02*
X138076190Y-97093904D01*
X138076190Y-97093904D02*
X137961904Y-97055809D01*
X137961904Y-97055809D02*
X137885714Y-96979619D01*
X137885714Y-96979619D02*
X137847619Y-96903428D01*
X137847619Y-96903428D02*
X137809523Y-96751047D01*
X137809523Y-96751047D02*
X137809523Y-96636761D01*
X137809523Y-96636761D02*
X137847619Y-96484380D01*
X137847619Y-96484380D02*
X137885714Y-96408190D01*
X137885714Y-96408190D02*
X137961904Y-96332000D01*
X137961904Y-96332000D02*
X138076190Y-96293904D01*
X138076190Y-96293904D02*
X138152381Y-96293904D01*
X138152381Y-96293904D02*
X138266666Y-96332000D01*
X138266666Y-96332000D02*
X138304762Y-96370095D01*
X139066666Y-97093904D02*
X138609523Y-97093904D01*
X138838095Y-97093904D02*
X138838095Y-96293904D01*
X138838095Y-96293904D02*
X138761904Y-96408190D01*
X138761904Y-96408190D02*
X138685714Y-96484380D01*
X138685714Y-96484380D02*
X138609523Y-96522476D01*
X139561905Y-96293904D02*
X139638095Y-96293904D01*
X139638095Y-96293904D02*
X139714286Y-96332000D01*
X139714286Y-96332000D02*
X139752381Y-96370095D01*
X139752381Y-96370095D02*
X139790476Y-96446285D01*
X139790476Y-96446285D02*
X139828571Y-96598666D01*
X139828571Y-96598666D02*
X139828571Y-96789142D01*
X139828571Y-96789142D02*
X139790476Y-96941523D01*
X139790476Y-96941523D02*
X139752381Y-97017714D01*
X139752381Y-97017714D02*
X139714286Y-97055809D01*
X139714286Y-97055809D02*
X139638095Y-97093904D01*
X139638095Y-97093904D02*
X139561905Y-97093904D01*
X139561905Y-97093904D02*
X139485714Y-97055809D01*
X139485714Y-97055809D02*
X139447619Y-97017714D01*
X139447619Y-97017714D02*
X139409524Y-96941523D01*
X139409524Y-96941523D02*
X139371428Y-96789142D01*
X139371428Y-96789142D02*
X139371428Y-96598666D01*
X139371428Y-96598666D02*
X139409524Y-96446285D01*
X139409524Y-96446285D02*
X139447619Y-96370095D01*
X139447619Y-96370095D02*
X139485714Y-96332000D01*
X139485714Y-96332000D02*
X139561905Y-96293904D01*
X140095238Y-96293904D02*
X140590476Y-96293904D01*
X140590476Y-96293904D02*
X140323810Y-96598666D01*
X140323810Y-96598666D02*
X140438095Y-96598666D01*
X140438095Y-96598666D02*
X140514286Y-96636761D01*
X140514286Y-96636761D02*
X140552381Y-96674857D01*
X140552381Y-96674857D02*
X140590476Y-96751047D01*
X140590476Y-96751047D02*
X140590476Y-96941523D01*
X140590476Y-96941523D02*
X140552381Y-97017714D01*
X140552381Y-97017714D02*
X140514286Y-97055809D01*
X140514286Y-97055809D02*
X140438095Y-97093904D01*
X140438095Y-97093904D02*
X140209524Y-97093904D01*
X140209524Y-97093904D02*
X140133333Y-97055809D01*
X140133333Y-97055809D02*
X140095238Y-97017714D01*
%TO.C,R102*%
X126204762Y-88993904D02*
X125938095Y-88612952D01*
X125747619Y-88993904D02*
X125747619Y-88193904D01*
X125747619Y-88193904D02*
X126052381Y-88193904D01*
X126052381Y-88193904D02*
X126128571Y-88232000D01*
X126128571Y-88232000D02*
X126166666Y-88270095D01*
X126166666Y-88270095D02*
X126204762Y-88346285D01*
X126204762Y-88346285D02*
X126204762Y-88460571D01*
X126204762Y-88460571D02*
X126166666Y-88536761D01*
X126166666Y-88536761D02*
X126128571Y-88574857D01*
X126128571Y-88574857D02*
X126052381Y-88612952D01*
X126052381Y-88612952D02*
X125747619Y-88612952D01*
X126966666Y-88993904D02*
X126509523Y-88993904D01*
X126738095Y-88993904D02*
X126738095Y-88193904D01*
X126738095Y-88193904D02*
X126661904Y-88308190D01*
X126661904Y-88308190D02*
X126585714Y-88384380D01*
X126585714Y-88384380D02*
X126509523Y-88422476D01*
X127461905Y-88193904D02*
X127538095Y-88193904D01*
X127538095Y-88193904D02*
X127614286Y-88232000D01*
X127614286Y-88232000D02*
X127652381Y-88270095D01*
X127652381Y-88270095D02*
X127690476Y-88346285D01*
X127690476Y-88346285D02*
X127728571Y-88498666D01*
X127728571Y-88498666D02*
X127728571Y-88689142D01*
X127728571Y-88689142D02*
X127690476Y-88841523D01*
X127690476Y-88841523D02*
X127652381Y-88917714D01*
X127652381Y-88917714D02*
X127614286Y-88955809D01*
X127614286Y-88955809D02*
X127538095Y-88993904D01*
X127538095Y-88993904D02*
X127461905Y-88993904D01*
X127461905Y-88993904D02*
X127385714Y-88955809D01*
X127385714Y-88955809D02*
X127347619Y-88917714D01*
X127347619Y-88917714D02*
X127309524Y-88841523D01*
X127309524Y-88841523D02*
X127271428Y-88689142D01*
X127271428Y-88689142D02*
X127271428Y-88498666D01*
X127271428Y-88498666D02*
X127309524Y-88346285D01*
X127309524Y-88346285D02*
X127347619Y-88270095D01*
X127347619Y-88270095D02*
X127385714Y-88232000D01*
X127385714Y-88232000D02*
X127461905Y-88193904D01*
X128033333Y-88270095D02*
X128071429Y-88232000D01*
X128071429Y-88232000D02*
X128147619Y-88193904D01*
X128147619Y-88193904D02*
X128338095Y-88193904D01*
X128338095Y-88193904D02*
X128414286Y-88232000D01*
X128414286Y-88232000D02*
X128452381Y-88270095D01*
X128452381Y-88270095D02*
X128490476Y-88346285D01*
X128490476Y-88346285D02*
X128490476Y-88422476D01*
X128490476Y-88422476D02*
X128452381Y-88536761D01*
X128452381Y-88536761D02*
X127995238Y-88993904D01*
X127995238Y-88993904D02*
X128490476Y-88993904D01*
%TO.C,J105*%
X143290000Y-107010000D02*
X141960000Y-107010000D01*
X143290000Y-105680000D02*
X143290000Y-107010000D01*
X143290000Y-104410000D02*
X143290000Y-99270000D01*
X143290000Y-104410000D02*
X140630000Y-104410000D01*
X143290000Y-99270000D02*
X140630000Y-99270000D01*
X140630000Y-104410000D02*
X140630000Y-99270000D01*
%TO.C,U101*%
X129950000Y-94040000D02*
X126300000Y-94040000D01*
X129950000Y-94040000D02*
X132150000Y-94040000D01*
X129950000Y-99560000D02*
X127750000Y-99560000D01*
X129950000Y-99560000D02*
X132150000Y-99560000D01*
%TO.C,J104*%
X117770000Y-94190000D02*
X119100000Y-94190000D01*
X117770000Y-95520000D02*
X117770000Y-94190000D01*
X117770000Y-96790000D02*
X117770000Y-107010000D01*
X117770000Y-96790000D02*
X120430000Y-96790000D01*
X117770000Y-107010000D02*
X120430000Y-107010000D01*
X120430000Y-96790000D02*
X120430000Y-107010000D01*
%TO.C,C101*%
X135790000Y-95140580D02*
X135790000Y-94859420D01*
X136810000Y-95140580D02*
X136810000Y-94859420D01*
D13*
%TO.C,J103*%
X125100000Y-83600000D02*
X125100000Y-75800000D01*
X125600000Y-75800000D02*
X125100000Y-75800000D01*
X125600000Y-75800000D02*
X125600000Y-83600000D01*
X125600000Y-75800000D02*
X135600000Y-75800000D01*
X125600000Y-83600000D02*
X125100000Y-83600000D01*
X125600000Y-83600000D02*
X135600000Y-83600000D01*
X135600000Y-76100000D02*
X125600000Y-76100000D01*
X135600000Y-83600000D02*
X135600000Y-75800000D01*
D12*
%TO.C,C104*%
X136525000Y-92459888D02*
X136525000Y-91959888D01*
X136275000Y-92209888D02*
X136775000Y-92209888D01*
X135420000Y-89655113D02*
X136960000Y-89655113D01*
X139040000Y-89655113D02*
X140580000Y-89655113D01*
X135420000Y-89615113D02*
X136960000Y-89615113D01*
X139040000Y-89615113D02*
X140580000Y-89615113D01*
X135421000Y-89575113D02*
X136960000Y-89575113D01*
X139040000Y-89575113D02*
X140579000Y-89575113D01*
X135422000Y-89535113D02*
X136960000Y-89535113D01*
X139040000Y-89535113D02*
X140578000Y-89535113D01*
X135424000Y-89495113D02*
X136960000Y-89495113D01*
X139040000Y-89495113D02*
X140576000Y-89495113D01*
X135427000Y-89455113D02*
X136960000Y-89455113D01*
X139040000Y-89455113D02*
X140573000Y-89455113D01*
X135431000Y-89415113D02*
X136960000Y-89415113D01*
X139040000Y-89415113D02*
X140569000Y-89415113D01*
X135435000Y-89375113D02*
X136960000Y-89375113D01*
X139040000Y-89375113D02*
X140565000Y-89375113D01*
X135439000Y-89335113D02*
X136960000Y-89335113D01*
X139040000Y-89335113D02*
X140561000Y-89335113D01*
X135444000Y-89295113D02*
X136960000Y-89295113D01*
X139040000Y-89295113D02*
X140556000Y-89295113D01*
X135450000Y-89255113D02*
X136960000Y-89255113D01*
X139040000Y-89255113D02*
X140550000Y-89255113D01*
X135457000Y-89215113D02*
X136960000Y-89215113D01*
X139040000Y-89215113D02*
X140543000Y-89215113D01*
X135464000Y-89175113D02*
X136960000Y-89175113D01*
X139040000Y-89175113D02*
X140536000Y-89175113D01*
X135472000Y-89135113D02*
X136960000Y-89135113D01*
X139040000Y-89135113D02*
X140528000Y-89135113D01*
X135480000Y-89095113D02*
X136960000Y-89095113D01*
X139040000Y-89095113D02*
X140520000Y-89095113D01*
X135489000Y-89055113D02*
X136960000Y-89055113D01*
X139040000Y-89055113D02*
X140511000Y-89055113D01*
X135499000Y-89015113D02*
X136960000Y-89015113D01*
X139040000Y-89015113D02*
X140501000Y-89015113D01*
X135509000Y-88975113D02*
X136960000Y-88975113D01*
X139040000Y-88975113D02*
X140491000Y-88975113D01*
X135520000Y-88934113D02*
X136960000Y-88934113D01*
X139040000Y-88934113D02*
X140480000Y-88934113D01*
X135532000Y-88894113D02*
X136960000Y-88894113D01*
X139040000Y-88894113D02*
X140468000Y-88894113D01*
X135545000Y-88854113D02*
X136960000Y-88854113D01*
X139040000Y-88854113D02*
X140455000Y-88854113D01*
X135558000Y-88814113D02*
X136960000Y-88814113D01*
X139040000Y-88814113D02*
X140442000Y-88814113D01*
X135572000Y-88774113D02*
X136960000Y-88774113D01*
X139040000Y-88774113D02*
X140428000Y-88774113D01*
X135586000Y-88734113D02*
X136960000Y-88734113D01*
X139040000Y-88734113D02*
X140414000Y-88734113D01*
X135602000Y-88694113D02*
X136960000Y-88694113D01*
X139040000Y-88694113D02*
X140398000Y-88694113D01*
X135618000Y-88654113D02*
X136960000Y-88654113D01*
X139040000Y-88654113D02*
X140382000Y-88654113D01*
X135635000Y-88614113D02*
X136960000Y-88614113D01*
X139040000Y-88614113D02*
X140365000Y-88614113D01*
X135652000Y-88574113D02*
X136960000Y-88574113D01*
X139040000Y-88574113D02*
X140348000Y-88574113D01*
X135671000Y-88534113D02*
X136960000Y-88534113D01*
X139040000Y-88534113D02*
X140329000Y-88534113D01*
X135690000Y-88494113D02*
X136960000Y-88494113D01*
X139040000Y-88494113D02*
X140310000Y-88494113D01*
X135710000Y-88454113D02*
X136960000Y-88454113D01*
X139040000Y-88454113D02*
X140290000Y-88454113D01*
X135732000Y-88414113D02*
X136960000Y-88414113D01*
X139040000Y-88414113D02*
X140268000Y-88414113D01*
X135753000Y-88374113D02*
X136960000Y-88374113D01*
X139040000Y-88374113D02*
X140247000Y-88374113D01*
X135776000Y-88334113D02*
X136960000Y-88334113D01*
X139040000Y-88334113D02*
X140224000Y-88334113D01*
X135800000Y-88294113D02*
X136960000Y-88294113D01*
X139040000Y-88294113D02*
X140200000Y-88294113D01*
X135825000Y-88254113D02*
X136960000Y-88254113D01*
X139040000Y-88254113D02*
X140175000Y-88254113D01*
X135851000Y-88214113D02*
X136960000Y-88214113D01*
X139040000Y-88214113D02*
X140149000Y-88214113D01*
X135878000Y-88174113D02*
X136960000Y-88174113D01*
X139040000Y-88174113D02*
X140122000Y-88174113D01*
X135905000Y-88134113D02*
X136960000Y-88134113D01*
X139040000Y-88134113D02*
X140095000Y-88134113D01*
X135935000Y-88094113D02*
X136960000Y-88094113D01*
X139040000Y-88094113D02*
X140065000Y-88094113D01*
X135965000Y-88054113D02*
X136960000Y-88054113D01*
X139040000Y-88054113D02*
X140035000Y-88054113D01*
X135996000Y-88014113D02*
X136960000Y-88014113D01*
X139040000Y-88014113D02*
X140004000Y-88014113D01*
X136029000Y-87974113D02*
X136960000Y-87974113D01*
X139040000Y-87974113D02*
X139971000Y-87974113D01*
X136063000Y-87934113D02*
X136960000Y-87934113D01*
X139040000Y-87934113D02*
X139937000Y-87934113D01*
X136099000Y-87894113D02*
X136960000Y-87894113D01*
X139040000Y-87894113D02*
X139901000Y-87894113D01*
X136136000Y-87854113D02*
X136960000Y-87854113D01*
X139040000Y-87854113D02*
X139864000Y-87854113D01*
X136174000Y-87814113D02*
X136960000Y-87814113D01*
X139040000Y-87814113D02*
X139826000Y-87814113D01*
X136215000Y-87774113D02*
X136960000Y-87774113D01*
X139040000Y-87774113D02*
X139785000Y-87774113D01*
X136257000Y-87734113D02*
X136960000Y-87734113D01*
X139040000Y-87734113D02*
X139743000Y-87734113D01*
X136301000Y-87694113D02*
X136960000Y-87694113D01*
X139040000Y-87694113D02*
X139699000Y-87694113D01*
X136347000Y-87654113D02*
X136960000Y-87654113D01*
X139040000Y-87654113D02*
X139653000Y-87654113D01*
X136395000Y-87614113D02*
X139605000Y-87614113D01*
X136446000Y-87574113D02*
X139554000Y-87574113D01*
X136500000Y-87534113D02*
X139500000Y-87534113D01*
X136557000Y-87494113D02*
X139443000Y-87494113D01*
X136617000Y-87454113D02*
X139383000Y-87454113D01*
X136681000Y-87414113D02*
X139319000Y-87414113D01*
X136749000Y-87374113D02*
X139251000Y-87374113D01*
X136822000Y-87334113D02*
X139178000Y-87334113D01*
X136902000Y-87294113D02*
X139098000Y-87294113D01*
X136989000Y-87254113D02*
X139011000Y-87254113D01*
X137085000Y-87214113D02*
X138915000Y-87214113D01*
X137195000Y-87174113D02*
X138805000Y-87174113D01*
X137323000Y-87134113D02*
X138677000Y-87134113D01*
X137482000Y-87094113D02*
X138518000Y-87094113D01*
X137716000Y-87054113D02*
X138284000Y-87054113D01*
X140620000Y-89655113D02*
G75*
G03*
X140620000Y-89655113I-2620000J0D01*
G01*
%TO.C,R103*%
X125220000Y-89280000D02*
X129060000Y-89280000D01*
X125220000Y-91120000D02*
X129060000Y-91120000D01*
%TO.C,C102*%
X135790000Y-98340580D02*
X135790000Y-98059420D01*
X136810000Y-98340580D02*
X136810000Y-98059420D01*
%TO.C,R101*%
X122837258Y-102422500D02*
X122362742Y-102422500D01*
X122837258Y-101377500D02*
X122362742Y-101377500D01*
%TO.C,C103*%
X139340580Y-96010000D02*
X139059420Y-96010000D01*
X139340580Y-94990000D02*
X139059420Y-94990000D01*
%TO.C,J102*%
X117770000Y-86570000D02*
X119100000Y-86570000D01*
X117770000Y-87900000D02*
X117770000Y-86570000D01*
X117770000Y-89170000D02*
X117770000Y-91770000D01*
X117770000Y-89170000D02*
X120430000Y-89170000D01*
X117770000Y-91770000D02*
X120430000Y-91770000D01*
X120430000Y-89170000D02*
X120430000Y-91770000D01*
%TO.C,R102*%
X126862742Y-89677500D02*
X127337258Y-89677500D01*
X126862742Y-90722500D02*
X127337258Y-90722500D01*
D13*
%TO.C,J101*%
X136100000Y-107800000D02*
X136100000Y-115600000D01*
X135600000Y-115600000D02*
X136100000Y-115600000D01*
X135600000Y-115600000D02*
X135600000Y-107800000D01*
X135600000Y-115600000D02*
X125600000Y-115600000D01*
X135600000Y-107800000D02*
X136100000Y-107800000D01*
X135600000Y-107800000D02*
X125600000Y-107800000D01*
X125600000Y-115300000D02*
X135600000Y-115300000D01*
X125600000Y-107800000D02*
X125600000Y-115600000D01*
%TD*%
M02*
