%TF.GenerationSoftware,KiCad,Pcbnew,(7.0.0)*%
%TF.CreationDate,2023-05-21T11:30:13-07:00*%
%TF.ProjectId,DRV8874-breakout-board,44525638-3837-4342-9d62-7265616b6f75,rev?*%
%TF.SameCoordinates,Original*%
%TF.FileFunction,Legend,Bot*%
%TF.FilePolarity,Positive*%
%FSLAX46Y46*%
G04 Gerber Fmt 4.6, Leading zero omitted, Abs format (unit mm)*
G04 Created by KiCad (PCBNEW (7.0.0)) date 2023-05-21 11:30:13*
%MOMM*%
%LPD*%
G01*
G04 APERTURE LIST*
%ADD10C,0.150000*%
%ADD11C,0.160000*%
%ADD12C,0.180000*%
G04 APERTURE END LIST*
D10*
X123000000Y-89000000D02*
X121100000Y-89000000D01*
D11*
X127685714Y-114738857D02*
X128371428Y-114738857D01*
X128028571Y-114738857D02*
X128028571Y-113538857D01*
X128028571Y-113538857D02*
X128142857Y-113710285D01*
X128142857Y-113710285D02*
X128257142Y-113824571D01*
X128257142Y-113824571D02*
X128371428Y-113881714D01*
D10*
X125261904Y-103301428D02*
X124500000Y-103301428D01*
X124880952Y-103682380D02*
X124880952Y-102920476D01*
X124119047Y-102682380D02*
X123500000Y-102682380D01*
X123500000Y-102682380D02*
X123833333Y-103063333D01*
X123833333Y-103063333D02*
X123690476Y-103063333D01*
X123690476Y-103063333D02*
X123595238Y-103110952D01*
X123595238Y-103110952D02*
X123547619Y-103158571D01*
X123547619Y-103158571D02*
X123500000Y-103253809D01*
X123500000Y-103253809D02*
X123500000Y-103491904D01*
X123500000Y-103491904D02*
X123547619Y-103587142D01*
X123547619Y-103587142D02*
X123595238Y-103634761D01*
X123595238Y-103634761D02*
X123690476Y-103682380D01*
X123690476Y-103682380D02*
X123976190Y-103682380D01*
X123976190Y-103682380D02*
X124071428Y-103634761D01*
X124071428Y-103634761D02*
X124119047Y-103587142D01*
X123071428Y-103587142D02*
X123023809Y-103634761D01*
X123023809Y-103634761D02*
X123071428Y-103682380D01*
X123071428Y-103682380D02*
X123119047Y-103634761D01*
X123119047Y-103634761D02*
X123071428Y-103587142D01*
X123071428Y-103587142D02*
X123071428Y-103682380D01*
X122690476Y-102682380D02*
X122071429Y-102682380D01*
X122071429Y-102682380D02*
X122404762Y-103063333D01*
X122404762Y-103063333D02*
X122261905Y-103063333D01*
X122261905Y-103063333D02*
X122166667Y-103110952D01*
X122166667Y-103110952D02*
X122119048Y-103158571D01*
X122119048Y-103158571D02*
X122071429Y-103253809D01*
X122071429Y-103253809D02*
X122071429Y-103491904D01*
X122071429Y-103491904D02*
X122119048Y-103587142D01*
X122119048Y-103587142D02*
X122166667Y-103634761D01*
X122166667Y-103634761D02*
X122261905Y-103682380D01*
X122261905Y-103682380D02*
X122547619Y-103682380D01*
X122547619Y-103682380D02*
X122642857Y-103634761D01*
X122642857Y-103634761D02*
X122690476Y-103587142D01*
X121785714Y-102682380D02*
X121452381Y-103682380D01*
X121452381Y-103682380D02*
X121119048Y-102682380D01*
X123111904Y-90362380D02*
X123111904Y-89362380D01*
X123111904Y-89362380D02*
X122730952Y-89362380D01*
X122730952Y-89362380D02*
X122635714Y-89410000D01*
X122635714Y-89410000D02*
X122588095Y-89457619D01*
X122588095Y-89457619D02*
X122540476Y-89552857D01*
X122540476Y-89552857D02*
X122540476Y-89695714D01*
X122540476Y-89695714D02*
X122588095Y-89790952D01*
X122588095Y-89790952D02*
X122635714Y-89838571D01*
X122635714Y-89838571D02*
X122730952Y-89886190D01*
X122730952Y-89886190D02*
X123111904Y-89886190D01*
X122111904Y-90362380D02*
X122111904Y-89362380D01*
X122111904Y-89838571D02*
X121540476Y-89838571D01*
X121540476Y-90362380D02*
X121540476Y-89362380D01*
X123111904Y-91982380D02*
X123111904Y-90982380D01*
X122635714Y-91982380D02*
X122635714Y-90982380D01*
X122635714Y-90982380D02*
X122064286Y-91982380D01*
X122064286Y-91982380D02*
X122064286Y-90982380D01*
X121635714Y-91077619D02*
X121588095Y-91030000D01*
X121588095Y-91030000D02*
X121492857Y-90982380D01*
X121492857Y-90982380D02*
X121254762Y-90982380D01*
X121254762Y-90982380D02*
X121159524Y-91030000D01*
X121159524Y-91030000D02*
X121111905Y-91077619D01*
X121111905Y-91077619D02*
X121064286Y-91172857D01*
X121064286Y-91172857D02*
X121064286Y-91268095D01*
X121064286Y-91268095D02*
X121111905Y-91410952D01*
X121111905Y-91410952D02*
X121683333Y-91982380D01*
X121683333Y-91982380D02*
X121064286Y-91982380D01*
X125961904Y-100515714D02*
X125961904Y-101182380D01*
X125961904Y-100610952D02*
X125914285Y-100563333D01*
X125914285Y-100563333D02*
X125819047Y-100515714D01*
X125819047Y-100515714D02*
X125676190Y-100515714D01*
X125676190Y-100515714D02*
X125580952Y-100563333D01*
X125580952Y-100563333D02*
X125533333Y-100658571D01*
X125533333Y-100658571D02*
X125533333Y-101182380D01*
X124723809Y-100658571D02*
X125057142Y-100658571D01*
X125057142Y-101182380D02*
X125057142Y-100182380D01*
X125057142Y-100182380D02*
X124580952Y-100182380D01*
X124247618Y-100896666D02*
X123771428Y-100896666D01*
X124342856Y-101182380D02*
X124009523Y-100182380D01*
X124009523Y-100182380D02*
X123676190Y-101182380D01*
X123342856Y-100182380D02*
X123342856Y-100991904D01*
X123342856Y-100991904D02*
X123295237Y-101087142D01*
X123295237Y-101087142D02*
X123247618Y-101134761D01*
X123247618Y-101134761D02*
X123152380Y-101182380D01*
X123152380Y-101182380D02*
X122961904Y-101182380D01*
X122961904Y-101182380D02*
X122866666Y-101134761D01*
X122866666Y-101134761D02*
X122819047Y-101087142D01*
X122819047Y-101087142D02*
X122771428Y-100991904D01*
X122771428Y-100991904D02*
X122771428Y-100182380D01*
X121819047Y-101182380D02*
X122295237Y-101182380D01*
X122295237Y-101182380D02*
X122295237Y-100182380D01*
X121628570Y-100182380D02*
X121057142Y-100182380D01*
X121342856Y-101182380D02*
X121342856Y-100182380D01*
D11*
X127635714Y-77281714D02*
X128550000Y-77281714D01*
D10*
X125561904Y-95982380D02*
X125561904Y-94982380D01*
X125085714Y-95982380D02*
X125085714Y-94982380D01*
X125085714Y-94982380D02*
X124704762Y-94982380D01*
X124704762Y-94982380D02*
X124609524Y-95030000D01*
X124609524Y-95030000D02*
X124561905Y-95077619D01*
X124561905Y-95077619D02*
X124514286Y-95172857D01*
X124514286Y-95172857D02*
X124514286Y-95315714D01*
X124514286Y-95315714D02*
X124561905Y-95410952D01*
X124561905Y-95410952D02*
X124609524Y-95458571D01*
X124609524Y-95458571D02*
X124704762Y-95506190D01*
X124704762Y-95506190D02*
X125085714Y-95506190D01*
X123514286Y-95982380D02*
X123847619Y-95506190D01*
X124085714Y-95982380D02*
X124085714Y-94982380D01*
X124085714Y-94982380D02*
X123704762Y-94982380D01*
X123704762Y-94982380D02*
X123609524Y-95030000D01*
X123609524Y-95030000D02*
X123561905Y-95077619D01*
X123561905Y-95077619D02*
X123514286Y-95172857D01*
X123514286Y-95172857D02*
X123514286Y-95315714D01*
X123514286Y-95315714D02*
X123561905Y-95410952D01*
X123561905Y-95410952D02*
X123609524Y-95458571D01*
X123609524Y-95458571D02*
X123704762Y-95506190D01*
X123704762Y-95506190D02*
X124085714Y-95506190D01*
X122895238Y-94982380D02*
X122704762Y-94982380D01*
X122704762Y-94982380D02*
X122609524Y-95030000D01*
X122609524Y-95030000D02*
X122514286Y-95125238D01*
X122514286Y-95125238D02*
X122466667Y-95315714D01*
X122466667Y-95315714D02*
X122466667Y-95649047D01*
X122466667Y-95649047D02*
X122514286Y-95839523D01*
X122514286Y-95839523D02*
X122609524Y-95934761D01*
X122609524Y-95934761D02*
X122704762Y-95982380D01*
X122704762Y-95982380D02*
X122895238Y-95982380D01*
X122895238Y-95982380D02*
X122990476Y-95934761D01*
X122990476Y-95934761D02*
X123085714Y-95839523D01*
X123085714Y-95839523D02*
X123133333Y-95649047D01*
X123133333Y-95649047D02*
X123133333Y-95315714D01*
X123133333Y-95315714D02*
X123085714Y-95125238D01*
X123085714Y-95125238D02*
X122990476Y-95030000D01*
X122990476Y-95030000D02*
X122895238Y-94982380D01*
X122038095Y-95982380D02*
X122038095Y-94982380D01*
X122038095Y-94982380D02*
X121657143Y-94982380D01*
X121657143Y-94982380D02*
X121561905Y-95030000D01*
X121561905Y-95030000D02*
X121514286Y-95077619D01*
X121514286Y-95077619D02*
X121466667Y-95172857D01*
X121466667Y-95172857D02*
X121466667Y-95315714D01*
X121466667Y-95315714D02*
X121514286Y-95410952D01*
X121514286Y-95410952D02*
X121561905Y-95458571D01*
X121561905Y-95458571D02*
X121657143Y-95506190D01*
X121657143Y-95506190D02*
X122038095Y-95506190D01*
X121038095Y-95982380D02*
X121038095Y-94982380D01*
D11*
X132635714Y-77281714D02*
X133550000Y-77281714D01*
X133092857Y-77738857D02*
X133092857Y-76824571D01*
D10*
X142482380Y-85138095D02*
X141482380Y-85138095D01*
X141482380Y-85138095D02*
X141482380Y-85376190D01*
X141482380Y-85376190D02*
X141530000Y-85519047D01*
X141530000Y-85519047D02*
X141625238Y-85614285D01*
X141625238Y-85614285D02*
X141720476Y-85661904D01*
X141720476Y-85661904D02*
X141910952Y-85709523D01*
X141910952Y-85709523D02*
X142053809Y-85709523D01*
X142053809Y-85709523D02*
X142244285Y-85661904D01*
X142244285Y-85661904D02*
X142339523Y-85614285D01*
X142339523Y-85614285D02*
X142434761Y-85519047D01*
X142434761Y-85519047D02*
X142482380Y-85376190D01*
X142482380Y-85376190D02*
X142482380Y-85138095D01*
X142482380Y-86709523D02*
X142006190Y-86376190D01*
X142482380Y-86138095D02*
X141482380Y-86138095D01*
X141482380Y-86138095D02*
X141482380Y-86519047D01*
X141482380Y-86519047D02*
X141530000Y-86614285D01*
X141530000Y-86614285D02*
X141577619Y-86661904D01*
X141577619Y-86661904D02*
X141672857Y-86709523D01*
X141672857Y-86709523D02*
X141815714Y-86709523D01*
X141815714Y-86709523D02*
X141910952Y-86661904D01*
X141910952Y-86661904D02*
X141958571Y-86614285D01*
X141958571Y-86614285D02*
X142006190Y-86519047D01*
X142006190Y-86519047D02*
X142006190Y-86138095D01*
X141482380Y-86995238D02*
X142482380Y-87328571D01*
X142482380Y-87328571D02*
X141482380Y-87661904D01*
X141910952Y-88138095D02*
X141863333Y-88042857D01*
X141863333Y-88042857D02*
X141815714Y-87995238D01*
X141815714Y-87995238D02*
X141720476Y-87947619D01*
X141720476Y-87947619D02*
X141672857Y-87947619D01*
X141672857Y-87947619D02*
X141577619Y-87995238D01*
X141577619Y-87995238D02*
X141530000Y-88042857D01*
X141530000Y-88042857D02*
X141482380Y-88138095D01*
X141482380Y-88138095D02*
X141482380Y-88328571D01*
X141482380Y-88328571D02*
X141530000Y-88423809D01*
X141530000Y-88423809D02*
X141577619Y-88471428D01*
X141577619Y-88471428D02*
X141672857Y-88519047D01*
X141672857Y-88519047D02*
X141720476Y-88519047D01*
X141720476Y-88519047D02*
X141815714Y-88471428D01*
X141815714Y-88471428D02*
X141863333Y-88423809D01*
X141863333Y-88423809D02*
X141910952Y-88328571D01*
X141910952Y-88328571D02*
X141910952Y-88138095D01*
X141910952Y-88138095D02*
X141958571Y-88042857D01*
X141958571Y-88042857D02*
X142006190Y-87995238D01*
X142006190Y-87995238D02*
X142101428Y-87947619D01*
X142101428Y-87947619D02*
X142291904Y-87947619D01*
X142291904Y-87947619D02*
X142387142Y-87995238D01*
X142387142Y-87995238D02*
X142434761Y-88042857D01*
X142434761Y-88042857D02*
X142482380Y-88138095D01*
X142482380Y-88138095D02*
X142482380Y-88328571D01*
X142482380Y-88328571D02*
X142434761Y-88423809D01*
X142434761Y-88423809D02*
X142387142Y-88471428D01*
X142387142Y-88471428D02*
X142291904Y-88519047D01*
X142291904Y-88519047D02*
X142101428Y-88519047D01*
X142101428Y-88519047D02*
X142006190Y-88471428D01*
X142006190Y-88471428D02*
X141958571Y-88423809D01*
X141958571Y-88423809D02*
X141910952Y-88328571D01*
X141910952Y-89090476D02*
X141863333Y-88995238D01*
X141863333Y-88995238D02*
X141815714Y-88947619D01*
X141815714Y-88947619D02*
X141720476Y-88900000D01*
X141720476Y-88900000D02*
X141672857Y-88900000D01*
X141672857Y-88900000D02*
X141577619Y-88947619D01*
X141577619Y-88947619D02*
X141530000Y-88995238D01*
X141530000Y-88995238D02*
X141482380Y-89090476D01*
X141482380Y-89090476D02*
X141482380Y-89280952D01*
X141482380Y-89280952D02*
X141530000Y-89376190D01*
X141530000Y-89376190D02*
X141577619Y-89423809D01*
X141577619Y-89423809D02*
X141672857Y-89471428D01*
X141672857Y-89471428D02*
X141720476Y-89471428D01*
X141720476Y-89471428D02*
X141815714Y-89423809D01*
X141815714Y-89423809D02*
X141863333Y-89376190D01*
X141863333Y-89376190D02*
X141910952Y-89280952D01*
X141910952Y-89280952D02*
X141910952Y-89090476D01*
X141910952Y-89090476D02*
X141958571Y-88995238D01*
X141958571Y-88995238D02*
X142006190Y-88947619D01*
X142006190Y-88947619D02*
X142101428Y-88900000D01*
X142101428Y-88900000D02*
X142291904Y-88900000D01*
X142291904Y-88900000D02*
X142387142Y-88947619D01*
X142387142Y-88947619D02*
X142434761Y-88995238D01*
X142434761Y-88995238D02*
X142482380Y-89090476D01*
X142482380Y-89090476D02*
X142482380Y-89280952D01*
X142482380Y-89280952D02*
X142434761Y-89376190D01*
X142434761Y-89376190D02*
X142387142Y-89423809D01*
X142387142Y-89423809D02*
X142291904Y-89471428D01*
X142291904Y-89471428D02*
X142101428Y-89471428D01*
X142101428Y-89471428D02*
X142006190Y-89423809D01*
X142006190Y-89423809D02*
X141958571Y-89376190D01*
X141958571Y-89376190D02*
X141910952Y-89280952D01*
X141482380Y-89804762D02*
X141482380Y-90471428D01*
X141482380Y-90471428D02*
X142482380Y-90042857D01*
X141815714Y-91280952D02*
X142482380Y-91280952D01*
X141434761Y-91042857D02*
X142149047Y-90804762D01*
X142149047Y-90804762D02*
X142149047Y-91423809D01*
X141482380Y-92261905D02*
X142482380Y-92595238D01*
X142482380Y-92595238D02*
X141482380Y-92928571D01*
X142482380Y-93785714D02*
X142482380Y-93214286D01*
X142482380Y-93500000D02*
X141482380Y-93500000D01*
X141482380Y-93500000D02*
X141625238Y-93404762D01*
X141625238Y-93404762D02*
X141720476Y-93309524D01*
X141720476Y-93309524D02*
X141768095Y-93214286D01*
X142387142Y-94214286D02*
X142434761Y-94261905D01*
X142434761Y-94261905D02*
X142482380Y-94214286D01*
X142482380Y-94214286D02*
X142434761Y-94166667D01*
X142434761Y-94166667D02*
X142387142Y-94214286D01*
X142387142Y-94214286D02*
X142482380Y-94214286D01*
X141482380Y-94880952D02*
X141482380Y-94976190D01*
X141482380Y-94976190D02*
X141530000Y-95071428D01*
X141530000Y-95071428D02*
X141577619Y-95119047D01*
X141577619Y-95119047D02*
X141672857Y-95166666D01*
X141672857Y-95166666D02*
X141863333Y-95214285D01*
X141863333Y-95214285D02*
X142101428Y-95214285D01*
X142101428Y-95214285D02*
X142291904Y-95166666D01*
X142291904Y-95166666D02*
X142387142Y-95119047D01*
X142387142Y-95119047D02*
X142434761Y-95071428D01*
X142434761Y-95071428D02*
X142482380Y-94976190D01*
X142482380Y-94976190D02*
X142482380Y-94880952D01*
X142482380Y-94880952D02*
X142434761Y-94785714D01*
X142434761Y-94785714D02*
X142387142Y-94738095D01*
X142387142Y-94738095D02*
X142291904Y-94690476D01*
X142291904Y-94690476D02*
X142101428Y-94642857D01*
X142101428Y-94642857D02*
X141863333Y-94642857D01*
X141863333Y-94642857D02*
X141672857Y-94690476D01*
X141672857Y-94690476D02*
X141577619Y-94738095D01*
X141577619Y-94738095D02*
X141530000Y-94785714D01*
X141530000Y-94785714D02*
X141482380Y-94880952D01*
X136138095Y-92201428D02*
X136900000Y-92201428D01*
X136519047Y-92582380D02*
X136519047Y-91820476D01*
D11*
X133471428Y-113653142D02*
X133414285Y-113596000D01*
X133414285Y-113596000D02*
X133300000Y-113538857D01*
X133300000Y-113538857D02*
X133014285Y-113538857D01*
X133014285Y-113538857D02*
X132900000Y-113596000D01*
X132900000Y-113596000D02*
X132842857Y-113653142D01*
X132842857Y-113653142D02*
X132785714Y-113767428D01*
X132785714Y-113767428D02*
X132785714Y-113881714D01*
X132785714Y-113881714D02*
X132842857Y-114053142D01*
X132842857Y-114053142D02*
X133528571Y-114738857D01*
X133528571Y-114738857D02*
X132785714Y-114738857D01*
D10*
X139338095Y-100130000D02*
X139433333Y-100082380D01*
X139433333Y-100082380D02*
X139576190Y-100082380D01*
X139576190Y-100082380D02*
X139719047Y-100130000D01*
X139719047Y-100130000D02*
X139814285Y-100225238D01*
X139814285Y-100225238D02*
X139861904Y-100320476D01*
X139861904Y-100320476D02*
X139909523Y-100510952D01*
X139909523Y-100510952D02*
X139909523Y-100653809D01*
X139909523Y-100653809D02*
X139861904Y-100844285D01*
X139861904Y-100844285D02*
X139814285Y-100939523D01*
X139814285Y-100939523D02*
X139719047Y-101034761D01*
X139719047Y-101034761D02*
X139576190Y-101082380D01*
X139576190Y-101082380D02*
X139480952Y-101082380D01*
X139480952Y-101082380D02*
X139338095Y-101034761D01*
X139338095Y-101034761D02*
X139290476Y-100987142D01*
X139290476Y-100987142D02*
X139290476Y-100653809D01*
X139290476Y-100653809D02*
X139480952Y-100653809D01*
X138861904Y-101082380D02*
X138861904Y-100082380D01*
X138861904Y-100082380D02*
X138290476Y-101082380D01*
X138290476Y-101082380D02*
X138290476Y-100082380D01*
X137814285Y-101082380D02*
X137814285Y-100082380D01*
X137814285Y-100082380D02*
X137576190Y-100082380D01*
X137576190Y-100082380D02*
X137433333Y-100130000D01*
X137433333Y-100130000D02*
X137338095Y-100225238D01*
X137338095Y-100225238D02*
X137290476Y-100320476D01*
X137290476Y-100320476D02*
X137242857Y-100510952D01*
X137242857Y-100510952D02*
X137242857Y-100653809D01*
X137242857Y-100653809D02*
X137290476Y-100844285D01*
X137290476Y-100844285D02*
X137338095Y-100939523D01*
X137338095Y-100939523D02*
X137433333Y-101034761D01*
X137433333Y-101034761D02*
X137576190Y-101082380D01*
X137576190Y-101082380D02*
X137814285Y-101082380D01*
X123111904Y-86338571D02*
X122778571Y-86338571D01*
X122635714Y-86862380D02*
X123111904Y-86862380D01*
X123111904Y-86862380D02*
X123111904Y-85862380D01*
X123111904Y-85862380D02*
X122635714Y-85862380D01*
X122207142Y-86862380D02*
X122207142Y-85862380D01*
X122207142Y-85862380D02*
X121635714Y-86862380D01*
X121635714Y-86862380D02*
X121635714Y-85862380D01*
X123111904Y-88482380D02*
X123111904Y-87482380D01*
X122635714Y-88482380D02*
X122635714Y-87482380D01*
X122635714Y-87482380D02*
X122064286Y-88482380D01*
X122064286Y-88482380D02*
X122064286Y-87482380D01*
X121064286Y-88482380D02*
X121635714Y-88482380D01*
X121350000Y-88482380D02*
X121350000Y-87482380D01*
X121350000Y-87482380D02*
X121445238Y-87625238D01*
X121445238Y-87625238D02*
X121540476Y-87720476D01*
X121540476Y-87720476D02*
X121635714Y-87768095D01*
X139961904Y-103682380D02*
X139961904Y-102682380D01*
X139961904Y-102682380D02*
X139580952Y-102682380D01*
X139580952Y-102682380D02*
X139485714Y-102730000D01*
X139485714Y-102730000D02*
X139438095Y-102777619D01*
X139438095Y-102777619D02*
X139390476Y-102872857D01*
X139390476Y-102872857D02*
X139390476Y-103015714D01*
X139390476Y-103015714D02*
X139438095Y-103110952D01*
X139438095Y-103110952D02*
X139485714Y-103158571D01*
X139485714Y-103158571D02*
X139580952Y-103206190D01*
X139580952Y-103206190D02*
X139961904Y-103206190D01*
X138961904Y-103682380D02*
X138961904Y-102682380D01*
X138961904Y-102682380D02*
X138628571Y-103396666D01*
X138628571Y-103396666D02*
X138295238Y-102682380D01*
X138295238Y-102682380D02*
X138295238Y-103682380D01*
X137628571Y-102682380D02*
X137438095Y-102682380D01*
X137438095Y-102682380D02*
X137342857Y-102730000D01*
X137342857Y-102730000D02*
X137247619Y-102825238D01*
X137247619Y-102825238D02*
X137200000Y-103015714D01*
X137200000Y-103015714D02*
X137200000Y-103349047D01*
X137200000Y-103349047D02*
X137247619Y-103539523D01*
X137247619Y-103539523D02*
X137342857Y-103634761D01*
X137342857Y-103634761D02*
X137438095Y-103682380D01*
X137438095Y-103682380D02*
X137628571Y-103682380D01*
X137628571Y-103682380D02*
X137723809Y-103634761D01*
X137723809Y-103634761D02*
X137819047Y-103539523D01*
X137819047Y-103539523D02*
X137866666Y-103349047D01*
X137866666Y-103349047D02*
X137866666Y-103015714D01*
X137866666Y-103015714D02*
X137819047Y-102825238D01*
X137819047Y-102825238D02*
X137723809Y-102730000D01*
X137723809Y-102730000D02*
X137628571Y-102682380D01*
X136771428Y-103682380D02*
X136771428Y-102682380D01*
X136771428Y-102682380D02*
X136533333Y-102682380D01*
X136533333Y-102682380D02*
X136390476Y-102730000D01*
X136390476Y-102730000D02*
X136295238Y-102825238D01*
X136295238Y-102825238D02*
X136247619Y-102920476D01*
X136247619Y-102920476D02*
X136200000Y-103110952D01*
X136200000Y-103110952D02*
X136200000Y-103253809D01*
X136200000Y-103253809D02*
X136247619Y-103444285D01*
X136247619Y-103444285D02*
X136295238Y-103539523D01*
X136295238Y-103539523D02*
X136390476Y-103634761D01*
X136390476Y-103634761D02*
X136533333Y-103682380D01*
X136533333Y-103682380D02*
X136771428Y-103682380D01*
X135771428Y-103158571D02*
X135438095Y-103158571D01*
X135295238Y-103682380D02*
X135771428Y-103682380D01*
X135771428Y-103682380D02*
X135771428Y-102682380D01*
X135771428Y-102682380D02*
X135295238Y-102682380D01*
X123238095Y-105330000D02*
X123333333Y-105282380D01*
X123333333Y-105282380D02*
X123476190Y-105282380D01*
X123476190Y-105282380D02*
X123619047Y-105330000D01*
X123619047Y-105330000D02*
X123714285Y-105425238D01*
X123714285Y-105425238D02*
X123761904Y-105520476D01*
X123761904Y-105520476D02*
X123809523Y-105710952D01*
X123809523Y-105710952D02*
X123809523Y-105853809D01*
X123809523Y-105853809D02*
X123761904Y-106044285D01*
X123761904Y-106044285D02*
X123714285Y-106139523D01*
X123714285Y-106139523D02*
X123619047Y-106234761D01*
X123619047Y-106234761D02*
X123476190Y-106282380D01*
X123476190Y-106282380D02*
X123380952Y-106282380D01*
X123380952Y-106282380D02*
X123238095Y-106234761D01*
X123238095Y-106234761D02*
X123190476Y-106187142D01*
X123190476Y-106187142D02*
X123190476Y-105853809D01*
X123190476Y-105853809D02*
X123380952Y-105853809D01*
X122761904Y-106282380D02*
X122761904Y-105282380D01*
X122761904Y-105282380D02*
X122190476Y-106282380D01*
X122190476Y-106282380D02*
X122190476Y-105282380D01*
X121714285Y-106282380D02*
X121714285Y-105282380D01*
X121714285Y-105282380D02*
X121476190Y-105282380D01*
X121476190Y-105282380D02*
X121333333Y-105330000D01*
X121333333Y-105330000D02*
X121238095Y-105425238D01*
X121238095Y-105425238D02*
X121190476Y-105520476D01*
X121190476Y-105520476D02*
X121142857Y-105710952D01*
X121142857Y-105710952D02*
X121142857Y-105853809D01*
X121142857Y-105853809D02*
X121190476Y-106044285D01*
X121190476Y-106044285D02*
X121238095Y-106139523D01*
X121238095Y-106139523D02*
X121333333Y-106234761D01*
X121333333Y-106234761D02*
X121476190Y-106282380D01*
X121476190Y-106282380D02*
X121714285Y-106282380D01*
X126061904Y-97815714D02*
X126061904Y-98482380D01*
X126061904Y-97910952D02*
X126014285Y-97863333D01*
X126014285Y-97863333D02*
X125919047Y-97815714D01*
X125919047Y-97815714D02*
X125776190Y-97815714D01*
X125776190Y-97815714D02*
X125680952Y-97863333D01*
X125680952Y-97863333D02*
X125633333Y-97958571D01*
X125633333Y-97958571D02*
X125633333Y-98482380D01*
X125204761Y-98434761D02*
X125061904Y-98482380D01*
X125061904Y-98482380D02*
X124823809Y-98482380D01*
X124823809Y-98482380D02*
X124728571Y-98434761D01*
X124728571Y-98434761D02*
X124680952Y-98387142D01*
X124680952Y-98387142D02*
X124633333Y-98291904D01*
X124633333Y-98291904D02*
X124633333Y-98196666D01*
X124633333Y-98196666D02*
X124680952Y-98101428D01*
X124680952Y-98101428D02*
X124728571Y-98053809D01*
X124728571Y-98053809D02*
X124823809Y-98006190D01*
X124823809Y-98006190D02*
X125014285Y-97958571D01*
X125014285Y-97958571D02*
X125109523Y-97910952D01*
X125109523Y-97910952D02*
X125157142Y-97863333D01*
X125157142Y-97863333D02*
X125204761Y-97768095D01*
X125204761Y-97768095D02*
X125204761Y-97672857D01*
X125204761Y-97672857D02*
X125157142Y-97577619D01*
X125157142Y-97577619D02*
X125109523Y-97530000D01*
X125109523Y-97530000D02*
X125014285Y-97482380D01*
X125014285Y-97482380D02*
X124776190Y-97482380D01*
X124776190Y-97482380D02*
X124633333Y-97530000D01*
X123728571Y-98482380D02*
X124204761Y-98482380D01*
X124204761Y-98482380D02*
X124204761Y-97482380D01*
X123395237Y-97958571D02*
X123061904Y-97958571D01*
X122919047Y-98482380D02*
X123395237Y-98482380D01*
X123395237Y-98482380D02*
X123395237Y-97482380D01*
X123395237Y-97482380D02*
X122919047Y-97482380D01*
X122490475Y-97958571D02*
X122157142Y-97958571D01*
X122014285Y-98482380D02*
X122490475Y-98482380D01*
X122490475Y-98482380D02*
X122490475Y-97482380D01*
X122490475Y-97482380D02*
X122014285Y-97482380D01*
X121585713Y-98482380D02*
X121585713Y-97482380D01*
X121585713Y-97482380D02*
X121204761Y-97482380D01*
X121204761Y-97482380D02*
X121109523Y-97530000D01*
X121109523Y-97530000D02*
X121061904Y-97577619D01*
X121061904Y-97577619D02*
X121014285Y-97672857D01*
X121014285Y-97672857D02*
X121014285Y-97815714D01*
X121014285Y-97815714D02*
X121061904Y-97910952D01*
X121061904Y-97910952D02*
X121109523Y-97958571D01*
X121109523Y-97958571D02*
X121204761Y-98006190D01*
X121204761Y-98006190D02*
X121585713Y-98006190D01*
X139961904Y-105701428D02*
X139200000Y-105701428D01*
X139580952Y-106082380D02*
X139580952Y-105320476D01*
X138819047Y-105082380D02*
X138200000Y-105082380D01*
X138200000Y-105082380D02*
X138533333Y-105463333D01*
X138533333Y-105463333D02*
X138390476Y-105463333D01*
X138390476Y-105463333D02*
X138295238Y-105510952D01*
X138295238Y-105510952D02*
X138247619Y-105558571D01*
X138247619Y-105558571D02*
X138200000Y-105653809D01*
X138200000Y-105653809D02*
X138200000Y-105891904D01*
X138200000Y-105891904D02*
X138247619Y-105987142D01*
X138247619Y-105987142D02*
X138295238Y-106034761D01*
X138295238Y-106034761D02*
X138390476Y-106082380D01*
X138390476Y-106082380D02*
X138676190Y-106082380D01*
X138676190Y-106082380D02*
X138771428Y-106034761D01*
X138771428Y-106034761D02*
X138819047Y-105987142D01*
X137771428Y-105987142D02*
X137723809Y-106034761D01*
X137723809Y-106034761D02*
X137771428Y-106082380D01*
X137771428Y-106082380D02*
X137819047Y-106034761D01*
X137819047Y-106034761D02*
X137771428Y-105987142D01*
X137771428Y-105987142D02*
X137771428Y-106082380D01*
X137390476Y-105082380D02*
X136771429Y-105082380D01*
X136771429Y-105082380D02*
X137104762Y-105463333D01*
X137104762Y-105463333D02*
X136961905Y-105463333D01*
X136961905Y-105463333D02*
X136866667Y-105510952D01*
X136866667Y-105510952D02*
X136819048Y-105558571D01*
X136819048Y-105558571D02*
X136771429Y-105653809D01*
X136771429Y-105653809D02*
X136771429Y-105891904D01*
X136771429Y-105891904D02*
X136819048Y-105987142D01*
X136819048Y-105987142D02*
X136866667Y-106034761D01*
X136866667Y-106034761D02*
X136961905Y-106082380D01*
X136961905Y-106082380D02*
X137247619Y-106082380D01*
X137247619Y-106082380D02*
X137342857Y-106034761D01*
X137342857Y-106034761D02*
X137390476Y-105987142D01*
X136485714Y-105082380D02*
X136152381Y-106082380D01*
X136152381Y-106082380D02*
X135819048Y-105082380D01*
D12*
X129773571Y-85542857D02*
X131273571Y-86042857D01*
X131273571Y-86042857D02*
X129773571Y-86542857D01*
X131202142Y-86971428D02*
X131273571Y-87114285D01*
X131273571Y-87114285D02*
X131273571Y-87399999D01*
X131273571Y-87399999D02*
X131202142Y-87542856D01*
X131202142Y-87542856D02*
X131059285Y-87614285D01*
X131059285Y-87614285D02*
X130987857Y-87614285D01*
X130987857Y-87614285D02*
X130845000Y-87542856D01*
X130845000Y-87542856D02*
X130773571Y-87399999D01*
X130773571Y-87399999D02*
X130773571Y-87185714D01*
X130773571Y-87185714D02*
X130702142Y-87042856D01*
X130702142Y-87042856D02*
X130559285Y-86971428D01*
X130559285Y-86971428D02*
X130487857Y-86971428D01*
X130487857Y-86971428D02*
X130345000Y-87042856D01*
X130345000Y-87042856D02*
X130273571Y-87185714D01*
X130273571Y-87185714D02*
X130273571Y-87399999D01*
X130273571Y-87399999D02*
X130345000Y-87542856D01*
X131273571Y-89114285D02*
X130559285Y-88614285D01*
X131273571Y-88257142D02*
X129773571Y-88257142D01*
X129773571Y-88257142D02*
X129773571Y-88828571D01*
X129773571Y-88828571D02*
X129845000Y-88971428D01*
X129845000Y-88971428D02*
X129916428Y-89042857D01*
X129916428Y-89042857D02*
X130059285Y-89114285D01*
X130059285Y-89114285D02*
X130273571Y-89114285D01*
X130273571Y-89114285D02*
X130416428Y-89042857D01*
X130416428Y-89042857D02*
X130487857Y-88971428D01*
X130487857Y-88971428D02*
X130559285Y-88828571D01*
X130559285Y-88828571D02*
X130559285Y-88257142D01*
X131202142Y-90328571D02*
X131273571Y-90185714D01*
X131273571Y-90185714D02*
X131273571Y-89900000D01*
X131273571Y-89900000D02*
X131202142Y-89757142D01*
X131202142Y-89757142D02*
X131059285Y-89685714D01*
X131059285Y-89685714D02*
X130487857Y-89685714D01*
X130487857Y-89685714D02*
X130345000Y-89757142D01*
X130345000Y-89757142D02*
X130273571Y-89900000D01*
X130273571Y-89900000D02*
X130273571Y-90185714D01*
X130273571Y-90185714D02*
X130345000Y-90328571D01*
X130345000Y-90328571D02*
X130487857Y-90400000D01*
X130487857Y-90400000D02*
X130630714Y-90400000D01*
X130630714Y-90400000D02*
X130773571Y-89685714D01*
X131273571Y-91685714D02*
X130487857Y-91685714D01*
X130487857Y-91685714D02*
X130345000Y-91614285D01*
X130345000Y-91614285D02*
X130273571Y-91471428D01*
X130273571Y-91471428D02*
X130273571Y-91185714D01*
X130273571Y-91185714D02*
X130345000Y-91042856D01*
X131202142Y-91685714D02*
X131273571Y-91542856D01*
X131273571Y-91542856D02*
X131273571Y-91185714D01*
X131273571Y-91185714D02*
X131202142Y-91042856D01*
X131202142Y-91042856D02*
X131059285Y-90971428D01*
X131059285Y-90971428D02*
X130916428Y-90971428D01*
X130916428Y-90971428D02*
X130773571Y-91042856D01*
X130773571Y-91042856D02*
X130702142Y-91185714D01*
X130702142Y-91185714D02*
X130702142Y-91542856D01*
X130702142Y-91542856D02*
X130630714Y-91685714D01*
X131273571Y-92614285D02*
X131202142Y-92471428D01*
X131202142Y-92471428D02*
X131059285Y-92399999D01*
X131059285Y-92399999D02*
X129773571Y-92399999D01*
X131273571Y-93185713D02*
X130273571Y-93185713D01*
X129773571Y-93185713D02*
X129845000Y-93114285D01*
X129845000Y-93114285D02*
X129916428Y-93185713D01*
X129916428Y-93185713D02*
X129845000Y-93257142D01*
X129845000Y-93257142D02*
X129773571Y-93185713D01*
X129773571Y-93185713D02*
X129916428Y-93185713D01*
X130273571Y-93685714D02*
X130273571Y-94257142D01*
X129773571Y-93899999D02*
X131059285Y-93899999D01*
X131059285Y-93899999D02*
X131202142Y-93971428D01*
X131202142Y-93971428D02*
X131273571Y-94114285D01*
X131273571Y-94114285D02*
X131273571Y-94257142D01*
X130273571Y-94614285D02*
X131273571Y-94971428D01*
X130273571Y-95328571D02*
X131273571Y-94971428D01*
X131273571Y-94971428D02*
X131630714Y-94828571D01*
X131630714Y-94828571D02*
X131702142Y-94757142D01*
X131702142Y-94757142D02*
X131773571Y-94614285D01*
X131273571Y-97657142D02*
X130559285Y-97157142D01*
X131273571Y-96799999D02*
X129773571Y-96799999D01*
X129773571Y-96799999D02*
X129773571Y-97371428D01*
X129773571Y-97371428D02*
X129845000Y-97514285D01*
X129845000Y-97514285D02*
X129916428Y-97585714D01*
X129916428Y-97585714D02*
X130059285Y-97657142D01*
X130059285Y-97657142D02*
X130273571Y-97657142D01*
X130273571Y-97657142D02*
X130416428Y-97585714D01*
X130416428Y-97585714D02*
X130487857Y-97514285D01*
X130487857Y-97514285D02*
X130559285Y-97371428D01*
X130559285Y-97371428D02*
X130559285Y-96799999D01*
X131273571Y-98514285D02*
X131202142Y-98371428D01*
X131202142Y-98371428D02*
X131130714Y-98299999D01*
X131130714Y-98299999D02*
X130987857Y-98228571D01*
X130987857Y-98228571D02*
X130559285Y-98228571D01*
X130559285Y-98228571D02*
X130416428Y-98299999D01*
X130416428Y-98299999D02*
X130345000Y-98371428D01*
X130345000Y-98371428D02*
X130273571Y-98514285D01*
X130273571Y-98514285D02*
X130273571Y-98728571D01*
X130273571Y-98728571D02*
X130345000Y-98871428D01*
X130345000Y-98871428D02*
X130416428Y-98942857D01*
X130416428Y-98942857D02*
X130559285Y-99014285D01*
X130559285Y-99014285D02*
X130987857Y-99014285D01*
X130987857Y-99014285D02*
X131130714Y-98942857D01*
X131130714Y-98942857D02*
X131202142Y-98871428D01*
X131202142Y-98871428D02*
X131273571Y-98728571D01*
X131273571Y-98728571D02*
X131273571Y-98514285D01*
X131273571Y-99657142D02*
X129773571Y-99657142D01*
X130345000Y-99657142D02*
X130273571Y-99800000D01*
X130273571Y-99800000D02*
X130273571Y-100085714D01*
X130273571Y-100085714D02*
X130345000Y-100228571D01*
X130345000Y-100228571D02*
X130416428Y-100300000D01*
X130416428Y-100300000D02*
X130559285Y-100371428D01*
X130559285Y-100371428D02*
X130987857Y-100371428D01*
X130987857Y-100371428D02*
X131130714Y-100300000D01*
X131130714Y-100300000D02*
X131202142Y-100228571D01*
X131202142Y-100228571D02*
X131273571Y-100085714D01*
X131273571Y-100085714D02*
X131273571Y-99800000D01*
X131273571Y-99800000D02*
X131202142Y-99657142D01*
X131273571Y-101228571D02*
X131202142Y-101085714D01*
X131202142Y-101085714D02*
X131130714Y-101014285D01*
X131130714Y-101014285D02*
X130987857Y-100942857D01*
X130987857Y-100942857D02*
X130559285Y-100942857D01*
X130559285Y-100942857D02*
X130416428Y-101014285D01*
X130416428Y-101014285D02*
X130345000Y-101085714D01*
X130345000Y-101085714D02*
X130273571Y-101228571D01*
X130273571Y-101228571D02*
X130273571Y-101442857D01*
X130273571Y-101442857D02*
X130345000Y-101585714D01*
X130345000Y-101585714D02*
X130416428Y-101657143D01*
X130416428Y-101657143D02*
X130559285Y-101728571D01*
X130559285Y-101728571D02*
X130987857Y-101728571D01*
X130987857Y-101728571D02*
X131130714Y-101657143D01*
X131130714Y-101657143D02*
X131202142Y-101585714D01*
X131202142Y-101585714D02*
X131273571Y-101442857D01*
X131273571Y-101442857D02*
X131273571Y-101228571D01*
X130273571Y-102157143D02*
X130273571Y-102728571D01*
X129773571Y-102371428D02*
X131059285Y-102371428D01*
X131059285Y-102371428D02*
X131202142Y-102442857D01*
X131202142Y-102442857D02*
X131273571Y-102585714D01*
X131273571Y-102585714D02*
X131273571Y-102728571D01*
X131273571Y-103228571D02*
X130273571Y-103228571D01*
X129773571Y-103228571D02*
X129845000Y-103157143D01*
X129845000Y-103157143D02*
X129916428Y-103228571D01*
X129916428Y-103228571D02*
X129845000Y-103300000D01*
X129845000Y-103300000D02*
X129773571Y-103228571D01*
X129773571Y-103228571D02*
X129916428Y-103228571D01*
X131202142Y-104585715D02*
X131273571Y-104442857D01*
X131273571Y-104442857D02*
X131273571Y-104157143D01*
X131273571Y-104157143D02*
X131202142Y-104014286D01*
X131202142Y-104014286D02*
X131130714Y-103942857D01*
X131130714Y-103942857D02*
X130987857Y-103871429D01*
X130987857Y-103871429D02*
X130559285Y-103871429D01*
X130559285Y-103871429D02*
X130416428Y-103942857D01*
X130416428Y-103942857D02*
X130345000Y-104014286D01*
X130345000Y-104014286D02*
X130273571Y-104157143D01*
X130273571Y-104157143D02*
X130273571Y-104442857D01*
X130273571Y-104442857D02*
X130345000Y-104585715D01*
X131202142Y-105157143D02*
X131273571Y-105300000D01*
X131273571Y-105300000D02*
X131273571Y-105585714D01*
X131273571Y-105585714D02*
X131202142Y-105728571D01*
X131202142Y-105728571D02*
X131059285Y-105800000D01*
X131059285Y-105800000D02*
X130987857Y-105800000D01*
X130987857Y-105800000D02*
X130845000Y-105728571D01*
X130845000Y-105728571D02*
X130773571Y-105585714D01*
X130773571Y-105585714D02*
X130773571Y-105371429D01*
X130773571Y-105371429D02*
X130702142Y-105228571D01*
X130702142Y-105228571D02*
X130559285Y-105157143D01*
X130559285Y-105157143D02*
X130487857Y-105157143D01*
X130487857Y-105157143D02*
X130345000Y-105228571D01*
X130345000Y-105228571D02*
X130273571Y-105371429D01*
X130273571Y-105371429D02*
X130273571Y-105585714D01*
X130273571Y-105585714D02*
X130345000Y-105728571D01*
M02*
