%TF.GenerationSoftware,KiCad,Pcbnew,(7.0.0)*%
%TF.CreationDate,2023-03-21T16:51:35-07:00*%
%TF.ProjectId,DRV8874-breakout-board,44525638-3837-4342-9d62-7265616b6f75,rev?*%
%TF.SameCoordinates,Original*%
%TF.FileFunction,Copper,L1,Top*%
%TF.FilePolarity,Positive*%
%FSLAX46Y46*%
G04 Gerber Fmt 4.6, Leading zero omitted, Abs format (unit mm)*
G04 Created by KiCad (PCBNEW (7.0.0)) date 2023-03-21 16:51:35*
%MOMM*%
%LPD*%
G01*
G04 APERTURE LIST*
G04 Aperture macros list*
%AMRoundRect*
0 Rectangle with rounded corners*
0 $1 Rounding radius*
0 $2 $3 $4 $5 $6 $7 $8 $9 X,Y pos of 4 corners*
0 Add a 4 corners polygon primitive as box body*
4,1,4,$2,$3,$4,$5,$6,$7,$8,$9,$2,$3,0*
0 Add four circle primitives for the rounded corners*
1,1,$1+$1,$2,$3*
1,1,$1+$1,$4,$5*
1,1,$1+$1,$6,$7*
1,1,$1+$1,$8,$9*
0 Add four rect primitives between the rounded corners*
20,1,$1+$1,$2,$3,$4,$5,0*
20,1,$1+$1,$4,$5,$6,$7,0*
20,1,$1+$1,$6,$7,$8,$9,0*
20,1,$1+$1,$8,$9,$2,$3,0*%
G04 Aperture macros list end*
%TA.AperFunction,ComponentPad*%
%ADD10R,1.700000X1.700000*%
%TD*%
%TA.AperFunction,ComponentPad*%
%ADD11O,1.700000X1.700000*%
%TD*%
%TA.AperFunction,SMDPad,CuDef*%
%ADD12RoundRect,0.100000X-0.687500X-0.100000X0.687500X-0.100000X0.687500X0.100000X-0.687500X0.100000X0*%
%TD*%
%TA.AperFunction,ComponentPad*%
%ADD13C,0.500000*%
%TD*%
%TA.AperFunction,SMDPad,CuDef*%
%ADD14R,3.400000X5.000000*%
%TD*%
%TA.AperFunction,SMDPad,CuDef*%
%ADD15RoundRect,0.225000X0.250000X-0.225000X0.250000X0.225000X-0.250000X0.225000X-0.250000X-0.225000X0*%
%TD*%
%TA.AperFunction,ComponentPad*%
%ADD16C,5.600000*%
%TD*%
%TA.AperFunction,ComponentPad*%
%ADD17R,2.800000X2.800000*%
%TD*%
%TA.AperFunction,ComponentPad*%
%ADD18C,2.800000*%
%TD*%
%TA.AperFunction,ComponentPad*%
%ADD19R,1.600000X1.600000*%
%TD*%
%TA.AperFunction,ComponentPad*%
%ADD20C,1.600000*%
%TD*%
%TA.AperFunction,SMDPad,CuDef*%
%ADD21RoundRect,0.200000X0.275000X-0.200000X0.275000X0.200000X-0.275000X0.200000X-0.275000X-0.200000X0*%
%TD*%
%TA.AperFunction,SMDPad,CuDef*%
%ADD22RoundRect,0.225000X0.225000X0.250000X-0.225000X0.250000X-0.225000X-0.250000X0.225000X-0.250000X0*%
%TD*%
%TA.AperFunction,SMDPad,CuDef*%
%ADD23RoundRect,0.200000X-0.275000X0.200000X-0.275000X-0.200000X0.275000X-0.200000X0.275000X0.200000X0*%
%TD*%
%TA.AperFunction,ViaPad*%
%ADD24C,0.800000*%
%TD*%
%TA.AperFunction,Conductor*%
%ADD25C,0.600000*%
%TD*%
%TA.AperFunction,Conductor*%
%ADD26C,0.400000*%
%TD*%
%TA.AperFunction,Conductor*%
%ADD27C,0.800000*%
%TD*%
G04 APERTURE END LIST*
D10*
%TO.P,J105,1,Pin_1*%
%TO.N,+3V3*%
X141959999Y-105679999D03*
D11*
%TO.P,J105,2,Pin_2*%
%TO.N,PMODE*%
X141959999Y-103139999D03*
%TO.P,J105,3,Pin_3*%
%TO.N,GND*%
X141959999Y-100599999D03*
%TD*%
D12*
%TO.P,U101,1,EN/IN1*%
%TO.N,IN1*%
X127087500Y-94525000D03*
%TO.P,U101,2,PH/IN2*%
%TO.N,IN2*%
X127087500Y-95175000D03*
%TO.P,U101,3,nSLEEP*%
%TO.N,nSLEEP*%
X127087500Y-95825000D03*
%TO.P,U101,4,nFAULT*%
%TO.N,nFAULT*%
X127087500Y-96475000D03*
%TO.P,U101,5,VREF*%
%TO.N,+3V3*%
X127087500Y-97125000D03*
%TO.P,U101,6,IPROPI*%
%TO.N,IPROPI*%
X127087500Y-97775000D03*
%TO.P,U101,7,IMODE*%
%TO.N,GND*%
X127087500Y-98425000D03*
%TO.P,U101,8,OUT1*%
%TO.N,Net-(J101-Pin_2)*%
X127087500Y-99075000D03*
%TO.P,U101,9,PGND*%
%TO.N,GND*%
X132812500Y-99075000D03*
%TO.P,U101,10,OUT2*%
%TO.N,Net-(J101-Pin_1)*%
X132812500Y-98425000D03*
%TO.P,U101,11,VM*%
%TO.N,VMOTORS*%
X132812500Y-97775000D03*
%TO.P,U101,12,VCP*%
%TO.N,Net-(U101-VCP)*%
X132812500Y-97125000D03*
%TO.P,U101,13,CPH*%
%TO.N,Net-(U101-CPH)*%
X132812500Y-96475000D03*
%TO.P,U101,14,CPL*%
%TO.N,Net-(U101-CPL)*%
X132812500Y-95825000D03*
%TO.P,U101,15,GND*%
%TO.N,GND*%
X132812500Y-95175000D03*
%TO.P,U101,16,PMODE*%
%TO.N,PMODE*%
X132812500Y-94525000D03*
D13*
%TO.P,U101,17,Pad*%
%TO.N,GND*%
X129200000Y-95300000D03*
X129200000Y-96800000D03*
X129200000Y-98300000D03*
D14*
X129949999Y-96799999D03*
D13*
X130700000Y-95300000D03*
X130700000Y-96800000D03*
X130700000Y-98300000D03*
%TD*%
D10*
%TO.P,J104,1,Pin_1*%
%TO.N,nSLEEP*%
X119099999Y-95519999D03*
D11*
%TO.P,J104,2,Pin_2*%
%TO.N,nFAULT*%
X119099999Y-98059999D03*
%TO.P,J104,3,Pin_3*%
%TO.N,IPROPI*%
X119099999Y-100599999D03*
%TO.P,J104,4,Pin_4*%
%TO.N,+3V3*%
X119099999Y-103139999D03*
%TO.P,J104,5,Pin_5*%
%TO.N,GND*%
X119099999Y-105679999D03*
%TD*%
D15*
%TO.P,C101,1*%
%TO.N,Net-(U101-CPH)*%
X136200000Y-96275000D03*
%TO.P,C101,2*%
%TO.N,Net-(U101-CPL)*%
X136200000Y-94725000D03*
%TD*%
D16*
%TO.P,H104,1,1*%
%TO.N,GND*%
X140600000Y-112200000D03*
%TD*%
D17*
%TO.P,J103,1,Pin_1*%
%TO.N,VMOTORS*%
X128099999Y-80699999D03*
D18*
%TO.P,J103,2,Pin_2*%
%TO.N,GND*%
X133100000Y-80700000D03*
%TD*%
D19*
%TO.P,C104,1*%
%TO.N,VMOTORS*%
X137999999Y-90655112D03*
D20*
%TO.P,C104,2*%
%TO.N,GND*%
X138000000Y-88655113D03*
%TD*%
D15*
%TO.P,C102,1*%
%TO.N,VMOTORS*%
X136200000Y-99575000D03*
%TO.P,C102,2*%
%TO.N,Net-(U101-VCP)*%
X136200000Y-98025000D03*
%TD*%
D16*
%TO.P,H103,1,1*%
%TO.N,GND*%
X120600000Y-112200000D03*
%TD*%
D21*
%TO.P,R101,1*%
%TO.N,+3V3*%
X122500000Y-99525000D03*
%TO.P,R101,2*%
%TO.N,nFAULT*%
X122500000Y-97875000D03*
%TD*%
D22*
%TO.P,C103,1*%
%TO.N,GND*%
X140425000Y-95400000D03*
%TO.P,C103,2*%
%TO.N,VMOTORS*%
X138875000Y-95400000D03*
%TD*%
D10*
%TO.P,J102,1,Pin_1*%
%TO.N,IN1*%
X119099999Y-87899999D03*
D11*
%TO.P,J102,2,Pin_2*%
%TO.N,IN2*%
X119099999Y-90439999D03*
%TD*%
D23*
%TO.P,R102,1*%
%TO.N,IPROPI*%
X122500000Y-101175000D03*
%TO.P,R102,2*%
%TO.N,GND*%
X122500000Y-102825000D03*
%TD*%
D16*
%TO.P,H102,1,1*%
%TO.N,GND*%
X140600000Y-79200000D03*
%TD*%
D17*
%TO.P,J101,1,Pin_1*%
%TO.N,Net-(J101-Pin_1)*%
X133099999Y-110699999D03*
D18*
%TO.P,J101,2,Pin_2*%
%TO.N,Net-(J101-Pin_2)*%
X128100000Y-110700000D03*
%TD*%
D16*
%TO.P,H101,1,1*%
%TO.N,GND*%
X120600000Y-79200000D03*
%TD*%
D24*
%TO.N,PMODE*%
X139300000Y-102120000D03*
%TO.N,GND*%
X121600000Y-96600000D03*
X134500000Y-84120000D03*
X121900000Y-84320000D03*
X132700000Y-100300000D03*
X141960000Y-98060000D03*
X130500000Y-106920000D03*
X134650000Y-94650000D03*
X137700000Y-93400000D03*
X123900000Y-102300000D03*
X134100000Y-90100000D03*
X122100000Y-88900000D03*
X122100000Y-93200000D03*
X122900000Y-107120000D03*
X136300000Y-101320000D03*
X120700000Y-99300000D03*
X120700000Y-101900000D03*
X139100000Y-86300000D03*
X127850000Y-84320000D03*
X139900000Y-104320000D03*
X125500000Y-100720000D03*
X140100000Y-93300000D03*
%TO.N,+3V3*%
X137100000Y-103520000D03*
X123800000Y-99500000D03*
%TO.N,PMODE*%
X132900000Y-93400000D03*
%TD*%
D25*
%TO.N,GND*%
X125500000Y-98720000D02*
X125700000Y-98520000D01*
D26*
X125700000Y-98520000D02*
X125795000Y-98425000D01*
D25*
X125500000Y-100720000D02*
X125500000Y-98720000D01*
D26*
X125795000Y-98425000D02*
X127087500Y-98425000D01*
%TO.N,PMODE*%
X140320000Y-103140000D02*
X141960000Y-103140000D01*
X139300000Y-102120000D02*
X140320000Y-103140000D01*
%TO.N,+3V3*%
X139260000Y-105680000D02*
X141960000Y-105680000D01*
X137100000Y-103520000D02*
X139260000Y-105680000D01*
D25*
%TO.N,Net-(J101-Pin_2)*%
X128100000Y-109900000D02*
X128100000Y-110700000D01*
X127087500Y-108887500D02*
X128100000Y-109900000D01*
X127087500Y-99287500D02*
X127087500Y-108887500D01*
D26*
X127087500Y-99075000D02*
X127087500Y-99287500D01*
D25*
%TO.N,Net-(J101-Pin_1)*%
X133975000Y-98475000D02*
X133925000Y-98475000D01*
X134900000Y-99400000D02*
X133975000Y-98475000D01*
X134900000Y-108900000D02*
X133100000Y-110700000D01*
X134900000Y-99400000D02*
X134900000Y-108900000D01*
D26*
X133925000Y-98425000D02*
X134900000Y-99400000D01*
X132812500Y-98425000D02*
X133925000Y-98425000D01*
%TO.N,Net-(U101-CPH)*%
X132812500Y-96475000D02*
X136000000Y-96475000D01*
X136000000Y-96475000D02*
X136200000Y-96275000D01*
%TO.N,Net-(U101-CPL)*%
X135100000Y-95825000D02*
X132812500Y-95825000D01*
X136200000Y-94725000D02*
X135100000Y-95825000D01*
%TO.N,VMOTORS*%
X132812500Y-97775000D02*
X134425000Y-97775000D01*
D25*
X136200000Y-99550000D02*
X134475000Y-97825000D01*
D27*
X138000000Y-90655113D02*
X138900000Y-91555113D01*
X138000000Y-90655113D02*
X135844887Y-88500000D01*
X138900000Y-91555113D02*
X138900000Y-98400000D01*
X138900000Y-98400000D02*
X137725000Y-99575000D01*
X135844887Y-88500000D02*
X135844887Y-88444887D01*
X137725000Y-99575000D02*
X136200000Y-99575000D01*
X135844887Y-88444887D02*
X128100000Y-80700000D01*
D26*
X136200000Y-99550000D02*
X136200000Y-99575000D01*
%TO.N,Net-(U101-VCP)*%
X135300000Y-97125000D02*
X136200000Y-98025000D01*
X132812500Y-97125000D02*
X135300000Y-97125000D01*
%TO.N,GND*%
X134125000Y-95175000D02*
X132812500Y-95175000D01*
X119105000Y-105675000D02*
X119100000Y-105680000D01*
X134650000Y-94650000D02*
X134125000Y-95175000D01*
%TO.N,Net-(J101-Pin_2)*%
X128100000Y-110325000D02*
X128100000Y-110700000D01*
%TO.N,+3V3*%
X123800000Y-98048528D02*
X123800000Y-99500000D01*
X127087500Y-97125000D02*
X124723528Y-97125000D01*
X119185000Y-103225000D02*
X119100000Y-103140000D01*
X124723528Y-97125000D02*
X123800000Y-98048528D01*
X123800000Y-99500000D02*
X122525000Y-99500000D01*
X122525000Y-99500000D02*
X122500000Y-99525000D01*
%TO.N,PMODE*%
X132812500Y-94525000D02*
X132812500Y-93487500D01*
X132812500Y-93487500D02*
X132900000Y-93400000D01*
%TO.N,nSLEEP*%
X125220000Y-95520000D02*
X125525000Y-95825000D01*
X125525000Y-95825000D02*
X127087500Y-95825000D01*
X119100000Y-95520000D02*
X125220000Y-95520000D01*
%TO.N,nFAULT*%
X119100000Y-98060000D02*
X122315000Y-98060000D01*
X122315000Y-98060000D02*
X122500000Y-97875000D01*
X123125000Y-97875000D02*
X124525000Y-96475000D01*
X122500000Y-97875000D02*
X123125000Y-97875000D01*
X124525000Y-96475000D02*
X127087500Y-96475000D01*
%TO.N,IPROPI*%
X120600000Y-100600000D02*
X119100000Y-100600000D01*
X123256371Y-101175000D02*
X122500000Y-101175000D01*
X127087500Y-97775000D02*
X125125000Y-97775000D01*
X124600000Y-99831371D02*
X123256371Y-101175000D01*
X120400000Y-100600000D02*
X120900000Y-100600000D01*
X124600000Y-98300000D02*
X124600000Y-99831371D01*
X121475000Y-101175000D02*
X120900000Y-100600000D01*
X120900000Y-100600000D02*
X120600000Y-100600000D01*
X125125000Y-97775000D02*
X124600000Y-98300000D01*
X122500000Y-101175000D02*
X121475000Y-101175000D01*
%TO.N,IN2*%
X121291472Y-90440000D02*
X119100000Y-90440000D01*
X126026472Y-95175000D02*
X121291472Y-90440000D01*
X127087500Y-95175000D02*
X126026472Y-95175000D01*
%TO.N,IN1*%
X119100000Y-88100000D02*
X119100000Y-87900000D01*
X127087500Y-94525000D02*
X127037500Y-94575000D01*
X126275000Y-94575000D02*
X119600000Y-87900000D01*
X119600000Y-87900000D02*
X119100000Y-87900000D01*
X127037500Y-94575000D02*
X126275000Y-94575000D01*
%TD*%
%TA.AperFunction,Conductor*%
%TO.N,GND*%
G36*
X121590384Y-98777426D02*
G01*
X121635850Y-98823585D01*
X121651830Y-98886373D01*
X121633961Y-98948650D01*
X121585400Y-99028978D01*
X121585398Y-99028982D01*
X121581522Y-99035394D01*
X121579292Y-99042548D01*
X121579292Y-99042550D01*
X121532864Y-99191542D01*
X121532861Y-99191553D01*
X121530914Y-99197804D01*
X121524500Y-99268384D01*
X121524500Y-99781616D01*
X121524754Y-99784419D01*
X121524755Y-99784425D01*
X121527404Y-99813572D01*
X121530914Y-99852196D01*
X121532863Y-99858451D01*
X121532865Y-99858460D01*
X121555862Y-99932262D01*
X121559166Y-99992976D01*
X121533209Y-100047962D01*
X121484235Y-100083997D01*
X121424017Y-100092418D01*
X121367035Y-100071200D01*
X121318432Y-100037651D01*
X121312404Y-100033216D01*
X121310018Y-100031347D01*
X121282388Y-100009700D01*
X121270961Y-100000747D01*
X121270958Y-100000745D01*
X121265057Y-99996122D01*
X121258219Y-99993044D01*
X121258210Y-99993039D01*
X121255810Y-99991959D01*
X121236268Y-99980937D01*
X121234107Y-99979445D01*
X121234102Y-99979442D01*
X121227930Y-99975182D01*
X121171702Y-99953857D01*
X121164784Y-99950991D01*
X121116772Y-99929383D01*
X121116769Y-99929382D01*
X121109932Y-99926305D01*
X121102560Y-99924954D01*
X121102551Y-99924951D01*
X121099952Y-99924475D01*
X121078340Y-99918450D01*
X121075891Y-99917521D01*
X121075885Y-99917519D01*
X121068872Y-99914860D01*
X121061430Y-99913956D01*
X121061425Y-99913955D01*
X121009171Y-99907610D01*
X121001771Y-99906483D01*
X120949987Y-99896994D01*
X120949982Y-99896993D01*
X120942606Y-99895642D01*
X120935126Y-99896094D01*
X120935118Y-99896094D01*
X120882567Y-99899274D01*
X120875079Y-99899500D01*
X120642372Y-99899500D01*
X120322711Y-99899500D01*
X120265454Y-99885489D01*
X120221136Y-99846623D01*
X120138495Y-99728599D01*
X119971401Y-99561505D01*
X119966968Y-99558401D01*
X119966961Y-99558395D01*
X119785842Y-99431575D01*
X119746976Y-99387257D01*
X119732965Y-99330000D01*
X119746976Y-99272743D01*
X119785842Y-99228425D01*
X119966961Y-99101604D01*
X119966961Y-99101603D01*
X119971401Y-99098495D01*
X120138495Y-98931401D01*
X120221136Y-98813376D01*
X120265454Y-98774511D01*
X120322711Y-98760500D01*
X121527844Y-98760500D01*
X121590384Y-98777426D01*
G37*
%TD.AperFunction*%
%TA.AperFunction,Conductor*%
G36*
X123545776Y-96234015D02*
G01*
X123589799Y-96271615D01*
X123611954Y-96325102D01*
X123607412Y-96382818D01*
X123577162Y-96432181D01*
X123051443Y-96957898D01*
X122993439Y-96990613D01*
X122926875Y-96988603D01*
X122908466Y-96982867D01*
X122908459Y-96982865D01*
X122902196Y-96980914D01*
X122895667Y-96980320D01*
X122895659Y-96980319D01*
X122834425Y-96974755D01*
X122834419Y-96974754D01*
X122831616Y-96974500D01*
X122168384Y-96974500D01*
X122165581Y-96974754D01*
X122165574Y-96974755D01*
X122104338Y-96980320D01*
X122104335Y-96980320D01*
X122097804Y-96980914D01*
X122091553Y-96982861D01*
X122091542Y-96982864D01*
X121942550Y-97029292D01*
X121935394Y-97031522D01*
X121928982Y-97035398D01*
X121928978Y-97035400D01*
X121796232Y-97115648D01*
X121796227Y-97115651D01*
X121789815Y-97119528D01*
X121784515Y-97124827D01*
X121784511Y-97124831D01*
X121674831Y-97234511D01*
X121674827Y-97234515D01*
X121669528Y-97239815D01*
X121665650Y-97246229D01*
X121665646Y-97246235D01*
X121633357Y-97299649D01*
X121588156Y-97343506D01*
X121527240Y-97359500D01*
X120322711Y-97359500D01*
X120265454Y-97345489D01*
X120221136Y-97306623D01*
X120216253Y-97299649D01*
X120138495Y-97188599D01*
X120016569Y-97066673D01*
X119985273Y-97013927D01*
X119983084Y-96952634D01*
X120010537Y-96897789D01*
X120060916Y-96862810D01*
X120192331Y-96813796D01*
X120307546Y-96727546D01*
X120393796Y-96612331D01*
X120444091Y-96477483D01*
X120450500Y-96417873D01*
X120450500Y-96344500D01*
X120467113Y-96282500D01*
X120512500Y-96237113D01*
X120574500Y-96220500D01*
X123489481Y-96220500D01*
X123545776Y-96234015D01*
G37*
%TD.AperFunction*%
%TA.AperFunction,Conductor*%
G36*
X140603032Y-75700649D02*
G01*
X140607384Y-75700862D01*
X140752450Y-75707989D01*
X140943670Y-75718010D01*
X140955324Y-75719177D01*
X141121254Y-75743791D01*
X141122225Y-75743940D01*
X141294897Y-75771289D01*
X141305570Y-75773465D01*
X141471374Y-75814997D01*
X141473014Y-75815422D01*
X141638880Y-75859866D01*
X141648544Y-75862884D01*
X141736363Y-75894307D01*
X141810526Y-75920843D01*
X141813188Y-75921830D01*
X141846726Y-75934704D01*
X141972097Y-75982829D01*
X141980623Y-75986475D01*
X142136869Y-76060374D01*
X142140055Y-76061939D01*
X142282487Y-76134511D01*
X142291094Y-76138897D01*
X142298547Y-76143023D01*
X142331730Y-76162912D01*
X142447075Y-76232047D01*
X142450824Y-76234387D01*
X142592670Y-76326503D01*
X142598977Y-76330884D01*
X142738210Y-76434147D01*
X142742365Y-76437367D01*
X142873635Y-76543667D01*
X142878872Y-76548155D01*
X143007389Y-76664636D01*
X143011797Y-76668833D01*
X143131165Y-76788201D01*
X143135362Y-76792609D01*
X143251843Y-76921126D01*
X143256331Y-76926363D01*
X143362620Y-77057619D01*
X143365851Y-77061788D01*
X143469114Y-77201021D01*
X143473512Y-77207353D01*
X143565599Y-77349155D01*
X143567963Y-77352942D01*
X143656975Y-77501451D01*
X143661101Y-77508904D01*
X143738037Y-77659898D01*
X143739647Y-77663176D01*
X143813510Y-77819345D01*
X143817179Y-77827925D01*
X143878168Y-77986810D01*
X143879155Y-77989472D01*
X143937111Y-78151447D01*
X143940135Y-78161128D01*
X143984535Y-78326827D01*
X143985044Y-78328792D01*
X144026526Y-78494398D01*
X144028715Y-78505130D01*
X144056041Y-78677665D01*
X144056226Y-78678867D01*
X144080818Y-78844649D01*
X144081990Y-78856355D01*
X144091989Y-79047157D01*
X144091886Y-79047162D01*
X144092011Y-79047561D01*
X144099351Y-79196967D01*
X144099500Y-79203052D01*
X144099500Y-112196948D01*
X144099351Y-112203033D01*
X144092014Y-112352369D01*
X144091993Y-112352774D01*
X144081990Y-112543644D01*
X144080818Y-112555349D01*
X144056226Y-112721131D01*
X144056041Y-112722333D01*
X144028715Y-112894868D01*
X144026526Y-112905600D01*
X143985044Y-113071206D01*
X143984535Y-113073171D01*
X143940135Y-113238870D01*
X143937111Y-113248551D01*
X143879155Y-113410526D01*
X143878168Y-113413188D01*
X143817179Y-113572073D01*
X143813510Y-113580653D01*
X143739647Y-113736822D01*
X143738037Y-113740100D01*
X143661101Y-113891094D01*
X143656975Y-113898547D01*
X143567963Y-114047056D01*
X143565599Y-114050843D01*
X143473512Y-114192645D01*
X143469114Y-114198977D01*
X143365851Y-114338210D01*
X143362620Y-114342379D01*
X143256331Y-114473635D01*
X143251843Y-114478872D01*
X143135362Y-114607389D01*
X143131165Y-114611797D01*
X143011797Y-114731165D01*
X143007389Y-114735362D01*
X142878872Y-114851843D01*
X142873635Y-114856331D01*
X142742379Y-114962620D01*
X142738210Y-114965851D01*
X142598977Y-115069114D01*
X142592645Y-115073512D01*
X142450843Y-115165599D01*
X142447056Y-115167963D01*
X142298547Y-115256975D01*
X142291094Y-115261101D01*
X142140100Y-115338037D01*
X142136822Y-115339647D01*
X141980653Y-115413510D01*
X141972073Y-115417179D01*
X141813188Y-115478168D01*
X141810526Y-115479155D01*
X141648551Y-115537111D01*
X141638870Y-115540135D01*
X141473171Y-115584535D01*
X141471206Y-115585044D01*
X141305600Y-115626526D01*
X141294868Y-115628715D01*
X141122333Y-115656041D01*
X141121131Y-115656226D01*
X140955349Y-115680818D01*
X140943644Y-115681990D01*
X140752774Y-115691993D01*
X140752369Y-115692014D01*
X140603033Y-115699351D01*
X140596948Y-115699500D01*
X120603052Y-115699500D01*
X120596967Y-115699351D01*
X120447629Y-115692014D01*
X120447224Y-115691993D01*
X120256354Y-115681990D01*
X120244649Y-115680818D01*
X120078867Y-115656226D01*
X120077665Y-115656041D01*
X119905130Y-115628715D01*
X119894398Y-115626526D01*
X119728792Y-115585044D01*
X119726827Y-115584535D01*
X119561128Y-115540135D01*
X119551447Y-115537111D01*
X119389472Y-115479155D01*
X119386810Y-115478168D01*
X119227925Y-115417179D01*
X119219351Y-115413512D01*
X119063176Y-115339647D01*
X119059898Y-115338037D01*
X118908904Y-115261101D01*
X118901451Y-115256975D01*
X118752942Y-115167963D01*
X118749155Y-115165599D01*
X118701996Y-115134973D01*
X118607343Y-115073505D01*
X118601021Y-115069114D01*
X118461788Y-114965851D01*
X118457619Y-114962620D01*
X118326363Y-114856331D01*
X118321126Y-114851843D01*
X118192609Y-114735362D01*
X118188201Y-114731165D01*
X118068833Y-114611797D01*
X118064636Y-114607389D01*
X117948155Y-114478872D01*
X117943667Y-114473635D01*
X117837378Y-114342379D01*
X117834147Y-114338210D01*
X117730884Y-114198977D01*
X117726503Y-114192670D01*
X117634387Y-114050824D01*
X117632035Y-114047056D01*
X117543023Y-113898547D01*
X117538897Y-113891094D01*
X117534511Y-113882487D01*
X117461939Y-113740055D01*
X117460374Y-113736869D01*
X117386475Y-113580623D01*
X117382829Y-113572097D01*
X117321830Y-113413188D01*
X117320843Y-113410526D01*
X117262887Y-113248551D01*
X117259863Y-113238870D01*
X117215422Y-113073014D01*
X117214997Y-113071374D01*
X117173465Y-112905570D01*
X117171289Y-112894897D01*
X117143940Y-112722225D01*
X117143791Y-112721254D01*
X117119177Y-112555324D01*
X117118010Y-112543670D01*
X117107985Y-112352369D01*
X117100647Y-112202994D01*
X117100499Y-112196988D01*
X117100108Y-103140000D01*
X117744341Y-103140000D01*
X117764937Y-103375408D01*
X117766336Y-103380630D01*
X117766337Y-103380634D01*
X117824694Y-103598430D01*
X117824697Y-103598438D01*
X117826097Y-103603663D01*
X117828385Y-103608570D01*
X117828386Y-103608572D01*
X117923678Y-103812927D01*
X117923681Y-103812933D01*
X117925965Y-103817830D01*
X117929064Y-103822257D01*
X117929066Y-103822259D01*
X118058399Y-104006966D01*
X118058402Y-104006970D01*
X118061505Y-104011401D01*
X118228599Y-104178495D01*
X118422170Y-104314035D01*
X118636337Y-104413903D01*
X118641567Y-104415304D01*
X118641569Y-104415305D01*
X118682947Y-104426392D01*
X118864592Y-104475063D01*
X119100000Y-104495659D01*
X119335408Y-104475063D01*
X119563663Y-104413903D01*
X119777830Y-104314035D01*
X119971401Y-104178495D01*
X120138495Y-104011401D01*
X120274035Y-103817830D01*
X120373903Y-103603663D01*
X120435063Y-103375408D01*
X120455659Y-103140000D01*
X120435063Y-102904592D01*
X120373903Y-102676337D01*
X120274035Y-102462171D01*
X120138495Y-102268599D01*
X119971401Y-102101505D01*
X119966968Y-102098401D01*
X119966961Y-102098395D01*
X119785842Y-101971575D01*
X119746976Y-101927257D01*
X119732965Y-101870000D01*
X119746976Y-101812743D01*
X119785842Y-101768425D01*
X119966961Y-101641604D01*
X119966961Y-101641603D01*
X119971401Y-101638495D01*
X120138495Y-101471401D01*
X120221136Y-101353376D01*
X120265454Y-101314511D01*
X120322711Y-101300500D01*
X120357628Y-101300500D01*
X120557628Y-101300500D01*
X120558481Y-101300500D01*
X120605934Y-101309939D01*
X120646162Y-101336819D01*
X120962059Y-101652716D01*
X120967193Y-101658170D01*
X121002093Y-101697565D01*
X121002097Y-101697568D01*
X121007071Y-101703183D01*
X121013247Y-101707446D01*
X121056574Y-101737353D01*
X121062605Y-101741791D01*
X121075273Y-101751716D01*
X121109944Y-101778878D01*
X121119180Y-101783034D01*
X121138727Y-101794059D01*
X121147070Y-101799818D01*
X121164260Y-101806337D01*
X121203298Y-101821142D01*
X121210220Y-101824009D01*
X121265069Y-101848695D01*
X121275041Y-101850522D01*
X121296656Y-101856547D01*
X121306128Y-101860140D01*
X121363831Y-101867146D01*
X121365815Y-101867387D01*
X121373222Y-101868514D01*
X121432394Y-101879358D01*
X121492433Y-101875725D01*
X121499921Y-101875500D01*
X121683481Y-101875500D01*
X121730934Y-101884939D01*
X121771161Y-101911818D01*
X121789815Y-101930472D01*
X121935394Y-102018478D01*
X122054859Y-102055704D01*
X122091542Y-102067135D01*
X122091544Y-102067135D01*
X122097804Y-102069086D01*
X122168384Y-102075500D01*
X122828797Y-102075500D01*
X122831616Y-102075500D01*
X122902196Y-102069086D01*
X123064606Y-102018478D01*
X123210185Y-101930472D01*
X123226585Y-101914071D01*
X123263374Y-101888678D01*
X123299072Y-101879880D01*
X123298977Y-101879358D01*
X123358153Y-101868513D01*
X123365552Y-101867387D01*
X123425243Y-101860140D01*
X123434703Y-101856551D01*
X123456330Y-101850522D01*
X123466303Y-101848695D01*
X123521179Y-101823996D01*
X123528044Y-101821152D01*
X123584301Y-101799818D01*
X123592635Y-101794064D01*
X123612192Y-101783034D01*
X123621428Y-101778878D01*
X123668784Y-101741775D01*
X123674791Y-101737355D01*
X123724300Y-101703183D01*
X123764193Y-101658151D01*
X123769295Y-101652731D01*
X125077731Y-100344295D01*
X125083151Y-100339193D01*
X125128183Y-100299300D01*
X125162362Y-100249781D01*
X125166779Y-100243778D01*
X125203877Y-100196428D01*
X125208030Y-100187197D01*
X125219058Y-100167643D01*
X125224818Y-100159301D01*
X125246149Y-100103051D01*
X125249014Y-100096137D01*
X125270614Y-100048147D01*
X125270614Y-100048144D01*
X125273694Y-100041303D01*
X125275518Y-100031345D01*
X125281548Y-100009711D01*
X125285140Y-100000243D01*
X125292389Y-99940536D01*
X125293516Y-99933133D01*
X125294767Y-99926305D01*
X125304357Y-99873977D01*
X125300726Y-99813948D01*
X125300500Y-99806461D01*
X125300500Y-98641519D01*
X125309939Y-98594066D01*
X125336819Y-98553838D01*
X125378838Y-98511819D01*
X125419066Y-98484939D01*
X125466519Y-98475500D01*
X125775456Y-98475500D01*
X125837456Y-98492113D01*
X125882843Y-98537500D01*
X125899456Y-98599501D01*
X125882843Y-98661501D01*
X125880413Y-98665708D01*
X125875464Y-98672159D01*
X125872354Y-98679664D01*
X125872352Y-98679670D01*
X125818066Y-98810728D01*
X125818066Y-98810729D01*
X125814956Y-98818238D01*
X125813896Y-98826289D01*
X125813894Y-98826297D01*
X125800029Y-98931618D01*
X125799500Y-98935639D01*
X125799500Y-98939691D01*
X125799500Y-98939692D01*
X125799500Y-99210305D01*
X125799500Y-99210320D01*
X125799501Y-99214360D01*
X125800029Y-99218374D01*
X125800030Y-99218382D01*
X125813895Y-99323702D01*
X125814956Y-99331762D01*
X125818063Y-99339263D01*
X125818065Y-99339270D01*
X125853976Y-99425965D01*
X125875464Y-99477841D01*
X125971718Y-99603282D01*
X126097159Y-99699536D01*
X126207721Y-99745332D01*
X126210453Y-99746464D01*
X126250681Y-99773344D01*
X126277561Y-99813572D01*
X126287000Y-99861025D01*
X126287000Y-108797306D01*
X126287000Y-108977694D01*
X126288549Y-108984483D01*
X126288550Y-108984488D01*
X126295517Y-109015018D01*
X126297845Y-109028718D01*
X126301108Y-109057669D01*
X126302132Y-109066755D01*
X126304429Y-109073321D01*
X126304430Y-109073323D01*
X126314772Y-109102879D01*
X126318619Y-109116235D01*
X126325588Y-109146767D01*
X126325591Y-109146776D01*
X126327140Y-109153561D01*
X126330158Y-109159829D01*
X126330161Y-109159836D01*
X126343750Y-109188054D01*
X126349068Y-109200893D01*
X126361711Y-109237022D01*
X126365412Y-109242912D01*
X126365413Y-109242914D01*
X126382072Y-109269427D01*
X126388796Y-109281593D01*
X126402388Y-109309815D01*
X126405409Y-109316087D01*
X126419715Y-109334026D01*
X126429271Y-109346009D01*
X126437318Y-109357350D01*
X126457684Y-109389762D01*
X126462612Y-109394690D01*
X126524181Y-109456259D01*
X126554612Y-109506183D01*
X126558783Y-109564502D01*
X126535768Y-109618249D01*
X126497113Y-109669887D01*
X126494990Y-109673773D01*
X126494986Y-109673781D01*
X126368951Y-109904597D01*
X126368945Y-109904609D01*
X126366828Y-109908487D01*
X126365284Y-109912624D01*
X126365280Y-109912635D01*
X126273370Y-110159055D01*
X126273367Y-110159063D01*
X126271825Y-110163199D01*
X126270884Y-110167521D01*
X126270884Y-110167524D01*
X126214981Y-110424506D01*
X126214979Y-110424516D01*
X126214039Y-110428840D01*
X126213723Y-110433251D01*
X126213722Y-110433262D01*
X126195321Y-110690541D01*
X126194645Y-110700000D01*
X126194961Y-110704418D01*
X126213722Y-110966737D01*
X126213723Y-110966746D01*
X126214039Y-110971160D01*
X126214979Y-110975485D01*
X126214981Y-110975493D01*
X126266178Y-111210843D01*
X126271825Y-111236801D01*
X126366828Y-111491513D01*
X126368948Y-111495395D01*
X126368951Y-111495402D01*
X126494986Y-111726219D01*
X126494990Y-111726226D01*
X126497113Y-111730113D01*
X126660029Y-111947742D01*
X126852258Y-112139971D01*
X127069887Y-112302887D01*
X127073777Y-112305011D01*
X127073780Y-112305013D01*
X127304597Y-112431048D01*
X127308487Y-112433172D01*
X127563199Y-112528175D01*
X127828840Y-112585961D01*
X128100000Y-112605355D01*
X128371160Y-112585961D01*
X128636801Y-112528175D01*
X128891513Y-112433172D01*
X129130113Y-112302887D01*
X129347742Y-112139971D01*
X129539971Y-111947742D01*
X129702887Y-111730113D01*
X129833172Y-111491513D01*
X129928175Y-111236801D01*
X129985961Y-110971160D01*
X130005355Y-110700000D01*
X129985961Y-110428840D01*
X129928175Y-110163199D01*
X129833172Y-109908487D01*
X129825949Y-109895259D01*
X129705013Y-109673780D01*
X129705011Y-109673777D01*
X129702887Y-109669887D01*
X129539971Y-109452258D01*
X129347742Y-109260029D01*
X129130113Y-109097113D01*
X129126226Y-109094990D01*
X129126219Y-109094986D01*
X128895402Y-108968951D01*
X128895395Y-108968948D01*
X128891513Y-108966828D01*
X128887369Y-108965282D01*
X128887364Y-108965280D01*
X128640944Y-108873370D01*
X128640940Y-108873369D01*
X128636801Y-108871825D01*
X128564992Y-108856204D01*
X128375493Y-108814981D01*
X128375485Y-108814979D01*
X128371160Y-108814039D01*
X128366745Y-108813723D01*
X128366737Y-108813722D01*
X128174911Y-108800002D01*
X128132246Y-108789112D01*
X128096077Y-108763999D01*
X127924319Y-108592241D01*
X127897439Y-108552013D01*
X127888000Y-108504560D01*
X127888000Y-99861025D01*
X127897439Y-99813572D01*
X127924319Y-99773344D01*
X127964547Y-99746464D01*
X127966066Y-99745834D01*
X128077841Y-99699536D01*
X128203282Y-99603282D01*
X128299536Y-99477841D01*
X128360044Y-99331762D01*
X128375500Y-99214361D01*
X128375499Y-98935640D01*
X128360044Y-98818238D01*
X128356933Y-98810728D01*
X128318608Y-98718204D01*
X128299536Y-98672159D01*
X128203282Y-98546718D01*
X128172861Y-98523375D01*
X128137136Y-98479844D01*
X128124348Y-98425000D01*
X128137136Y-98370156D01*
X128172862Y-98326624D01*
X128182310Y-98319374D01*
X128203282Y-98303282D01*
X128299536Y-98177841D01*
X128360044Y-98031762D01*
X128375500Y-97914361D01*
X128375499Y-97635640D01*
X128360044Y-97518238D01*
X128351436Y-97497457D01*
X128341995Y-97450000D01*
X128351436Y-97402543D01*
X128356934Y-97389270D01*
X128356934Y-97389269D01*
X128360044Y-97381762D01*
X128375500Y-97264361D01*
X128375499Y-96985640D01*
X128360044Y-96868238D01*
X128351435Y-96847454D01*
X128341995Y-96799997D01*
X128351437Y-96752540D01*
X128356934Y-96739271D01*
X128356934Y-96739268D01*
X128360044Y-96731762D01*
X128375500Y-96614361D01*
X128375499Y-96335640D01*
X128360044Y-96218238D01*
X128351436Y-96197457D01*
X128341995Y-96150000D01*
X128351436Y-96102543D01*
X128356934Y-96089270D01*
X128356934Y-96089269D01*
X128360044Y-96081762D01*
X128375500Y-95964361D01*
X128375499Y-95685640D01*
X128360044Y-95568238D01*
X128351435Y-95547454D01*
X128341995Y-95499997D01*
X128351437Y-95452540D01*
X128356934Y-95439271D01*
X128356934Y-95439268D01*
X128360044Y-95431762D01*
X128375500Y-95314361D01*
X128375499Y-95035640D01*
X128360044Y-94918238D01*
X128351435Y-94897454D01*
X128341995Y-94849997D01*
X128351437Y-94802540D01*
X128356934Y-94789271D01*
X128356934Y-94789268D01*
X128360044Y-94781762D01*
X128375500Y-94664361D01*
X128375499Y-94385640D01*
X128360044Y-94268238D01*
X128356933Y-94260728D01*
X128319292Y-94169854D01*
X128299536Y-94122159D01*
X128203282Y-93996718D01*
X128077841Y-93900464D01*
X128070333Y-93897354D01*
X127939271Y-93843066D01*
X127939268Y-93843065D01*
X127931762Y-93839956D01*
X127923708Y-93838895D01*
X127923702Y-93838894D01*
X127818381Y-93825029D01*
X127818377Y-93825028D01*
X127814361Y-93824500D01*
X127810308Y-93824500D01*
X127112427Y-93824500D01*
X127104940Y-93824274D01*
X127052378Y-93821094D01*
X127052372Y-93821094D01*
X127044894Y-93820642D01*
X127037521Y-93821992D01*
X127037518Y-93821993D01*
X127034916Y-93822470D01*
X127012569Y-93824500D01*
X126566518Y-93824500D01*
X126519065Y-93815061D01*
X126478837Y-93788181D01*
X120486818Y-87796161D01*
X120459938Y-87755933D01*
X120450499Y-87708480D01*
X120450499Y-87005439D01*
X120450499Y-87002128D01*
X120444091Y-86942517D01*
X120393796Y-86807669D01*
X120307546Y-86692454D01*
X120192331Y-86606204D01*
X120057483Y-86555909D01*
X120049770Y-86555079D01*
X120049767Y-86555079D01*
X120001180Y-86549855D01*
X120001169Y-86549854D01*
X119997873Y-86549500D01*
X119994550Y-86549500D01*
X118205439Y-86549500D01*
X118205420Y-86549500D01*
X118202128Y-86549501D01*
X118198850Y-86549853D01*
X118198838Y-86549854D01*
X118150231Y-86555079D01*
X118150225Y-86555080D01*
X118142517Y-86555909D01*
X118135252Y-86558618D01*
X118135246Y-86558620D01*
X118015980Y-86603104D01*
X118015978Y-86603104D01*
X118007669Y-86606204D01*
X118000572Y-86611516D01*
X118000568Y-86611519D01*
X117899550Y-86687141D01*
X117899546Y-86687144D01*
X117892454Y-86692454D01*
X117887144Y-86699546D01*
X117887141Y-86699550D01*
X117811519Y-86800568D01*
X117811516Y-86800572D01*
X117806204Y-86807669D01*
X117803104Y-86815978D01*
X117803104Y-86815980D01*
X117758620Y-86935247D01*
X117758619Y-86935250D01*
X117755909Y-86942517D01*
X117755079Y-86950227D01*
X117755079Y-86950232D01*
X117749855Y-86998819D01*
X117749854Y-86998831D01*
X117749500Y-87002127D01*
X117749500Y-87005448D01*
X117749500Y-87005449D01*
X117749500Y-88794560D01*
X117749500Y-88794578D01*
X117749501Y-88797872D01*
X117749853Y-88801150D01*
X117749854Y-88801161D01*
X117755079Y-88849768D01*
X117755080Y-88849773D01*
X117755909Y-88857483D01*
X117758619Y-88864749D01*
X117758620Y-88864753D01*
X117787069Y-88941028D01*
X117806204Y-88992331D01*
X117892454Y-89107546D01*
X118007669Y-89193796D01*
X118117405Y-89234725D01*
X118139082Y-89242810D01*
X118189462Y-89277789D01*
X118216915Y-89332633D01*
X118214726Y-89393926D01*
X118183430Y-89446673D01*
X118061505Y-89568599D01*
X118058402Y-89573029D01*
X118058399Y-89573034D01*
X117929073Y-89757731D01*
X117929068Y-89757738D01*
X117925965Y-89762171D01*
X117923677Y-89767077D01*
X117923675Y-89767081D01*
X117828386Y-89971427D01*
X117828383Y-89971432D01*
X117826097Y-89976337D01*
X117824698Y-89981557D01*
X117824694Y-89981569D01*
X117766337Y-90199365D01*
X117766335Y-90199371D01*
X117764937Y-90204592D01*
X117744341Y-90440000D01*
X117764937Y-90675408D01*
X117766336Y-90680630D01*
X117766337Y-90680634D01*
X117824694Y-90898430D01*
X117824697Y-90898438D01*
X117826097Y-90903663D01*
X117828385Y-90908570D01*
X117828386Y-90908572D01*
X117923678Y-91112927D01*
X117923681Y-91112933D01*
X117925965Y-91117830D01*
X117929064Y-91122257D01*
X117929066Y-91122259D01*
X118058399Y-91306966D01*
X118058402Y-91306970D01*
X118061505Y-91311401D01*
X118228599Y-91478495D01*
X118233031Y-91481598D01*
X118233033Y-91481600D01*
X118359090Y-91569866D01*
X118422170Y-91614035D01*
X118636337Y-91713903D01*
X118864592Y-91775063D01*
X119100000Y-91795659D01*
X119335408Y-91775063D01*
X119563663Y-91713903D01*
X119777830Y-91614035D01*
X119971401Y-91478495D01*
X120138495Y-91311401D01*
X120221136Y-91193376D01*
X120265454Y-91154511D01*
X120322711Y-91140500D01*
X120949953Y-91140500D01*
X120997406Y-91149939D01*
X121037634Y-91176819D01*
X124468634Y-94607819D01*
X124498884Y-94657182D01*
X124503426Y-94714898D01*
X124481271Y-94768385D01*
X124437248Y-94805985D01*
X124380953Y-94819500D01*
X120574499Y-94819500D01*
X120512499Y-94802887D01*
X120467112Y-94757500D01*
X120450499Y-94695500D01*
X120450499Y-94625439D01*
X120450499Y-94622128D01*
X120444091Y-94562517D01*
X120393796Y-94427669D01*
X120307546Y-94312454D01*
X120238450Y-94260729D01*
X120199431Y-94231519D01*
X120199430Y-94231518D01*
X120192331Y-94226204D01*
X120117136Y-94198158D01*
X120064752Y-94178620D01*
X120064750Y-94178619D01*
X120057483Y-94175909D01*
X120049770Y-94175079D01*
X120049767Y-94175079D01*
X120001180Y-94169855D01*
X120001169Y-94169854D01*
X119997873Y-94169500D01*
X119994550Y-94169500D01*
X118205439Y-94169500D01*
X118205420Y-94169500D01*
X118202128Y-94169501D01*
X118198850Y-94169853D01*
X118198838Y-94169854D01*
X118150231Y-94175079D01*
X118150225Y-94175080D01*
X118142517Y-94175909D01*
X118135252Y-94178618D01*
X118135246Y-94178620D01*
X118015980Y-94223104D01*
X118015978Y-94223104D01*
X118007669Y-94226204D01*
X118000572Y-94231516D01*
X118000568Y-94231519D01*
X117899550Y-94307141D01*
X117899546Y-94307144D01*
X117892454Y-94312454D01*
X117887144Y-94319546D01*
X117887141Y-94319550D01*
X117811519Y-94420568D01*
X117811516Y-94420572D01*
X117806204Y-94427669D01*
X117803104Y-94435978D01*
X117803104Y-94435980D01*
X117758620Y-94555247D01*
X117758619Y-94555250D01*
X117755909Y-94562517D01*
X117755079Y-94570227D01*
X117755079Y-94570232D01*
X117749855Y-94618819D01*
X117749854Y-94618831D01*
X117749500Y-94622127D01*
X117749500Y-94625448D01*
X117749500Y-94625449D01*
X117749500Y-96414560D01*
X117749500Y-96414578D01*
X117749501Y-96417872D01*
X117749853Y-96421150D01*
X117749854Y-96421161D01*
X117755079Y-96469768D01*
X117755080Y-96469773D01*
X117755909Y-96477483D01*
X117758619Y-96484749D01*
X117758620Y-96484753D01*
X117792217Y-96574831D01*
X117806204Y-96612331D01*
X117892454Y-96727546D01*
X118007669Y-96813796D01*
X118097903Y-96847451D01*
X118139082Y-96862810D01*
X118189462Y-96897789D01*
X118216915Y-96952633D01*
X118214726Y-97013926D01*
X118183430Y-97066673D01*
X118061505Y-97188599D01*
X118058402Y-97193029D01*
X118058399Y-97193034D01*
X117929073Y-97377731D01*
X117929068Y-97377738D01*
X117925965Y-97382171D01*
X117923677Y-97387077D01*
X117923675Y-97387081D01*
X117828386Y-97591427D01*
X117828383Y-97591432D01*
X117826097Y-97596337D01*
X117824698Y-97601557D01*
X117824694Y-97601569D01*
X117766337Y-97819365D01*
X117766335Y-97819371D01*
X117764937Y-97824592D01*
X117764465Y-97829977D01*
X117764465Y-97829982D01*
X117757083Y-97914360D01*
X117744341Y-98060000D01*
X117744813Y-98065395D01*
X117763730Y-98281618D01*
X117764937Y-98295408D01*
X117766336Y-98300630D01*
X117766337Y-98300634D01*
X117824694Y-98518430D01*
X117824697Y-98518438D01*
X117826097Y-98523663D01*
X117828385Y-98528570D01*
X117828386Y-98528572D01*
X117923678Y-98732927D01*
X117923681Y-98732933D01*
X117925965Y-98737830D01*
X117929064Y-98742257D01*
X117929066Y-98742259D01*
X118058399Y-98926966D01*
X118058402Y-98926970D01*
X118061505Y-98931401D01*
X118228599Y-99098495D01*
X118233032Y-99101599D01*
X118233038Y-99101604D01*
X118414158Y-99228425D01*
X118453024Y-99272743D01*
X118467035Y-99330000D01*
X118453024Y-99387257D01*
X118414159Y-99431575D01*
X118233041Y-99558395D01*
X118228599Y-99561505D01*
X118224775Y-99565328D01*
X118224769Y-99565334D01*
X118065334Y-99724769D01*
X118065328Y-99724775D01*
X118061505Y-99728599D01*
X118058402Y-99733029D01*
X118058399Y-99733034D01*
X117929073Y-99917731D01*
X117929068Y-99917738D01*
X117925965Y-99922171D01*
X117923677Y-99927077D01*
X117923675Y-99927081D01*
X117828386Y-100131427D01*
X117828383Y-100131432D01*
X117826097Y-100136337D01*
X117824698Y-100141557D01*
X117824694Y-100141569D01*
X117766337Y-100359365D01*
X117766335Y-100359371D01*
X117764937Y-100364592D01*
X117764465Y-100369977D01*
X117764465Y-100369982D01*
X117751747Y-100515349D01*
X117744341Y-100600000D01*
X117764937Y-100835408D01*
X117766336Y-100840630D01*
X117766337Y-100840634D01*
X117824694Y-101058430D01*
X117824697Y-101058438D01*
X117826097Y-101063663D01*
X117828385Y-101068570D01*
X117828386Y-101068572D01*
X117923678Y-101272927D01*
X117923681Y-101272933D01*
X117925965Y-101277830D01*
X117929064Y-101282257D01*
X117929066Y-101282259D01*
X118058399Y-101466966D01*
X118058402Y-101466970D01*
X118061505Y-101471401D01*
X118228599Y-101638495D01*
X118233032Y-101641599D01*
X118233038Y-101641604D01*
X118414158Y-101768425D01*
X118453024Y-101812743D01*
X118467035Y-101870000D01*
X118453024Y-101927257D01*
X118414159Y-101971575D01*
X118233041Y-102098395D01*
X118228599Y-102101505D01*
X118224775Y-102105328D01*
X118224769Y-102105334D01*
X118065334Y-102264769D01*
X118065328Y-102264775D01*
X118061505Y-102268599D01*
X118058402Y-102273029D01*
X118058399Y-102273034D01*
X117929073Y-102457731D01*
X117929068Y-102457738D01*
X117925965Y-102462171D01*
X117923677Y-102467077D01*
X117923675Y-102467081D01*
X117828386Y-102671427D01*
X117828383Y-102671432D01*
X117826097Y-102676337D01*
X117824698Y-102681557D01*
X117824694Y-102681569D01*
X117766337Y-102899365D01*
X117766335Y-102899371D01*
X117764937Y-102904592D01*
X117764465Y-102909977D01*
X117764465Y-102909982D01*
X117752418Y-103047684D01*
X117744341Y-103140000D01*
X117100108Y-103140000D01*
X117100000Y-100642263D01*
X117100000Y-82144578D01*
X126199500Y-82144578D01*
X126199501Y-82147872D01*
X126199853Y-82151150D01*
X126199854Y-82151161D01*
X126205079Y-82199768D01*
X126205080Y-82199773D01*
X126205909Y-82207483D01*
X126208619Y-82214749D01*
X126208620Y-82214753D01*
X126242217Y-82304831D01*
X126256204Y-82342331D01*
X126342454Y-82457546D01*
X126457669Y-82543796D01*
X126592517Y-82594091D01*
X126652127Y-82600500D01*
X128675638Y-82600499D01*
X128723091Y-82609938D01*
X128763319Y-82636818D01*
X135036143Y-88909642D01*
X135058947Y-88941028D01*
X135085504Y-88993149D01*
X135089590Y-88998195D01*
X135089593Y-88998199D01*
X135094322Y-89004038D01*
X135105344Y-89020075D01*
X135109103Y-89026586D01*
X135109105Y-89026589D01*
X135112354Y-89032216D01*
X135116701Y-89037044D01*
X135116704Y-89037048D01*
X135157740Y-89082624D01*
X135161954Y-89087557D01*
X135174768Y-89103380D01*
X135177067Y-89105679D01*
X135189161Y-89117773D01*
X135193630Y-89122482D01*
X135239016Y-89172888D01*
X135244273Y-89176707D01*
X135250355Y-89181126D01*
X135265152Y-89193764D01*
X136663181Y-90591793D01*
X136690061Y-90632021D01*
X136699500Y-90679474D01*
X136699500Y-91499673D01*
X136699500Y-91499691D01*
X136699501Y-91502985D01*
X136699853Y-91506263D01*
X136699854Y-91506274D01*
X136705079Y-91554881D01*
X136705080Y-91554886D01*
X136705909Y-91562596D01*
X136708619Y-91569862D01*
X136708620Y-91569866D01*
X136742217Y-91659944D01*
X136756204Y-91697444D01*
X136761518Y-91704543D01*
X136761519Y-91704544D01*
X136814309Y-91775063D01*
X136842454Y-91812659D01*
X136957669Y-91898909D01*
X137092517Y-91949204D01*
X137152127Y-91955613D01*
X137875500Y-91955613D01*
X137937500Y-91972226D01*
X137982887Y-92017613D01*
X137999500Y-92079613D01*
X137999500Y-94791128D01*
X137988590Y-94840340D01*
X137987997Y-94841303D01*
X137985725Y-94848157D01*
X137985724Y-94848161D01*
X137949500Y-94957480D01*
X137934651Y-95002292D01*
X137933963Y-95009022D01*
X137933962Y-95009029D01*
X137924819Y-95098523D01*
X137924818Y-95098541D01*
X137924500Y-95101655D01*
X137924500Y-95104802D01*
X137924500Y-95104803D01*
X137924500Y-95695194D01*
X137924500Y-95695213D01*
X137924501Y-95698344D01*
X137924820Y-95701476D01*
X137924821Y-95701477D01*
X137933962Y-95790972D01*
X137933963Y-95790980D01*
X137934651Y-95797708D01*
X137936779Y-95804131D01*
X137936780Y-95804134D01*
X137969306Y-95902292D01*
X137987997Y-95958697D01*
X137988590Y-95959659D01*
X137999500Y-96008872D01*
X137999500Y-97975639D01*
X137990061Y-98023092D01*
X137963181Y-98063320D01*
X137388320Y-98638181D01*
X137348092Y-98665061D01*
X137300639Y-98674500D01*
X137245350Y-98674500D01*
X137188895Y-98660903D01*
X137144820Y-98623093D01*
X137122793Y-98569363D01*
X137127644Y-98511497D01*
X137163218Y-98404139D01*
X137163218Y-98404138D01*
X137165349Y-98397708D01*
X137175500Y-98298345D01*
X137175499Y-97751656D01*
X137165349Y-97652292D01*
X137112003Y-97491303D01*
X137022968Y-97346956D01*
X136913693Y-97237681D01*
X136881599Y-97182094D01*
X136881599Y-97117906D01*
X136913693Y-97062319D01*
X136965109Y-97010903D01*
X137022968Y-96953044D01*
X137112003Y-96808697D01*
X137165349Y-96647708D01*
X137175500Y-96548345D01*
X137175499Y-96001656D01*
X137165349Y-95902292D01*
X137112003Y-95741303D01*
X137022968Y-95596956D01*
X137013693Y-95587681D01*
X136981599Y-95532094D01*
X136981599Y-95467906D01*
X137013693Y-95412319D01*
X137013692Y-95412319D01*
X137022968Y-95403044D01*
X137112003Y-95258697D01*
X137165349Y-95097708D01*
X137175500Y-94998345D01*
X137175499Y-94451656D01*
X137165349Y-94352292D01*
X137112003Y-94191303D01*
X137022968Y-94046956D01*
X136903044Y-93927032D01*
X136896894Y-93923238D01*
X136896892Y-93923237D01*
X136764845Y-93841789D01*
X136764843Y-93841788D01*
X136758697Y-93837997D01*
X136751842Y-93835725D01*
X136751841Y-93835725D01*
X136604136Y-93786781D01*
X136604135Y-93786780D01*
X136597708Y-93784651D01*
X136590975Y-93783963D01*
X136590970Y-93783962D01*
X136501476Y-93774819D01*
X136501459Y-93774818D01*
X136498345Y-93774500D01*
X136495196Y-93774500D01*
X135904805Y-93774500D01*
X135904785Y-93774500D01*
X135901656Y-93774501D01*
X135898524Y-93774820D01*
X135898522Y-93774821D01*
X135809027Y-93783962D01*
X135809017Y-93783963D01*
X135802292Y-93784651D01*
X135795870Y-93786778D01*
X135795865Y-93786780D01*
X135648158Y-93835725D01*
X135648154Y-93835726D01*
X135641303Y-93837997D01*
X135635159Y-93841786D01*
X135635154Y-93841789D01*
X135503107Y-93923237D01*
X135503101Y-93923241D01*
X135496956Y-93927032D01*
X135491849Y-93932138D01*
X135491845Y-93932142D01*
X135382142Y-94041845D01*
X135382138Y-94041849D01*
X135377032Y-94046956D01*
X135373241Y-94053101D01*
X135373237Y-94053107D01*
X135291789Y-94185154D01*
X135291786Y-94185159D01*
X135287997Y-94191303D01*
X135285726Y-94198154D01*
X135285725Y-94198158D01*
X135236781Y-94345863D01*
X135234651Y-94352292D01*
X135233963Y-94359022D01*
X135233962Y-94359029D01*
X135224819Y-94448523D01*
X135224818Y-94448541D01*
X135224500Y-94451655D01*
X135224500Y-94454804D01*
X135224500Y-94658480D01*
X135215061Y-94705933D01*
X135188181Y-94746161D01*
X134846162Y-95088181D01*
X134805934Y-95115061D01*
X134758481Y-95124500D01*
X134124544Y-95124500D01*
X134062544Y-95107887D01*
X134017157Y-95062500D01*
X134000544Y-95000499D01*
X134017157Y-94938499D01*
X134019585Y-94934292D01*
X134024536Y-94927841D01*
X134085044Y-94781762D01*
X134100500Y-94664361D01*
X134100499Y-94385640D01*
X134085044Y-94268238D01*
X134081933Y-94260728D01*
X134044292Y-94169854D01*
X134024536Y-94122159D01*
X133928282Y-93996718D01*
X133802841Y-93900464D01*
X133795334Y-93897354D01*
X133789590Y-93894038D01*
X133748791Y-93855991D01*
X133728799Y-93803909D01*
X133733661Y-93748334D01*
X133783666Y-93594435D01*
X133785674Y-93588256D01*
X133805460Y-93400000D01*
X133785674Y-93211744D01*
X133727179Y-93031716D01*
X133632533Y-92867784D01*
X133505871Y-92727112D01*
X133500613Y-92723292D01*
X133500611Y-92723290D01*
X133357988Y-92619669D01*
X133357987Y-92619668D01*
X133352730Y-92615849D01*
X133346792Y-92613205D01*
X133185745Y-92541501D01*
X133185740Y-92541499D01*
X133179803Y-92538856D01*
X133173444Y-92537504D01*
X133173440Y-92537503D01*
X133001008Y-92500852D01*
X133001005Y-92500851D01*
X132994646Y-92499500D01*
X132805354Y-92499500D01*
X132798995Y-92500851D01*
X132798991Y-92500852D01*
X132626559Y-92537503D01*
X132626552Y-92537505D01*
X132620197Y-92538856D01*
X132614262Y-92541498D01*
X132614254Y-92541501D01*
X132453207Y-92613205D01*
X132453202Y-92613207D01*
X132447270Y-92615849D01*
X132442016Y-92619665D01*
X132442011Y-92619669D01*
X132299388Y-92723290D01*
X132299381Y-92723295D01*
X132294129Y-92727112D01*
X132289784Y-92731937D01*
X132289779Y-92731942D01*
X132171813Y-92862956D01*
X132171808Y-92862962D01*
X132167467Y-92867784D01*
X132164222Y-92873404D01*
X132164218Y-92873410D01*
X132076069Y-93026089D01*
X132076066Y-93026094D01*
X132072821Y-93031716D01*
X132070815Y-93037888D01*
X132070813Y-93037894D01*
X132016333Y-93205564D01*
X132016331Y-93205573D01*
X132014326Y-93211744D01*
X132013648Y-93218194D01*
X132013646Y-93218204D01*
X131995962Y-93386464D01*
X131994540Y-93400000D01*
X131995219Y-93406460D01*
X132013646Y-93581795D01*
X132013647Y-93581803D01*
X132014326Y-93588256D01*
X132016332Y-93594432D01*
X132016334Y-93594438D01*
X132045816Y-93685175D01*
X132048707Y-93751383D01*
X132017087Y-93809625D01*
X131967720Y-93838707D01*
X131968238Y-93839956D01*
X131829666Y-93897354D01*
X131829662Y-93897355D01*
X131822159Y-93900464D01*
X131815714Y-93905408D01*
X131815711Y-93905411D01*
X131703164Y-93991771D01*
X131703160Y-93991774D01*
X131696718Y-93996718D01*
X131691774Y-94003160D01*
X131691771Y-94003164D01*
X131605411Y-94115711D01*
X131605408Y-94115714D01*
X131600464Y-94122159D01*
X131597355Y-94129662D01*
X131597354Y-94129666D01*
X131543066Y-94260728D01*
X131543066Y-94260729D01*
X131539956Y-94268238D01*
X131538896Y-94276289D01*
X131538894Y-94276297D01*
X131525029Y-94381618D01*
X131524500Y-94385639D01*
X131524500Y-94389691D01*
X131524500Y-94389692D01*
X131524500Y-94660305D01*
X131524500Y-94660320D01*
X131524501Y-94664360D01*
X131525029Y-94668374D01*
X131525030Y-94668382D01*
X131530488Y-94709842D01*
X131539956Y-94781762D01*
X131543063Y-94789263D01*
X131543065Y-94789270D01*
X131568221Y-94850000D01*
X131600464Y-94927841D01*
X131696718Y-95053282D01*
X131719005Y-95070383D01*
X131727139Y-95076625D01*
X131762864Y-95120157D01*
X131775651Y-95175000D01*
X131762864Y-95229843D01*
X131727139Y-95273375D01*
X131703163Y-95291772D01*
X131703160Y-95291774D01*
X131696718Y-95296718D01*
X131691774Y-95303160D01*
X131691771Y-95303164D01*
X131605411Y-95415711D01*
X131605408Y-95415714D01*
X131600464Y-95422159D01*
X131597355Y-95429662D01*
X131597354Y-95429666D01*
X131543066Y-95560728D01*
X131543064Y-95560733D01*
X131539956Y-95568238D01*
X131538896Y-95576289D01*
X131538894Y-95576297D01*
X131525029Y-95681618D01*
X131524500Y-95685639D01*
X131524500Y-95689691D01*
X131524500Y-95689692D01*
X131524500Y-95960305D01*
X131524500Y-95960320D01*
X131524501Y-95964360D01*
X131525029Y-95968374D01*
X131525030Y-95968382D01*
X131538895Y-96073703D01*
X131539956Y-96081762D01*
X131543064Y-96089265D01*
X131543065Y-96089269D01*
X131548566Y-96102549D01*
X131558004Y-96150000D01*
X131548566Y-96197451D01*
X131543066Y-96210728D01*
X131543064Y-96210733D01*
X131539956Y-96218238D01*
X131538896Y-96226289D01*
X131538894Y-96226297D01*
X131525029Y-96331618D01*
X131524500Y-96335639D01*
X131524500Y-96339691D01*
X131524500Y-96339692D01*
X131524500Y-96610305D01*
X131524500Y-96610320D01*
X131524501Y-96614360D01*
X131525029Y-96618374D01*
X131525030Y-96618382D01*
X131528004Y-96640970D01*
X131539956Y-96731762D01*
X131543064Y-96739265D01*
X131543065Y-96739269D01*
X131548566Y-96752549D01*
X131558004Y-96800000D01*
X131548566Y-96847451D01*
X131543066Y-96860728D01*
X131543064Y-96860733D01*
X131539956Y-96868238D01*
X131538896Y-96876289D01*
X131538894Y-96876297D01*
X131525029Y-96981618D01*
X131524500Y-96985639D01*
X131524500Y-96989691D01*
X131524500Y-96989692D01*
X131524500Y-97260305D01*
X131524500Y-97260320D01*
X131524501Y-97264360D01*
X131525029Y-97268374D01*
X131525030Y-97268382D01*
X131534701Y-97341845D01*
X131539956Y-97381762D01*
X131543063Y-97389263D01*
X131543065Y-97389270D01*
X131548565Y-97402546D01*
X131558004Y-97449997D01*
X131548567Y-97497448D01*
X131543066Y-97510728D01*
X131543064Y-97510733D01*
X131539956Y-97518238D01*
X131538896Y-97526289D01*
X131538894Y-97526297D01*
X131525029Y-97631618D01*
X131524500Y-97635639D01*
X131524500Y-97639690D01*
X131524500Y-97639691D01*
X131524500Y-97910305D01*
X131524500Y-97910320D01*
X131524501Y-97914360D01*
X131539956Y-98031762D01*
X131543064Y-98039265D01*
X131543065Y-98039269D01*
X131548566Y-98052549D01*
X131558004Y-98100000D01*
X131548566Y-98147451D01*
X131543066Y-98160728D01*
X131543064Y-98160733D01*
X131539956Y-98168238D01*
X131538896Y-98176289D01*
X131538894Y-98176297D01*
X131525029Y-98281618D01*
X131524500Y-98285639D01*
X131524500Y-98289691D01*
X131524500Y-98289692D01*
X131524500Y-98560305D01*
X131524500Y-98560320D01*
X131524501Y-98564360D01*
X131525029Y-98568374D01*
X131525030Y-98568382D01*
X131537210Y-98660903D01*
X131539956Y-98681762D01*
X131543063Y-98689263D01*
X131543065Y-98689270D01*
X131593376Y-98810729D01*
X131600464Y-98827841D01*
X131605411Y-98834288D01*
X131680553Y-98932216D01*
X131696718Y-98953282D01*
X131822159Y-99049536D01*
X131968238Y-99110044D01*
X132085639Y-99125500D01*
X132770125Y-99125499D01*
X132770128Y-99125500D01*
X133419932Y-99125500D01*
X133485904Y-99144506D01*
X133545442Y-99181916D01*
X133567151Y-99199229D01*
X134063181Y-99695259D01*
X134090061Y-99735487D01*
X134099500Y-99782940D01*
X134099500Y-108517060D01*
X134090061Y-108564513D01*
X134063183Y-108604738D01*
X133904737Y-108763183D01*
X133864512Y-108790061D01*
X133817059Y-108799500D01*
X131655439Y-108799500D01*
X131655420Y-108799500D01*
X131652128Y-108799501D01*
X131648850Y-108799853D01*
X131648838Y-108799854D01*
X131600231Y-108805079D01*
X131600225Y-108805080D01*
X131592517Y-108805909D01*
X131585252Y-108808618D01*
X131585246Y-108808620D01*
X131465980Y-108853104D01*
X131465978Y-108853104D01*
X131457669Y-108856204D01*
X131450572Y-108861516D01*
X131450568Y-108861519D01*
X131349550Y-108937141D01*
X131349546Y-108937144D01*
X131342454Y-108942454D01*
X131337144Y-108949546D01*
X131337141Y-108949550D01*
X131261519Y-109050568D01*
X131261516Y-109050572D01*
X131256204Y-109057669D01*
X131253104Y-109065978D01*
X131253104Y-109065980D01*
X131208620Y-109185247D01*
X131208619Y-109185250D01*
X131205909Y-109192517D01*
X131205079Y-109200227D01*
X131205079Y-109200232D01*
X131199855Y-109248819D01*
X131199854Y-109248831D01*
X131199500Y-109252127D01*
X131199500Y-109255448D01*
X131199500Y-109255449D01*
X131199500Y-112144560D01*
X131199500Y-112144578D01*
X131199501Y-112147872D01*
X131199853Y-112151150D01*
X131199854Y-112151161D01*
X131205079Y-112199768D01*
X131205080Y-112199773D01*
X131205909Y-112207483D01*
X131208619Y-112214749D01*
X131208620Y-112214753D01*
X131240501Y-112300229D01*
X131256204Y-112342331D01*
X131261518Y-112349430D01*
X131261519Y-112349431D01*
X131324207Y-112433172D01*
X131342454Y-112457546D01*
X131457669Y-112543796D01*
X131592517Y-112594091D01*
X131652127Y-112600500D01*
X134547872Y-112600499D01*
X134607483Y-112594091D01*
X134742331Y-112543796D01*
X134857546Y-112457546D01*
X134943796Y-112342331D01*
X134994091Y-112207483D01*
X135000500Y-112147873D01*
X135000499Y-109982939D01*
X135009938Y-109935487D01*
X135036818Y-109895259D01*
X135258297Y-109673781D01*
X135497826Y-109434252D01*
X135497826Y-109434251D01*
X135529816Y-109402262D01*
X135550180Y-109369850D01*
X135558220Y-109358519D01*
X135582091Y-109328587D01*
X135598700Y-109294095D01*
X135605417Y-109281942D01*
X135625789Y-109249522D01*
X135638436Y-109213377D01*
X135643753Y-109200543D01*
X135657335Y-109172340D01*
X135657334Y-109172340D01*
X135660359Y-109166061D01*
X135668876Y-109128746D01*
X135672722Y-109115393D01*
X135685368Y-109079255D01*
X135689655Y-109041201D01*
X135691982Y-109027512D01*
X135698951Y-108996983D01*
X135698951Y-108996979D01*
X135700500Y-108990195D01*
X135700500Y-108809806D01*
X135700500Y-103520000D01*
X136194540Y-103520000D01*
X136195219Y-103526460D01*
X136213646Y-103701795D01*
X136213647Y-103701803D01*
X136214326Y-103708256D01*
X136216331Y-103714428D01*
X136216333Y-103714435D01*
X136258401Y-103843905D01*
X136272821Y-103888284D01*
X136367467Y-104052216D01*
X136494129Y-104192888D01*
X136647270Y-104304151D01*
X136820197Y-104381144D01*
X136975127Y-104414075D01*
X137008514Y-104426392D01*
X137037027Y-104447684D01*
X138747059Y-106157716D01*
X138752193Y-106163170D01*
X138792071Y-106208183D01*
X138798240Y-106212441D01*
X138798241Y-106212442D01*
X138841569Y-106242349D01*
X138847602Y-106246788D01*
X138894943Y-106283877D01*
X138901785Y-106286956D01*
X138904175Y-106288032D01*
X138923724Y-106299058D01*
X138925888Y-106300552D01*
X138925896Y-106300556D01*
X138932070Y-106304818D01*
X138939087Y-106307479D01*
X138988306Y-106326145D01*
X138995228Y-106329012D01*
X139050068Y-106353694D01*
X139060035Y-106355520D01*
X139081653Y-106361547D01*
X139084113Y-106362480D01*
X139084116Y-106362480D01*
X139091128Y-106365140D01*
X139148602Y-106372118D01*
X139150830Y-106372389D01*
X139158235Y-106373516D01*
X139174066Y-106376416D01*
X139217394Y-106384357D01*
X139277422Y-106380726D01*
X139284910Y-106380500D01*
X140485501Y-106380500D01*
X140547501Y-106397113D01*
X140592888Y-106442500D01*
X140609501Y-106504500D01*
X140609501Y-106577872D01*
X140609853Y-106581150D01*
X140609854Y-106581161D01*
X140615079Y-106629768D01*
X140615080Y-106629773D01*
X140615909Y-106637483D01*
X140618619Y-106644749D01*
X140618620Y-106644753D01*
X140652217Y-106734831D01*
X140666204Y-106772331D01*
X140752454Y-106887546D01*
X140867669Y-106973796D01*
X141002517Y-107024091D01*
X141062127Y-107030500D01*
X142857872Y-107030499D01*
X142917483Y-107024091D01*
X143052331Y-106973796D01*
X143167546Y-106887546D01*
X143253796Y-106772331D01*
X143304091Y-106637483D01*
X143310500Y-106577873D01*
X143310499Y-104782128D01*
X143304091Y-104722517D01*
X143253796Y-104587669D01*
X143167546Y-104472454D01*
X143098144Y-104420500D01*
X143059431Y-104391519D01*
X143059430Y-104391518D01*
X143052331Y-104386204D01*
X142982359Y-104360106D01*
X142920916Y-104337189D01*
X142870537Y-104302210D01*
X142843084Y-104247365D01*
X142845273Y-104186072D01*
X142876566Y-104133329D01*
X142998495Y-104011401D01*
X143134035Y-103817830D01*
X143233903Y-103603663D01*
X143295063Y-103375408D01*
X143315659Y-103140000D01*
X143295063Y-102904592D01*
X143233903Y-102676337D01*
X143134035Y-102462171D01*
X142998495Y-102268599D01*
X142831401Y-102101505D01*
X142826970Y-102098402D01*
X142826966Y-102098399D01*
X142642259Y-101969066D01*
X142642257Y-101969064D01*
X142637830Y-101965965D01*
X142632933Y-101963681D01*
X142632927Y-101963678D01*
X142428572Y-101868386D01*
X142428570Y-101868385D01*
X142423663Y-101866097D01*
X142418438Y-101864697D01*
X142418430Y-101864694D01*
X142200634Y-101806337D01*
X142200630Y-101806336D01*
X142195408Y-101804937D01*
X142190020Y-101804465D01*
X142190017Y-101804465D01*
X141965395Y-101784813D01*
X141960000Y-101784341D01*
X141954605Y-101784813D01*
X141729982Y-101804465D01*
X141729977Y-101804465D01*
X141724592Y-101804937D01*
X141719371Y-101806335D01*
X141719365Y-101806337D01*
X141501569Y-101864694D01*
X141501557Y-101864698D01*
X141496337Y-101866097D01*
X141491432Y-101868383D01*
X141491427Y-101868386D01*
X141287081Y-101963675D01*
X141287077Y-101963677D01*
X141282171Y-101965965D01*
X141277738Y-101969068D01*
X141277731Y-101969073D01*
X141093034Y-102098399D01*
X141093029Y-102098402D01*
X141088599Y-102101505D01*
X141084775Y-102105328D01*
X141084769Y-102105334D01*
X140925334Y-102264769D01*
X140925328Y-102264775D01*
X140921505Y-102268599D01*
X140918402Y-102273029D01*
X140918399Y-102273034D01*
X140838864Y-102386623D01*
X140794546Y-102425489D01*
X140737289Y-102439500D01*
X140661519Y-102439500D01*
X140614066Y-102430061D01*
X140573838Y-102403181D01*
X140226504Y-102055847D01*
X140202264Y-102021549D01*
X140190864Y-101981127D01*
X140189597Y-101969073D01*
X140185674Y-101931744D01*
X140127179Y-101751716D01*
X140032533Y-101587784D01*
X139905871Y-101447112D01*
X139900613Y-101443292D01*
X139900611Y-101443290D01*
X139757988Y-101339669D01*
X139757987Y-101339668D01*
X139752730Y-101335849D01*
X139704805Y-101314511D01*
X139585745Y-101261501D01*
X139585740Y-101261499D01*
X139579803Y-101258856D01*
X139573444Y-101257504D01*
X139573440Y-101257503D01*
X139401008Y-101220852D01*
X139401005Y-101220851D01*
X139394646Y-101219500D01*
X139205354Y-101219500D01*
X139198995Y-101220851D01*
X139198991Y-101220852D01*
X139026559Y-101257503D01*
X139026552Y-101257505D01*
X139020197Y-101258856D01*
X139014262Y-101261498D01*
X139014254Y-101261501D01*
X138853207Y-101333205D01*
X138853202Y-101333207D01*
X138847270Y-101335849D01*
X138842016Y-101339665D01*
X138842011Y-101339669D01*
X138699388Y-101443290D01*
X138699381Y-101443295D01*
X138694129Y-101447112D01*
X138689784Y-101451937D01*
X138689779Y-101451942D01*
X138571813Y-101582956D01*
X138571808Y-101582962D01*
X138567467Y-101587784D01*
X138564222Y-101593404D01*
X138564218Y-101593410D01*
X138476069Y-101746089D01*
X138476066Y-101746094D01*
X138472821Y-101751716D01*
X138470815Y-101757888D01*
X138470813Y-101757894D01*
X138416333Y-101925564D01*
X138416331Y-101925573D01*
X138414326Y-101931744D01*
X138413648Y-101938194D01*
X138413646Y-101938204D01*
X138400096Y-102067135D01*
X138394540Y-102120000D01*
X138395219Y-102126460D01*
X138413646Y-102301795D01*
X138413647Y-102301803D01*
X138414326Y-102308256D01*
X138416331Y-102314428D01*
X138416333Y-102314435D01*
X138470813Y-102482105D01*
X138472821Y-102488284D01*
X138567467Y-102652216D01*
X138571811Y-102657041D01*
X138571813Y-102657043D01*
X138640390Y-102733205D01*
X138694129Y-102792888D01*
X138847270Y-102904151D01*
X139020197Y-102981144D01*
X139175127Y-103014075D01*
X139208514Y-103026392D01*
X139237027Y-103047684D01*
X139807059Y-103617716D01*
X139812193Y-103623170D01*
X139847093Y-103662565D01*
X139847097Y-103662568D01*
X139852071Y-103668183D01*
X139858247Y-103672446D01*
X139901574Y-103702353D01*
X139907605Y-103706791D01*
X139954944Y-103743878D01*
X139964180Y-103748034D01*
X139983727Y-103759059D01*
X139992070Y-103764818D01*
X140048214Y-103786110D01*
X140048298Y-103786142D01*
X140055220Y-103789009D01*
X140110069Y-103813695D01*
X140120041Y-103815522D01*
X140141656Y-103821547D01*
X140151128Y-103825140D01*
X140208831Y-103832146D01*
X140210815Y-103832387D01*
X140218222Y-103833514D01*
X140277394Y-103844358D01*
X140337433Y-103840725D01*
X140344921Y-103840500D01*
X140737289Y-103840500D01*
X140794546Y-103854511D01*
X140838863Y-103893376D01*
X140921505Y-104011401D01*
X140925334Y-104015230D01*
X141043430Y-104133326D01*
X141074726Y-104186072D01*
X141076915Y-104247365D01*
X141049462Y-104302210D01*
X140999083Y-104337189D01*
X140888330Y-104378498D01*
X140867669Y-104386204D01*
X140860572Y-104391516D01*
X140860568Y-104391519D01*
X140759550Y-104467141D01*
X140759546Y-104467144D01*
X140752454Y-104472454D01*
X140747144Y-104479546D01*
X140747141Y-104479550D01*
X140671519Y-104580568D01*
X140671516Y-104580572D01*
X140666204Y-104587669D01*
X140663104Y-104595978D01*
X140663104Y-104595980D01*
X140618620Y-104715247D01*
X140618619Y-104715250D01*
X140615909Y-104722517D01*
X140615079Y-104730227D01*
X140615079Y-104730232D01*
X140609855Y-104778819D01*
X140609854Y-104778831D01*
X140609500Y-104782127D01*
X140609500Y-104785449D01*
X140609500Y-104855500D01*
X140592887Y-104917500D01*
X140547500Y-104962887D01*
X140485500Y-104979500D01*
X139601519Y-104979500D01*
X139554066Y-104970061D01*
X139513838Y-104943181D01*
X138026504Y-103455847D01*
X138002264Y-103421549D01*
X137990864Y-103381127D01*
X137990263Y-103375408D01*
X137985674Y-103331744D01*
X137927179Y-103151716D01*
X137832533Y-102987784D01*
X137705871Y-102847112D01*
X137700613Y-102843292D01*
X137700611Y-102843290D01*
X137557988Y-102739669D01*
X137557987Y-102739668D01*
X137552730Y-102735849D01*
X137546792Y-102733205D01*
X137385745Y-102661501D01*
X137385740Y-102661499D01*
X137379803Y-102658856D01*
X137373444Y-102657504D01*
X137373440Y-102657503D01*
X137201008Y-102620852D01*
X137201005Y-102620851D01*
X137194646Y-102619500D01*
X137005354Y-102619500D01*
X136998995Y-102620851D01*
X136998991Y-102620852D01*
X136826559Y-102657503D01*
X136826552Y-102657505D01*
X136820197Y-102658856D01*
X136814262Y-102661498D01*
X136814254Y-102661501D01*
X136653207Y-102733205D01*
X136653202Y-102733207D01*
X136647270Y-102735849D01*
X136642016Y-102739665D01*
X136642011Y-102739669D01*
X136499388Y-102843290D01*
X136499381Y-102843295D01*
X136494129Y-102847112D01*
X136489784Y-102851937D01*
X136489779Y-102851942D01*
X136371813Y-102982956D01*
X136371808Y-102982962D01*
X136367467Y-102987784D01*
X136364222Y-102993404D01*
X136364218Y-102993410D01*
X136276069Y-103146089D01*
X136276066Y-103146094D01*
X136272821Y-103151716D01*
X136270815Y-103157888D01*
X136270813Y-103157894D01*
X136216333Y-103325564D01*
X136216331Y-103325573D01*
X136214326Y-103331744D01*
X136213648Y-103338194D01*
X136213646Y-103338204D01*
X136195962Y-103506464D01*
X136194540Y-103520000D01*
X135700500Y-103520000D01*
X135700500Y-100642263D01*
X135719278Y-100576655D01*
X135769926Y-100530918D01*
X135837101Y-100518905D01*
X135901655Y-100525500D01*
X136498344Y-100525499D01*
X136597708Y-100515349D01*
X136698970Y-100481794D01*
X136737975Y-100475500D01*
X137644374Y-100475500D01*
X137663772Y-100477027D01*
X137677612Y-100479219D01*
X137745336Y-100475670D01*
X137751826Y-100475500D01*
X137768952Y-100475500D01*
X137772192Y-100475500D01*
X137775413Y-100475161D01*
X137775421Y-100475161D01*
X137792447Y-100473371D01*
X137798906Y-100472862D01*
X137866646Y-100469313D01*
X137880187Y-100465683D01*
X137899316Y-100462138D01*
X137913256Y-100460674D01*
X137977761Y-100439714D01*
X137983962Y-100437877D01*
X138049488Y-100420320D01*
X138061973Y-100413957D01*
X138079956Y-100406508D01*
X138093284Y-100402179D01*
X138152035Y-100368257D01*
X138157710Y-100365177D01*
X138169117Y-100359365D01*
X138218149Y-100334383D01*
X138229045Y-100325558D01*
X138245083Y-100314537D01*
X138257216Y-100307533D01*
X138307657Y-100262115D01*
X138312533Y-100257951D01*
X138328380Y-100245119D01*
X138342779Y-100230718D01*
X138347470Y-100226266D01*
X138397888Y-100180871D01*
X138406125Y-100169532D01*
X138418761Y-100154736D01*
X139479736Y-99093761D01*
X139494534Y-99081124D01*
X139505871Y-99072888D01*
X139551266Y-99022470D01*
X139555721Y-99017777D01*
X139567813Y-99005686D01*
X139567814Y-99005684D01*
X139570119Y-99003380D01*
X139582951Y-98987533D01*
X139587115Y-98982657D01*
X139632533Y-98932216D01*
X139639538Y-98920080D01*
X139650558Y-98904045D01*
X139659383Y-98893149D01*
X139690178Y-98832707D01*
X139693257Y-98827035D01*
X139727179Y-98768284D01*
X139731508Y-98754956D01*
X139738957Y-98736973D01*
X139745320Y-98724488D01*
X139762872Y-98658980D01*
X139764716Y-98652757D01*
X139783666Y-98594437D01*
X139783666Y-98594433D01*
X139785674Y-98588256D01*
X139787138Y-98574317D01*
X139790683Y-98555190D01*
X139794313Y-98541645D01*
X139797862Y-98473906D01*
X139798371Y-98467447D01*
X139800161Y-98450421D01*
X139800161Y-98450413D01*
X139800500Y-98447192D01*
X139800500Y-98426825D01*
X139800670Y-98420336D01*
X139803879Y-98359101D01*
X139803878Y-98359100D01*
X139804219Y-98352612D01*
X139802027Y-98338772D01*
X139800500Y-98319374D01*
X139800500Y-95862529D01*
X139806794Y-95823526D01*
X139807412Y-95821659D01*
X139815349Y-95797708D01*
X139825500Y-95698345D01*
X139825499Y-95101656D01*
X139815349Y-95002292D01*
X139806794Y-94976474D01*
X139800500Y-94937471D01*
X139800500Y-91635739D01*
X139802027Y-91616341D01*
X139802392Y-91614035D01*
X139804219Y-91602501D01*
X139800669Y-91534782D01*
X139800500Y-91528293D01*
X139800500Y-91511163D01*
X139800500Y-91507921D01*
X139798370Y-91487655D01*
X139797861Y-91481199D01*
X139794312Y-91413467D01*
X139790683Y-91399926D01*
X139787139Y-91380798D01*
X139786353Y-91373323D01*
X139785674Y-91366857D01*
X139764715Y-91302357D01*
X139762871Y-91296130D01*
X139747003Y-91236906D01*
X139747002Y-91236905D01*
X139745320Y-91230625D01*
X139738956Y-91218135D01*
X139731506Y-91200149D01*
X139729187Y-91193011D01*
X139727179Y-91186829D01*
X139723926Y-91181196D01*
X139723925Y-91181192D01*
X139693265Y-91128088D01*
X139690178Y-91122405D01*
X139659383Y-91061964D01*
X139655294Y-91056914D01*
X139655289Y-91056907D01*
X139650561Y-91051069D01*
X139639537Y-91035029D01*
X139635784Y-91028529D01*
X139632533Y-91022897D01*
X139587146Y-90972489D01*
X139582932Y-90967555D01*
X139572161Y-90954255D01*
X139570119Y-90951733D01*
X139555724Y-90937338D01*
X139551255Y-90932629D01*
X139510220Y-90887055D01*
X139510219Y-90887054D01*
X139505871Y-90882225D01*
X139500613Y-90878405D01*
X139500611Y-90878403D01*
X139494531Y-90873986D01*
X139479735Y-90861349D01*
X139336818Y-90718432D01*
X139309938Y-90678204D01*
X139300499Y-90630751D01*
X139300499Y-89810552D01*
X139300499Y-89807241D01*
X139294091Y-89747630D01*
X139243796Y-89612782D01*
X139157546Y-89497567D01*
X139089560Y-89446673D01*
X139049431Y-89416632D01*
X139049430Y-89416631D01*
X139042331Y-89411317D01*
X138907483Y-89361022D01*
X138899770Y-89360192D01*
X138899767Y-89360192D01*
X138851180Y-89354968D01*
X138851169Y-89354967D01*
X138847873Y-89354613D01*
X138844551Y-89354613D01*
X138024361Y-89354613D01*
X137976908Y-89345174D01*
X137936680Y-89318294D01*
X136653628Y-88035242D01*
X136630825Y-88003858D01*
X136604270Y-87951738D01*
X136600181Y-87946688D01*
X136600176Y-87946681D01*
X136595448Y-87940843D01*
X136584424Y-87924803D01*
X136580671Y-87918303D01*
X136577420Y-87912671D01*
X136532033Y-87862263D01*
X136527819Y-87857329D01*
X136517048Y-87844029D01*
X136515006Y-87841507D01*
X136500610Y-87827111D01*
X136496142Y-87822403D01*
X136455107Y-87776829D01*
X136455106Y-87776828D01*
X136450758Y-87771999D01*
X136445500Y-87768179D01*
X136445498Y-87768177D01*
X136439418Y-87763760D01*
X136424622Y-87751123D01*
X130036818Y-81363319D01*
X130009938Y-81323091D01*
X130000499Y-81275638D01*
X130000499Y-79255439D01*
X130000499Y-79252128D01*
X129994091Y-79192517D01*
X129943796Y-79057669D01*
X129857546Y-78942454D01*
X129742331Y-78856204D01*
X129607483Y-78805909D01*
X129599770Y-78805079D01*
X129599767Y-78805079D01*
X129551180Y-78799855D01*
X129551169Y-78799854D01*
X129547873Y-78799500D01*
X129544550Y-78799500D01*
X126655439Y-78799500D01*
X126655420Y-78799500D01*
X126652128Y-78799501D01*
X126648850Y-78799853D01*
X126648838Y-78799854D01*
X126600231Y-78805079D01*
X126600225Y-78805080D01*
X126592517Y-78805909D01*
X126585252Y-78808618D01*
X126585246Y-78808620D01*
X126465980Y-78853104D01*
X126465978Y-78853104D01*
X126457669Y-78856204D01*
X126450572Y-78861516D01*
X126450568Y-78861519D01*
X126349550Y-78937141D01*
X126349546Y-78937144D01*
X126342454Y-78942454D01*
X126337144Y-78949546D01*
X126337141Y-78949550D01*
X126261519Y-79050568D01*
X126261516Y-79050572D01*
X126256204Y-79057669D01*
X126253104Y-79065978D01*
X126253104Y-79065980D01*
X126208620Y-79185247D01*
X126208619Y-79185250D01*
X126205909Y-79192517D01*
X126205079Y-79200227D01*
X126205079Y-79200232D01*
X126199855Y-79248819D01*
X126199854Y-79248831D01*
X126199500Y-79252127D01*
X126199500Y-79255448D01*
X126199500Y-79255449D01*
X126199500Y-82144560D01*
X126199500Y-82144578D01*
X117100000Y-82144578D01*
X117100000Y-79184543D01*
X117100155Y-79178348D01*
X117106560Y-79050292D01*
X117111936Y-78949550D01*
X117117260Y-78849782D01*
X117118472Y-78837890D01*
X117143707Y-78670856D01*
X117143817Y-78670151D01*
X117172532Y-78492146D01*
X117174788Y-78481292D01*
X117217524Y-78313856D01*
X117217939Y-78312281D01*
X117264392Y-78142163D01*
X117267498Y-78132406D01*
X117327262Y-77968611D01*
X117328236Y-77966035D01*
X117391838Y-77803592D01*
X117395617Y-77794932D01*
X117471777Y-77637196D01*
X117473390Y-77633979D01*
X117553543Y-77479947D01*
X117557770Y-77472475D01*
X117649559Y-77322689D01*
X117651936Y-77318965D01*
X117747762Y-77174736D01*
X117752233Y-77168447D01*
X117858699Y-77028322D01*
X117861975Y-77024200D01*
X117972416Y-76891216D01*
X117977004Y-76886000D01*
X118096949Y-76757171D01*
X118101229Y-76752797D01*
X118225173Y-76632344D01*
X118229601Y-76628250D01*
X118361905Y-76511944D01*
X118367170Y-76507574D01*
X118503352Y-76400899D01*
X118507466Y-76397819D01*
X118650586Y-76295389D01*
X118657035Y-76291076D01*
X118803941Y-76199408D01*
X118807681Y-76197169D01*
X118960078Y-76109665D01*
X118967662Y-76105657D01*
X119123933Y-76029930D01*
X119127106Y-76028450D01*
X119287016Y-75956798D01*
X119295792Y-75953263D01*
X119460040Y-75894307D01*
X119462527Y-75893447D01*
X119628007Y-75838371D01*
X119637885Y-75835534D01*
X119809063Y-75794007D01*
X119810945Y-75793567D01*
X119979391Y-75755663D01*
X119990345Y-75753711D01*
X120169193Y-75730079D01*
X120169693Y-75730015D01*
X120337485Y-75709549D01*
X120349376Y-75708678D01*
X120550061Y-75703711D01*
X120695660Y-75700592D01*
X120698680Y-75700528D01*
X120700354Y-75700510D01*
X120700485Y-75700514D01*
X120700485Y-75700509D01*
X120701334Y-75700500D01*
X140596949Y-75700500D01*
X140603032Y-75700649D01*
G37*
%TD.AperFunction*%
%TD*%
M02*
