%TF.GenerationSoftware,KiCad,Pcbnew,(7.0.0)*%
%TF.CreationDate,2023-03-21T16:51:35-07:00*%
%TF.ProjectId,DRV8874-breakout-board,44525638-3837-4342-9d62-7265616b6f75,rev?*%
%TF.SameCoordinates,Original*%
%TF.FileFunction,Copper,L2,Bot*%
%TF.FilePolarity,Positive*%
%FSLAX46Y46*%
G04 Gerber Fmt 4.6, Leading zero omitted, Abs format (unit mm)*
G04 Created by KiCad (PCBNEW (7.0.0)) date 2023-03-21 16:51:35*
%MOMM*%
%LPD*%
G01*
G04 APERTURE LIST*
%TA.AperFunction,ComponentPad*%
%ADD10R,1.700000X1.700000*%
%TD*%
%TA.AperFunction,ComponentPad*%
%ADD11O,1.700000X1.700000*%
%TD*%
%TA.AperFunction,ComponentPad*%
%ADD12C,0.500000*%
%TD*%
%TA.AperFunction,SMDPad,CuDef*%
%ADD13R,2.000000X3.500000*%
%TD*%
%TA.AperFunction,ComponentPad*%
%ADD14C,5.600000*%
%TD*%
%TA.AperFunction,ComponentPad*%
%ADD15R,2.800000X2.800000*%
%TD*%
%TA.AperFunction,ComponentPad*%
%ADD16C,2.800000*%
%TD*%
%TA.AperFunction,ComponentPad*%
%ADD17R,1.600000X1.600000*%
%TD*%
%TA.AperFunction,ComponentPad*%
%ADD18C,1.600000*%
%TD*%
%TA.AperFunction,ViaPad*%
%ADD19C,0.800000*%
%TD*%
%TA.AperFunction,Conductor*%
%ADD20C,0.400000*%
%TD*%
G04 APERTURE END LIST*
D10*
%TO.P,J105,1,Pin_1*%
%TO.N,+3V3*%
X141959999Y-105679999D03*
D11*
%TO.P,J105,2,Pin_2*%
%TO.N,PMODE*%
X141959999Y-103139999D03*
%TO.P,J105,3,Pin_3*%
%TO.N,GND*%
X141959999Y-100599999D03*
%TD*%
D12*
%TO.P,U101,17,Pad*%
%TO.N,GND*%
X129200000Y-95300000D03*
X129200000Y-96800000D03*
X129200000Y-98300000D03*
D13*
X129949999Y-96799999D03*
D12*
X130700000Y-95300000D03*
X130700000Y-96800000D03*
X130700000Y-98300000D03*
%TD*%
D10*
%TO.P,J104,1,Pin_1*%
%TO.N,nSLEEP*%
X119099999Y-95519999D03*
D11*
%TO.P,J104,2,Pin_2*%
%TO.N,nFAULT*%
X119099999Y-98059999D03*
%TO.P,J104,3,Pin_3*%
%TO.N,IPROPI*%
X119099999Y-100599999D03*
%TO.P,J104,4,Pin_4*%
%TO.N,+3V3*%
X119099999Y-103139999D03*
%TO.P,J104,5,Pin_5*%
%TO.N,GND*%
X119099999Y-105679999D03*
%TD*%
D14*
%TO.P,H104,1,1*%
%TO.N,GND*%
X140600000Y-112200000D03*
%TD*%
D15*
%TO.P,J103,1,Pin_1*%
%TO.N,VMOTORS*%
X128099999Y-80699999D03*
D16*
%TO.P,J103,2,Pin_2*%
%TO.N,GND*%
X133100000Y-80700000D03*
%TD*%
D17*
%TO.P,C104,1*%
%TO.N,VMOTORS*%
X137999999Y-90655112D03*
D18*
%TO.P,C104,2*%
%TO.N,GND*%
X138000000Y-88655113D03*
%TD*%
D14*
%TO.P,H103,1,1*%
%TO.N,GND*%
X120600000Y-112200000D03*
%TD*%
D10*
%TO.P,J102,1,Pin_1*%
%TO.N,IN1*%
X119099999Y-87899999D03*
D11*
%TO.P,J102,2,Pin_2*%
%TO.N,IN2*%
X119099999Y-90439999D03*
%TD*%
D14*
%TO.P,H102,1,1*%
%TO.N,GND*%
X140600000Y-79200000D03*
%TD*%
D15*
%TO.P,J101,1,Pin_1*%
%TO.N,Net-(J101-Pin_1)*%
X133099999Y-110699999D03*
D16*
%TO.P,J101,2,Pin_2*%
%TO.N,Net-(J101-Pin_2)*%
X128100000Y-110700000D03*
%TD*%
D14*
%TO.P,H101,1,1*%
%TO.N,GND*%
X120600000Y-79200000D03*
%TD*%
D19*
%TO.N,PMODE*%
X139300000Y-102120000D03*
%TO.N,GND*%
X121600000Y-96600000D03*
X134500000Y-84120000D03*
X121900000Y-84320000D03*
X132700000Y-100300000D03*
X141960000Y-98060000D03*
X130500000Y-106920000D03*
X134650000Y-94650000D03*
X137700000Y-93400000D03*
X123900000Y-102300000D03*
X134100000Y-90100000D03*
X122100000Y-88900000D03*
X122100000Y-93200000D03*
X122900000Y-107120000D03*
X136300000Y-101320000D03*
X120700000Y-99300000D03*
X120700000Y-101900000D03*
X139100000Y-86300000D03*
X127850000Y-84320000D03*
X139900000Y-104320000D03*
X125500000Y-100720000D03*
X140100000Y-93300000D03*
%TO.N,+3V3*%
X137100000Y-103520000D03*
X123800000Y-99500000D03*
%TO.N,PMODE*%
X132900000Y-93400000D03*
%TD*%
D20*
%TO.N,PMODE*%
X137300000Y-100120000D02*
X137300000Y-95050000D01*
X135650000Y-93400000D02*
X132900000Y-93400000D01*
X139300000Y-102120000D02*
X137300000Y-100120000D01*
X137300000Y-95050000D02*
X135650000Y-93400000D01*
%TO.N,+3V3*%
X123831371Y-100800000D02*
X123800000Y-100800000D01*
X136180000Y-102600000D02*
X125631371Y-102600000D01*
X137100000Y-103520000D02*
X136180000Y-102600000D01*
X125631371Y-102600000D02*
X123831371Y-100800000D01*
X121460000Y-103140000D02*
X119100000Y-103140000D01*
X123800000Y-99500000D02*
X123800000Y-100800000D01*
X123800000Y-100800000D02*
X121460000Y-103140000D01*
%TD*%
%TA.AperFunction,Conductor*%
%TO.N,GND*%
G36*
X140603032Y-75700649D02*
G01*
X140607384Y-75700862D01*
X140752450Y-75707989D01*
X140943670Y-75718010D01*
X140955324Y-75719177D01*
X141121254Y-75743791D01*
X141122225Y-75743940D01*
X141294897Y-75771289D01*
X141305570Y-75773465D01*
X141471374Y-75814997D01*
X141473014Y-75815422D01*
X141638880Y-75859866D01*
X141648544Y-75862884D01*
X141736363Y-75894307D01*
X141810526Y-75920843D01*
X141813188Y-75921830D01*
X141846726Y-75934704D01*
X141972097Y-75982829D01*
X141980623Y-75986475D01*
X142136869Y-76060374D01*
X142140055Y-76061939D01*
X142282487Y-76134511D01*
X142291094Y-76138897D01*
X142298547Y-76143023D01*
X142331730Y-76162912D01*
X142447075Y-76232047D01*
X142450824Y-76234387D01*
X142592670Y-76326503D01*
X142598977Y-76330884D01*
X142738210Y-76434147D01*
X142742365Y-76437367D01*
X142873635Y-76543667D01*
X142878872Y-76548155D01*
X143007389Y-76664636D01*
X143011797Y-76668833D01*
X143131165Y-76788201D01*
X143135362Y-76792609D01*
X143251843Y-76921126D01*
X143256331Y-76926363D01*
X143362620Y-77057619D01*
X143365851Y-77061788D01*
X143469114Y-77201021D01*
X143473512Y-77207353D01*
X143565599Y-77349155D01*
X143567963Y-77352942D01*
X143656975Y-77501451D01*
X143661101Y-77508904D01*
X143738037Y-77659898D01*
X143739647Y-77663176D01*
X143813510Y-77819345D01*
X143817179Y-77827925D01*
X143878168Y-77986810D01*
X143879155Y-77989472D01*
X143937111Y-78151447D01*
X143940135Y-78161128D01*
X143984535Y-78326827D01*
X143985044Y-78328792D01*
X144026526Y-78494398D01*
X144028715Y-78505130D01*
X144056041Y-78677665D01*
X144056226Y-78678867D01*
X144080818Y-78844649D01*
X144081990Y-78856355D01*
X144091989Y-79047157D01*
X144091886Y-79047162D01*
X144092011Y-79047561D01*
X144099351Y-79196967D01*
X144099500Y-79203052D01*
X144099500Y-112196948D01*
X144099351Y-112203033D01*
X144092014Y-112352369D01*
X144091993Y-112352774D01*
X144081990Y-112543644D01*
X144080818Y-112555349D01*
X144056226Y-112721131D01*
X144056041Y-112722333D01*
X144028715Y-112894868D01*
X144026526Y-112905600D01*
X143985044Y-113071206D01*
X143984535Y-113073171D01*
X143940135Y-113238870D01*
X143937111Y-113248551D01*
X143879155Y-113410526D01*
X143878168Y-113413188D01*
X143817179Y-113572073D01*
X143813510Y-113580653D01*
X143739647Y-113736822D01*
X143738037Y-113740100D01*
X143661101Y-113891094D01*
X143656975Y-113898547D01*
X143567963Y-114047056D01*
X143565599Y-114050843D01*
X143473512Y-114192645D01*
X143469114Y-114198977D01*
X143365851Y-114338210D01*
X143362620Y-114342379D01*
X143256331Y-114473635D01*
X143251843Y-114478872D01*
X143135362Y-114607389D01*
X143131165Y-114611797D01*
X143011797Y-114731165D01*
X143007389Y-114735362D01*
X142878872Y-114851843D01*
X142873635Y-114856331D01*
X142742379Y-114962620D01*
X142738210Y-114965851D01*
X142598977Y-115069114D01*
X142592645Y-115073512D01*
X142450843Y-115165599D01*
X142447056Y-115167963D01*
X142298547Y-115256975D01*
X142291094Y-115261101D01*
X142140100Y-115338037D01*
X142136822Y-115339647D01*
X141980653Y-115413510D01*
X141972073Y-115417179D01*
X141813188Y-115478168D01*
X141810526Y-115479155D01*
X141648551Y-115537111D01*
X141638870Y-115540135D01*
X141473171Y-115584535D01*
X141471206Y-115585044D01*
X141305600Y-115626526D01*
X141294868Y-115628715D01*
X141122333Y-115656041D01*
X141121131Y-115656226D01*
X140955349Y-115680818D01*
X140943644Y-115681990D01*
X140752774Y-115691993D01*
X140752369Y-115692014D01*
X140603033Y-115699351D01*
X140596948Y-115699500D01*
X120603052Y-115699500D01*
X120596967Y-115699351D01*
X120447629Y-115692014D01*
X120447224Y-115691993D01*
X120256354Y-115681990D01*
X120244649Y-115680818D01*
X120078867Y-115656226D01*
X120077665Y-115656041D01*
X119905130Y-115628715D01*
X119894398Y-115626526D01*
X119728792Y-115585044D01*
X119726827Y-115584535D01*
X119561128Y-115540135D01*
X119551447Y-115537111D01*
X119389472Y-115479155D01*
X119386810Y-115478168D01*
X119227925Y-115417179D01*
X119219351Y-115413512D01*
X119063176Y-115339647D01*
X119059898Y-115338037D01*
X118908904Y-115261101D01*
X118901451Y-115256975D01*
X118752942Y-115167963D01*
X118749155Y-115165599D01*
X118701996Y-115134973D01*
X118607343Y-115073505D01*
X118601021Y-115069114D01*
X118461788Y-114965851D01*
X118457619Y-114962620D01*
X118326363Y-114856331D01*
X118321126Y-114851843D01*
X118192609Y-114735362D01*
X118188201Y-114731165D01*
X118068833Y-114611797D01*
X118064636Y-114607389D01*
X117948155Y-114478872D01*
X117943667Y-114473635D01*
X117837378Y-114342379D01*
X117834147Y-114338210D01*
X117730884Y-114198977D01*
X117726503Y-114192670D01*
X117634387Y-114050824D01*
X117632035Y-114047056D01*
X117543023Y-113898547D01*
X117538897Y-113891094D01*
X117534511Y-113882487D01*
X117461939Y-113740055D01*
X117460374Y-113736869D01*
X117386475Y-113580623D01*
X117382829Y-113572097D01*
X117321830Y-113413188D01*
X117320843Y-113410526D01*
X117262887Y-113248551D01*
X117259863Y-113238870D01*
X117215422Y-113073014D01*
X117214997Y-113071374D01*
X117173465Y-112905570D01*
X117171289Y-112894897D01*
X117143940Y-112722225D01*
X117143791Y-112721254D01*
X117119177Y-112555324D01*
X117118010Y-112543670D01*
X117107985Y-112352369D01*
X117100647Y-112202994D01*
X117100499Y-112196988D01*
X117100434Y-110700000D01*
X126194645Y-110700000D01*
X126194961Y-110704418D01*
X126213722Y-110966737D01*
X126213723Y-110966746D01*
X126214039Y-110971160D01*
X126214979Y-110975485D01*
X126214981Y-110975493D01*
X126266178Y-111210843D01*
X126271825Y-111236801D01*
X126366828Y-111491513D01*
X126368948Y-111495395D01*
X126368951Y-111495402D01*
X126494986Y-111726219D01*
X126494990Y-111726226D01*
X126497113Y-111730113D01*
X126660029Y-111947742D01*
X126852258Y-112139971D01*
X127069887Y-112302887D01*
X127073777Y-112305011D01*
X127073780Y-112305013D01*
X127304597Y-112431048D01*
X127308487Y-112433172D01*
X127563199Y-112528175D01*
X127828840Y-112585961D01*
X128100000Y-112605355D01*
X128371160Y-112585961D01*
X128636801Y-112528175D01*
X128891513Y-112433172D01*
X129130113Y-112302887D01*
X129341588Y-112144578D01*
X131199500Y-112144578D01*
X131199501Y-112147872D01*
X131199853Y-112151150D01*
X131199854Y-112151161D01*
X131205079Y-112199768D01*
X131205080Y-112199773D01*
X131205909Y-112207483D01*
X131208619Y-112214749D01*
X131208620Y-112214753D01*
X131240501Y-112300229D01*
X131256204Y-112342331D01*
X131261518Y-112349430D01*
X131261519Y-112349431D01*
X131324207Y-112433172D01*
X131342454Y-112457546D01*
X131457669Y-112543796D01*
X131592517Y-112594091D01*
X131652127Y-112600500D01*
X134547872Y-112600499D01*
X134607483Y-112594091D01*
X134742331Y-112543796D01*
X134857546Y-112457546D01*
X134943796Y-112342331D01*
X134994091Y-112207483D01*
X135000500Y-112147873D01*
X135000499Y-109252128D01*
X134994091Y-109192517D01*
X134943796Y-109057669D01*
X134857546Y-108942454D01*
X134742331Y-108856204D01*
X134671965Y-108829959D01*
X134614752Y-108808620D01*
X134614750Y-108808619D01*
X134607483Y-108805909D01*
X134599770Y-108805079D01*
X134599767Y-108805079D01*
X134551180Y-108799855D01*
X134551169Y-108799854D01*
X134547873Y-108799500D01*
X134544550Y-108799500D01*
X131655439Y-108799500D01*
X131655420Y-108799500D01*
X131652128Y-108799501D01*
X131648850Y-108799853D01*
X131648838Y-108799854D01*
X131600231Y-108805079D01*
X131600225Y-108805080D01*
X131592517Y-108805909D01*
X131585252Y-108808618D01*
X131585246Y-108808620D01*
X131465980Y-108853104D01*
X131465978Y-108853104D01*
X131457669Y-108856204D01*
X131450572Y-108861516D01*
X131450568Y-108861519D01*
X131349550Y-108937141D01*
X131349546Y-108937144D01*
X131342454Y-108942454D01*
X131337144Y-108949546D01*
X131337141Y-108949550D01*
X131261519Y-109050568D01*
X131261516Y-109050572D01*
X131256204Y-109057669D01*
X131253104Y-109065978D01*
X131253104Y-109065980D01*
X131208620Y-109185247D01*
X131208619Y-109185250D01*
X131205909Y-109192517D01*
X131205079Y-109200227D01*
X131205079Y-109200232D01*
X131199855Y-109248819D01*
X131199854Y-109248831D01*
X131199500Y-109252127D01*
X131199500Y-109255448D01*
X131199500Y-109255449D01*
X131199500Y-112144560D01*
X131199500Y-112144578D01*
X129341588Y-112144578D01*
X129347742Y-112139971D01*
X129539971Y-111947742D01*
X129702887Y-111730113D01*
X129833172Y-111491513D01*
X129928175Y-111236801D01*
X129985961Y-110971160D01*
X130005355Y-110700000D01*
X129985961Y-110428840D01*
X129928175Y-110163199D01*
X129833172Y-109908487D01*
X129702887Y-109669887D01*
X129539971Y-109452258D01*
X129347742Y-109260029D01*
X129130113Y-109097113D01*
X129126226Y-109094990D01*
X129126219Y-109094986D01*
X128895402Y-108968951D01*
X128895395Y-108968948D01*
X128891513Y-108966828D01*
X128887369Y-108965282D01*
X128887364Y-108965280D01*
X128640944Y-108873370D01*
X128640940Y-108873369D01*
X128636801Y-108871825D01*
X128564992Y-108856204D01*
X128375493Y-108814981D01*
X128375485Y-108814979D01*
X128371160Y-108814039D01*
X128366746Y-108813723D01*
X128366737Y-108813722D01*
X128104418Y-108794961D01*
X128100000Y-108794645D01*
X128095582Y-108794961D01*
X127833262Y-108813722D01*
X127833251Y-108813723D01*
X127828840Y-108814039D01*
X127824516Y-108814979D01*
X127824506Y-108814981D01*
X127567524Y-108870884D01*
X127567521Y-108870884D01*
X127563199Y-108871825D01*
X127559063Y-108873367D01*
X127559055Y-108873370D01*
X127312635Y-108965280D01*
X127312624Y-108965284D01*
X127308487Y-108966828D01*
X127304609Y-108968945D01*
X127304597Y-108968951D01*
X127073780Y-109094986D01*
X127073766Y-109094994D01*
X127069887Y-109097113D01*
X127066341Y-109099766D01*
X127066337Y-109099770D01*
X126855801Y-109257376D01*
X126855794Y-109257381D01*
X126852258Y-109260029D01*
X126849132Y-109263154D01*
X126849125Y-109263161D01*
X126663161Y-109449125D01*
X126663154Y-109449132D01*
X126660029Y-109452258D01*
X126657381Y-109455794D01*
X126657376Y-109455801D01*
X126499770Y-109666337D01*
X126499766Y-109666341D01*
X126497113Y-109669887D01*
X126494994Y-109673766D01*
X126494986Y-109673780D01*
X126368951Y-109904597D01*
X126368945Y-109904609D01*
X126366828Y-109908487D01*
X126365284Y-109912624D01*
X126365280Y-109912635D01*
X126273370Y-110159055D01*
X126273367Y-110159063D01*
X126271825Y-110163199D01*
X126270884Y-110167521D01*
X126270884Y-110167524D01*
X126214981Y-110424506D01*
X126214979Y-110424516D01*
X126214039Y-110428840D01*
X126213723Y-110433251D01*
X126213722Y-110433262D01*
X126195321Y-110690541D01*
X126194645Y-110700000D01*
X117100434Y-110700000D01*
X117100108Y-103140000D01*
X117744341Y-103140000D01*
X117744813Y-103145395D01*
X117758720Y-103304357D01*
X117764937Y-103375408D01*
X117766336Y-103380630D01*
X117766337Y-103380634D01*
X117824694Y-103598430D01*
X117824697Y-103598438D01*
X117826097Y-103603663D01*
X117828385Y-103608570D01*
X117828386Y-103608572D01*
X117923678Y-103812927D01*
X117923681Y-103812933D01*
X117925965Y-103817830D01*
X117929064Y-103822257D01*
X117929066Y-103822259D01*
X118058399Y-104006966D01*
X118058402Y-104006970D01*
X118061505Y-104011401D01*
X118228599Y-104178495D01*
X118422170Y-104314035D01*
X118636337Y-104413903D01*
X118641567Y-104415304D01*
X118641569Y-104415305D01*
X118683619Y-104426572D01*
X118864592Y-104475063D01*
X119100000Y-104495659D01*
X119335408Y-104475063D01*
X119563663Y-104413903D01*
X119777830Y-104314035D01*
X119971401Y-104178495D01*
X120138495Y-104011401D01*
X120221136Y-103893376D01*
X120265454Y-103854511D01*
X120322711Y-103840500D01*
X121435079Y-103840500D01*
X121442566Y-103840725D01*
X121502606Y-103844358D01*
X121561782Y-103833513D01*
X121569181Y-103832387D01*
X121628872Y-103825140D01*
X121638332Y-103821551D01*
X121659959Y-103815522D01*
X121669932Y-103813695D01*
X121724808Y-103788996D01*
X121731673Y-103786152D01*
X121787930Y-103764818D01*
X121796264Y-103759064D01*
X121815821Y-103748034D01*
X121825057Y-103743878D01*
X121872413Y-103706775D01*
X121878420Y-103702355D01*
X121927929Y-103668183D01*
X121967822Y-103623151D01*
X121972924Y-103617731D01*
X123728004Y-101862651D01*
X123783591Y-101830558D01*
X123847779Y-101830558D01*
X123903366Y-101862652D01*
X125118430Y-103077716D01*
X125123564Y-103083170D01*
X125163442Y-103128183D01*
X125169611Y-103132441D01*
X125169612Y-103132442D01*
X125212940Y-103162349D01*
X125218973Y-103166788D01*
X125266314Y-103203877D01*
X125273156Y-103206956D01*
X125275546Y-103208032D01*
X125295095Y-103219058D01*
X125297259Y-103220552D01*
X125297267Y-103220556D01*
X125303441Y-103224818D01*
X125310458Y-103227479D01*
X125359677Y-103246145D01*
X125366599Y-103249012D01*
X125421439Y-103273694D01*
X125431406Y-103275520D01*
X125453024Y-103281547D01*
X125455484Y-103282480D01*
X125455487Y-103282480D01*
X125462499Y-103285140D01*
X125519973Y-103292118D01*
X125522201Y-103292389D01*
X125529606Y-103293516D01*
X125545437Y-103296416D01*
X125588765Y-103304357D01*
X125648792Y-103300726D01*
X125656280Y-103300500D01*
X135838481Y-103300500D01*
X135885934Y-103309939D01*
X135926162Y-103336819D01*
X136173495Y-103584152D01*
X136197734Y-103618449D01*
X136209135Y-103658870D01*
X136213646Y-103701795D01*
X136213647Y-103701803D01*
X136214326Y-103708256D01*
X136216333Y-103714435D01*
X136216334Y-103714436D01*
X136254805Y-103832839D01*
X136272821Y-103888284D01*
X136367467Y-104052216D01*
X136494129Y-104192888D01*
X136647270Y-104304151D01*
X136820197Y-104381144D01*
X137005354Y-104420500D01*
X137188143Y-104420500D01*
X137194646Y-104420500D01*
X137379803Y-104381144D01*
X137552730Y-104304151D01*
X137705871Y-104192888D01*
X137832533Y-104052216D01*
X137927179Y-103888284D01*
X137985674Y-103708256D01*
X138005460Y-103520000D01*
X137985674Y-103331744D01*
X137927179Y-103151716D01*
X137920415Y-103140000D01*
X140604341Y-103140000D01*
X140604813Y-103145395D01*
X140618720Y-103304357D01*
X140624937Y-103375408D01*
X140626336Y-103380630D01*
X140626337Y-103380634D01*
X140684694Y-103598430D01*
X140684697Y-103598438D01*
X140686097Y-103603663D01*
X140688385Y-103608570D01*
X140688386Y-103608572D01*
X140783678Y-103812927D01*
X140783681Y-103812933D01*
X140785965Y-103817830D01*
X140789064Y-103822257D01*
X140789066Y-103822259D01*
X140918399Y-104006966D01*
X140918402Y-104006970D01*
X140921505Y-104011401D01*
X140925334Y-104015230D01*
X140925336Y-104015232D01*
X141043430Y-104133326D01*
X141074726Y-104186072D01*
X141076915Y-104247365D01*
X141049462Y-104302210D01*
X140999083Y-104337189D01*
X140888330Y-104378498D01*
X140867669Y-104386204D01*
X140860572Y-104391516D01*
X140860568Y-104391519D01*
X140759550Y-104467141D01*
X140759546Y-104467144D01*
X140752454Y-104472454D01*
X140747144Y-104479546D01*
X140747141Y-104479550D01*
X140671519Y-104580568D01*
X140671516Y-104580572D01*
X140666204Y-104587669D01*
X140663104Y-104595978D01*
X140663104Y-104595980D01*
X140618620Y-104715247D01*
X140618619Y-104715250D01*
X140615909Y-104722517D01*
X140615079Y-104730227D01*
X140615079Y-104730232D01*
X140609855Y-104778819D01*
X140609854Y-104778831D01*
X140609500Y-104782127D01*
X140609500Y-104785448D01*
X140609500Y-104785449D01*
X140609500Y-106574560D01*
X140609500Y-106574578D01*
X140609501Y-106577872D01*
X140609853Y-106581150D01*
X140609854Y-106581161D01*
X140615079Y-106629768D01*
X140615080Y-106629773D01*
X140615909Y-106637483D01*
X140618619Y-106644749D01*
X140618620Y-106644753D01*
X140652217Y-106734831D01*
X140666204Y-106772331D01*
X140752454Y-106887546D01*
X140867669Y-106973796D01*
X141002517Y-107024091D01*
X141062127Y-107030500D01*
X142857872Y-107030499D01*
X142917483Y-107024091D01*
X143052331Y-106973796D01*
X143167546Y-106887546D01*
X143253796Y-106772331D01*
X143304091Y-106637483D01*
X143310500Y-106577873D01*
X143310499Y-104782128D01*
X143304091Y-104722517D01*
X143253796Y-104587669D01*
X143167546Y-104472454D01*
X143098144Y-104420500D01*
X143059431Y-104391519D01*
X143059430Y-104391518D01*
X143052331Y-104386204D01*
X142982359Y-104360106D01*
X142920916Y-104337189D01*
X142870537Y-104302210D01*
X142843084Y-104247365D01*
X142845273Y-104186072D01*
X142876566Y-104133329D01*
X142998495Y-104011401D01*
X143134035Y-103817830D01*
X143233903Y-103603663D01*
X143295063Y-103375408D01*
X143315659Y-103140000D01*
X143295063Y-102904592D01*
X143233903Y-102676337D01*
X143134035Y-102462171D01*
X142998495Y-102268599D01*
X142831401Y-102101505D01*
X142826970Y-102098402D01*
X142826966Y-102098399D01*
X142642259Y-101969066D01*
X142642257Y-101969064D01*
X142637830Y-101965965D01*
X142632933Y-101963681D01*
X142632927Y-101963678D01*
X142428572Y-101868386D01*
X142428570Y-101868385D01*
X142423663Y-101866097D01*
X142418438Y-101864697D01*
X142418430Y-101864694D01*
X142200634Y-101806337D01*
X142200630Y-101806336D01*
X142195408Y-101804937D01*
X142190020Y-101804465D01*
X142190017Y-101804465D01*
X141965395Y-101784813D01*
X141960000Y-101784341D01*
X141954605Y-101784813D01*
X141729982Y-101804465D01*
X141729977Y-101804465D01*
X141724592Y-101804937D01*
X141719371Y-101806335D01*
X141719365Y-101806337D01*
X141501569Y-101864694D01*
X141501557Y-101864698D01*
X141496337Y-101866097D01*
X141491432Y-101868383D01*
X141491427Y-101868386D01*
X141287081Y-101963675D01*
X141287077Y-101963677D01*
X141282171Y-101965965D01*
X141277738Y-101969068D01*
X141277731Y-101969073D01*
X141093034Y-102098399D01*
X141093029Y-102098402D01*
X141088599Y-102101505D01*
X141084775Y-102105328D01*
X141084769Y-102105334D01*
X140925334Y-102264769D01*
X140925328Y-102264775D01*
X140921505Y-102268599D01*
X140918402Y-102273029D01*
X140918399Y-102273034D01*
X140789073Y-102457731D01*
X140789068Y-102457738D01*
X140785965Y-102462171D01*
X140783677Y-102467077D01*
X140783675Y-102467081D01*
X140688386Y-102671427D01*
X140688383Y-102671432D01*
X140686097Y-102676337D01*
X140684698Y-102681557D01*
X140684694Y-102681569D01*
X140626337Y-102899365D01*
X140626335Y-102899371D01*
X140624937Y-102904592D01*
X140624465Y-102909977D01*
X140624465Y-102909982D01*
X140609313Y-103083170D01*
X140604341Y-103140000D01*
X137920415Y-103140000D01*
X137832533Y-102987784D01*
X137705871Y-102847112D01*
X137700613Y-102843292D01*
X137700611Y-102843290D01*
X137557988Y-102739669D01*
X137557987Y-102739668D01*
X137552730Y-102735849D01*
X137546792Y-102733205D01*
X137385745Y-102661501D01*
X137385740Y-102661499D01*
X137379803Y-102658856D01*
X137373444Y-102657504D01*
X137373440Y-102657503D01*
X137224871Y-102625924D01*
X137191484Y-102613607D01*
X137162971Y-102592315D01*
X136692940Y-102122283D01*
X136687806Y-102116829D01*
X136671482Y-102098403D01*
X136647929Y-102071817D01*
X136598410Y-102037636D01*
X136592404Y-102033216D01*
X136550961Y-102000747D01*
X136550958Y-102000745D01*
X136545057Y-101996122D01*
X136538219Y-101993044D01*
X136538210Y-101993039D01*
X136535810Y-101991959D01*
X136516268Y-101980937D01*
X136514107Y-101979445D01*
X136514102Y-101979442D01*
X136507930Y-101975182D01*
X136451702Y-101953857D01*
X136444784Y-101950991D01*
X136396772Y-101929383D01*
X136396769Y-101929382D01*
X136389932Y-101926305D01*
X136382560Y-101924954D01*
X136382551Y-101924951D01*
X136379952Y-101924475D01*
X136358340Y-101918450D01*
X136355891Y-101917521D01*
X136355885Y-101917519D01*
X136348872Y-101914860D01*
X136341430Y-101913956D01*
X136341425Y-101913955D01*
X136289171Y-101907610D01*
X136281771Y-101906483D01*
X136229987Y-101896994D01*
X136229982Y-101896993D01*
X136222606Y-101895642D01*
X136215126Y-101896094D01*
X136215118Y-101896094D01*
X136162567Y-101899274D01*
X136155079Y-101899500D01*
X125972890Y-101899500D01*
X125925437Y-101890061D01*
X125885209Y-101863181D01*
X124536819Y-100514791D01*
X124509939Y-100474563D01*
X124500500Y-100427110D01*
X124500500Y-100115392D01*
X124508749Y-100070920D01*
X124525703Y-100043279D01*
X124524363Y-100042306D01*
X124528184Y-100037045D01*
X124532533Y-100032216D01*
X124627179Y-99868284D01*
X124685674Y-99688256D01*
X124705460Y-99500000D01*
X124685674Y-99311744D01*
X124627179Y-99131716D01*
X124532533Y-98967784D01*
X124405871Y-98827112D01*
X124400613Y-98823292D01*
X124400611Y-98823290D01*
X124257988Y-98719669D01*
X124257987Y-98719668D01*
X124252730Y-98715849D01*
X124246792Y-98713205D01*
X124085745Y-98641501D01*
X124085740Y-98641499D01*
X124079803Y-98638856D01*
X124073444Y-98637504D01*
X124073440Y-98637503D01*
X123901008Y-98600852D01*
X123901005Y-98600851D01*
X123894646Y-98599500D01*
X123705354Y-98599500D01*
X123698995Y-98600851D01*
X123698991Y-98600852D01*
X123526559Y-98637503D01*
X123526552Y-98637505D01*
X123520197Y-98638856D01*
X123514262Y-98641498D01*
X123514254Y-98641501D01*
X123353207Y-98713205D01*
X123353202Y-98713207D01*
X123347270Y-98715849D01*
X123342016Y-98719665D01*
X123342011Y-98719669D01*
X123199388Y-98823290D01*
X123199381Y-98823295D01*
X123194129Y-98827112D01*
X123189784Y-98831937D01*
X123189779Y-98831942D01*
X123071813Y-98962956D01*
X123071808Y-98962962D01*
X123067467Y-98967784D01*
X123064222Y-98973404D01*
X123064218Y-98973410D01*
X122976069Y-99126089D01*
X122976066Y-99126094D01*
X122972821Y-99131716D01*
X122970815Y-99137888D01*
X122970813Y-99137894D01*
X122916333Y-99305564D01*
X122916331Y-99305573D01*
X122914326Y-99311744D01*
X122913648Y-99318194D01*
X122913646Y-99318204D01*
X122895962Y-99486464D01*
X122894540Y-99500000D01*
X122895219Y-99506460D01*
X122913646Y-99681795D01*
X122913647Y-99681803D01*
X122914326Y-99688256D01*
X122916331Y-99694428D01*
X122916333Y-99694435D01*
X122970813Y-99862105D01*
X122972821Y-99868284D01*
X122976068Y-99873908D01*
X122976069Y-99873910D01*
X123006767Y-99927081D01*
X123067467Y-100032216D01*
X123071813Y-100037043D01*
X123075637Y-100042306D01*
X123074296Y-100043279D01*
X123091251Y-100070920D01*
X123099500Y-100115392D01*
X123099500Y-100458481D01*
X123090061Y-100505934D01*
X123063181Y-100546162D01*
X121206162Y-102403181D01*
X121165934Y-102430061D01*
X121118481Y-102439500D01*
X120322711Y-102439500D01*
X120265454Y-102425489D01*
X120221136Y-102386623D01*
X120170590Y-102314436D01*
X120138495Y-102268599D01*
X119971401Y-102101505D01*
X119966968Y-102098401D01*
X119966961Y-102098395D01*
X119785842Y-101971575D01*
X119746976Y-101927257D01*
X119732965Y-101870000D01*
X119746976Y-101812743D01*
X119785842Y-101768425D01*
X119966961Y-101641604D01*
X119966961Y-101641603D01*
X119971401Y-101638495D01*
X120138495Y-101471401D01*
X120274035Y-101277830D01*
X120373903Y-101063663D01*
X120435063Y-100835408D01*
X120455659Y-100600000D01*
X120435063Y-100364592D01*
X120373903Y-100136337D01*
X120274035Y-99922171D01*
X120138495Y-99728599D01*
X119971401Y-99561505D01*
X119966968Y-99558401D01*
X119966961Y-99558395D01*
X119785842Y-99431575D01*
X119746976Y-99387257D01*
X119732965Y-99330000D01*
X119746976Y-99272743D01*
X119785842Y-99228425D01*
X119966961Y-99101604D01*
X119966961Y-99101603D01*
X119971401Y-99098495D01*
X120138495Y-98931401D01*
X120274035Y-98737830D01*
X120373903Y-98523663D01*
X120435063Y-98295408D01*
X120455659Y-98060000D01*
X120435063Y-97824592D01*
X120373903Y-97596337D01*
X120274035Y-97382171D01*
X120138495Y-97188599D01*
X120016569Y-97066673D01*
X119985273Y-97013927D01*
X119983084Y-96952634D01*
X120010537Y-96897789D01*
X120060916Y-96862810D01*
X120192331Y-96813796D01*
X120307546Y-96727546D01*
X120393796Y-96612331D01*
X120444091Y-96477483D01*
X120450500Y-96417873D01*
X120450499Y-94622128D01*
X120444091Y-94562517D01*
X120393796Y-94427669D01*
X120307546Y-94312454D01*
X120192331Y-94226204D01*
X120079581Y-94184151D01*
X120064752Y-94178620D01*
X120064750Y-94178619D01*
X120057483Y-94175909D01*
X120049770Y-94175079D01*
X120049767Y-94175079D01*
X120001180Y-94169855D01*
X120001169Y-94169854D01*
X119997873Y-94169500D01*
X119994550Y-94169500D01*
X118205439Y-94169500D01*
X118205420Y-94169500D01*
X118202128Y-94169501D01*
X118198850Y-94169853D01*
X118198838Y-94169854D01*
X118150231Y-94175079D01*
X118150225Y-94175080D01*
X118142517Y-94175909D01*
X118135252Y-94178618D01*
X118135246Y-94178620D01*
X118015980Y-94223104D01*
X118015978Y-94223104D01*
X118007669Y-94226204D01*
X118000572Y-94231516D01*
X118000568Y-94231519D01*
X117899550Y-94307141D01*
X117899546Y-94307144D01*
X117892454Y-94312454D01*
X117887144Y-94319546D01*
X117887141Y-94319550D01*
X117811519Y-94420568D01*
X117811516Y-94420572D01*
X117806204Y-94427669D01*
X117803104Y-94435978D01*
X117803104Y-94435980D01*
X117758620Y-94555247D01*
X117758619Y-94555250D01*
X117755909Y-94562517D01*
X117755079Y-94570227D01*
X117755079Y-94570232D01*
X117749855Y-94618819D01*
X117749854Y-94618831D01*
X117749500Y-94622127D01*
X117749500Y-94625448D01*
X117749500Y-94625449D01*
X117749500Y-96414560D01*
X117749500Y-96414578D01*
X117749501Y-96417872D01*
X117749853Y-96421150D01*
X117749854Y-96421161D01*
X117755079Y-96469768D01*
X117755080Y-96469773D01*
X117755909Y-96477483D01*
X117758619Y-96484749D01*
X117758620Y-96484753D01*
X117792217Y-96574831D01*
X117806204Y-96612331D01*
X117892454Y-96727546D01*
X118007669Y-96813796D01*
X118117405Y-96854725D01*
X118139082Y-96862810D01*
X118189462Y-96897789D01*
X118216915Y-96952633D01*
X118214726Y-97013926D01*
X118183430Y-97066673D01*
X118061505Y-97188599D01*
X118058402Y-97193029D01*
X118058399Y-97193034D01*
X117929073Y-97377731D01*
X117929068Y-97377738D01*
X117925965Y-97382171D01*
X117923677Y-97387077D01*
X117923675Y-97387081D01*
X117828386Y-97591427D01*
X117828383Y-97591432D01*
X117826097Y-97596337D01*
X117824698Y-97601557D01*
X117824694Y-97601569D01*
X117766337Y-97819365D01*
X117766335Y-97819371D01*
X117764937Y-97824592D01*
X117744341Y-98060000D01*
X117764937Y-98295408D01*
X117766336Y-98300630D01*
X117766337Y-98300634D01*
X117824694Y-98518430D01*
X117824697Y-98518438D01*
X117826097Y-98523663D01*
X117828385Y-98528570D01*
X117828386Y-98528572D01*
X117923678Y-98732927D01*
X117923681Y-98732933D01*
X117925965Y-98737830D01*
X117929064Y-98742257D01*
X117929066Y-98742259D01*
X118058399Y-98926966D01*
X118058402Y-98926970D01*
X118061505Y-98931401D01*
X118228599Y-99098495D01*
X118233032Y-99101599D01*
X118233038Y-99101604D01*
X118414158Y-99228425D01*
X118453024Y-99272743D01*
X118467035Y-99330000D01*
X118453024Y-99387257D01*
X118414159Y-99431575D01*
X118233041Y-99558395D01*
X118228599Y-99561505D01*
X118224775Y-99565328D01*
X118224769Y-99565334D01*
X118065334Y-99724769D01*
X118065328Y-99724775D01*
X118061505Y-99728599D01*
X118058402Y-99733029D01*
X118058399Y-99733034D01*
X117929073Y-99917731D01*
X117929068Y-99917738D01*
X117925965Y-99922171D01*
X117923677Y-99927077D01*
X117923675Y-99927081D01*
X117828386Y-100131427D01*
X117828383Y-100131432D01*
X117826097Y-100136337D01*
X117824698Y-100141557D01*
X117824694Y-100141569D01*
X117766337Y-100359365D01*
X117766335Y-100359371D01*
X117764937Y-100364592D01*
X117764465Y-100369977D01*
X117764465Y-100369982D01*
X117754397Y-100485057D01*
X117744341Y-100600000D01*
X117764937Y-100835408D01*
X117766336Y-100840630D01*
X117766337Y-100840634D01*
X117824694Y-101058430D01*
X117824697Y-101058438D01*
X117826097Y-101063663D01*
X117828385Y-101068570D01*
X117828386Y-101068572D01*
X117923678Y-101272927D01*
X117923681Y-101272933D01*
X117925965Y-101277830D01*
X117929064Y-101282257D01*
X117929066Y-101282259D01*
X118058399Y-101466966D01*
X118058402Y-101466970D01*
X118061505Y-101471401D01*
X118228599Y-101638495D01*
X118233032Y-101641599D01*
X118233038Y-101641604D01*
X118414158Y-101768425D01*
X118453024Y-101812743D01*
X118467035Y-101870000D01*
X118453024Y-101927257D01*
X118414159Y-101971575D01*
X118233041Y-102098395D01*
X118228599Y-102101505D01*
X118224775Y-102105328D01*
X118224769Y-102105334D01*
X118065334Y-102264769D01*
X118065328Y-102264775D01*
X118061505Y-102268599D01*
X118058402Y-102273029D01*
X118058399Y-102273034D01*
X117929073Y-102457731D01*
X117929068Y-102457738D01*
X117925965Y-102462171D01*
X117923677Y-102467077D01*
X117923675Y-102467081D01*
X117828386Y-102671427D01*
X117828383Y-102671432D01*
X117826097Y-102676337D01*
X117824698Y-102681557D01*
X117824694Y-102681569D01*
X117766337Y-102899365D01*
X117766335Y-102899371D01*
X117764937Y-102904592D01*
X117764465Y-102909977D01*
X117764465Y-102909982D01*
X117749313Y-103083170D01*
X117744341Y-103140000D01*
X117100108Y-103140000D01*
X117100000Y-100645053D01*
X117100000Y-93400000D01*
X131994540Y-93400000D01*
X131995219Y-93406460D01*
X132013646Y-93581795D01*
X132013647Y-93581803D01*
X132014326Y-93588256D01*
X132016331Y-93594428D01*
X132016333Y-93594435D01*
X132070813Y-93762105D01*
X132072821Y-93768284D01*
X132167467Y-93932216D01*
X132294129Y-94072888D01*
X132299387Y-94076708D01*
X132299388Y-94076709D01*
X132364729Y-94124182D01*
X132447270Y-94184151D01*
X132620197Y-94261144D01*
X132805354Y-94300500D01*
X132988143Y-94300500D01*
X132994646Y-94300500D01*
X133179803Y-94261144D01*
X133352730Y-94184151D01*
X133435273Y-94124179D01*
X133469837Y-94106569D01*
X133508155Y-94100500D01*
X135308481Y-94100500D01*
X135355934Y-94109939D01*
X135396162Y-94136819D01*
X136563181Y-95303838D01*
X136590061Y-95344066D01*
X136599500Y-95391519D01*
X136599500Y-100095079D01*
X136599274Y-100102567D01*
X136596094Y-100155118D01*
X136596094Y-100155126D01*
X136595642Y-100162606D01*
X136596993Y-100169982D01*
X136596994Y-100169987D01*
X136606483Y-100221771D01*
X136607610Y-100229171D01*
X136613955Y-100281425D01*
X136613956Y-100281430D01*
X136614860Y-100288872D01*
X136617519Y-100295885D01*
X136617521Y-100295891D01*
X136618450Y-100298340D01*
X136624475Y-100319952D01*
X136624951Y-100322551D01*
X136624954Y-100322560D01*
X136626305Y-100329932D01*
X136629382Y-100336769D01*
X136629383Y-100336772D01*
X136650991Y-100384784D01*
X136653857Y-100391702D01*
X136675182Y-100447930D01*
X136679442Y-100454102D01*
X136679445Y-100454107D01*
X136680937Y-100456268D01*
X136691959Y-100475810D01*
X136693039Y-100478210D01*
X136693044Y-100478219D01*
X136696122Y-100485057D01*
X136700745Y-100490958D01*
X136700747Y-100490961D01*
X136733216Y-100532404D01*
X136737636Y-100538410D01*
X136771817Y-100587929D01*
X136816847Y-100627822D01*
X136822282Y-100632939D01*
X138373495Y-102184152D01*
X138397734Y-102218449D01*
X138409135Y-102258870D01*
X138413646Y-102301795D01*
X138413647Y-102301803D01*
X138414326Y-102308256D01*
X138416333Y-102314435D01*
X138416334Y-102314436D01*
X138465931Y-102467081D01*
X138472821Y-102488284D01*
X138567467Y-102652216D01*
X138571811Y-102657041D01*
X138571813Y-102657043D01*
X138640390Y-102733205D01*
X138694129Y-102792888D01*
X138847270Y-102904151D01*
X139020197Y-102981144D01*
X139205354Y-103020500D01*
X139388143Y-103020500D01*
X139394646Y-103020500D01*
X139579803Y-102981144D01*
X139752730Y-102904151D01*
X139905871Y-102792888D01*
X140032533Y-102652216D01*
X140127179Y-102488284D01*
X140185674Y-102308256D01*
X140205460Y-102120000D01*
X140185674Y-101931744D01*
X140127179Y-101751716D01*
X140032533Y-101587784D01*
X139905871Y-101447112D01*
X139900613Y-101443292D01*
X139900611Y-101443290D01*
X139757988Y-101339669D01*
X139757987Y-101339668D01*
X139752730Y-101335849D01*
X139746792Y-101333205D01*
X139585745Y-101261501D01*
X139585740Y-101261499D01*
X139579803Y-101258856D01*
X139573444Y-101257504D01*
X139573440Y-101257503D01*
X139424872Y-101225924D01*
X139391485Y-101213607D01*
X139362972Y-101192315D01*
X138036819Y-99866162D01*
X138009939Y-99825934D01*
X138000500Y-99778481D01*
X138000500Y-95074910D01*
X138000726Y-95067423D01*
X138003904Y-95014881D01*
X138004357Y-95007394D01*
X137993516Y-94948235D01*
X137992389Y-94940830D01*
X137992118Y-94938602D01*
X137985140Y-94881128D01*
X137982480Y-94874116D01*
X137982480Y-94874113D01*
X137981547Y-94871653D01*
X137975520Y-94850035D01*
X137973694Y-94840068D01*
X137949012Y-94785228D01*
X137946145Y-94778306D01*
X137927479Y-94729087D01*
X137924818Y-94722070D01*
X137920556Y-94715896D01*
X137920552Y-94715888D01*
X137919058Y-94713724D01*
X137908032Y-94694175D01*
X137906956Y-94691785D01*
X137903877Y-94684943D01*
X137866788Y-94637602D01*
X137862349Y-94631569D01*
X137832442Y-94588241D01*
X137832441Y-94588240D01*
X137828183Y-94582071D01*
X137783170Y-94542193D01*
X137777716Y-94537059D01*
X136162939Y-92922282D01*
X136157822Y-92916847D01*
X136117929Y-92871817D01*
X136068410Y-92837636D01*
X136062404Y-92833216D01*
X136020961Y-92800747D01*
X136020958Y-92800745D01*
X136015057Y-92796122D01*
X136008219Y-92793044D01*
X136008210Y-92793039D01*
X136005810Y-92791959D01*
X135986268Y-92780937D01*
X135984107Y-92779445D01*
X135984102Y-92779442D01*
X135977930Y-92775182D01*
X135921702Y-92753857D01*
X135914784Y-92750991D01*
X135866772Y-92729383D01*
X135866769Y-92729382D01*
X135859932Y-92726305D01*
X135852560Y-92724954D01*
X135852551Y-92724951D01*
X135849952Y-92724475D01*
X135828340Y-92718450D01*
X135825891Y-92717521D01*
X135825885Y-92717519D01*
X135818872Y-92714860D01*
X135811430Y-92713956D01*
X135811425Y-92713955D01*
X135759171Y-92707610D01*
X135751771Y-92706483D01*
X135699987Y-92696994D01*
X135699982Y-92696993D01*
X135692606Y-92695642D01*
X135685126Y-92696094D01*
X135685118Y-92696094D01*
X135632567Y-92699274D01*
X135625079Y-92699500D01*
X133508155Y-92699500D01*
X133469837Y-92693431D01*
X133435273Y-92675820D01*
X133352730Y-92615849D01*
X133346792Y-92613205D01*
X133185745Y-92541501D01*
X133185740Y-92541499D01*
X133179803Y-92538856D01*
X133173444Y-92537504D01*
X133173440Y-92537503D01*
X133001008Y-92500852D01*
X133001005Y-92500851D01*
X132994646Y-92499500D01*
X132805354Y-92499500D01*
X132798995Y-92500851D01*
X132798991Y-92500852D01*
X132626559Y-92537503D01*
X132626552Y-92537505D01*
X132620197Y-92538856D01*
X132614262Y-92541498D01*
X132614254Y-92541501D01*
X132453207Y-92613205D01*
X132453202Y-92613207D01*
X132447270Y-92615849D01*
X132442016Y-92619665D01*
X132442011Y-92619669D01*
X132299388Y-92723290D01*
X132299381Y-92723295D01*
X132294129Y-92727112D01*
X132289784Y-92731937D01*
X132289779Y-92731942D01*
X132171813Y-92862956D01*
X132171808Y-92862962D01*
X132167467Y-92867784D01*
X132164222Y-92873404D01*
X132164218Y-92873410D01*
X132076069Y-93026089D01*
X132076066Y-93026094D01*
X132072821Y-93031716D01*
X132070815Y-93037888D01*
X132070813Y-93037894D01*
X132016333Y-93205564D01*
X132016331Y-93205573D01*
X132014326Y-93211744D01*
X132013648Y-93218194D01*
X132013646Y-93218204D01*
X131995962Y-93386464D01*
X131994540Y-93400000D01*
X117100000Y-93400000D01*
X117100000Y-90440000D01*
X117744341Y-90440000D01*
X117764937Y-90675408D01*
X117766336Y-90680630D01*
X117766337Y-90680634D01*
X117824694Y-90898430D01*
X117824697Y-90898438D01*
X117826097Y-90903663D01*
X117828385Y-90908570D01*
X117828386Y-90908572D01*
X117923678Y-91112927D01*
X117923681Y-91112933D01*
X117925965Y-91117830D01*
X117929064Y-91122257D01*
X117929066Y-91122259D01*
X118058399Y-91306966D01*
X118058402Y-91306970D01*
X118061505Y-91311401D01*
X118228599Y-91478495D01*
X118233031Y-91481598D01*
X118233033Y-91481600D01*
X118359089Y-91569865D01*
X118422170Y-91614035D01*
X118636337Y-91713903D01*
X118864592Y-91775063D01*
X119100000Y-91795659D01*
X119335408Y-91775063D01*
X119563663Y-91713903D01*
X119777830Y-91614035D01*
X119941130Y-91499691D01*
X136699500Y-91499691D01*
X136699501Y-91502985D01*
X136699853Y-91506263D01*
X136699854Y-91506274D01*
X136705079Y-91554881D01*
X136705080Y-91554886D01*
X136705909Y-91562596D01*
X136708619Y-91569862D01*
X136708620Y-91569866D01*
X136725094Y-91614035D01*
X136756204Y-91697444D01*
X136761518Y-91704543D01*
X136761519Y-91704544D01*
X136814309Y-91775063D01*
X136842454Y-91812659D01*
X136957669Y-91898909D01*
X137092517Y-91949204D01*
X137152127Y-91955613D01*
X138847872Y-91955612D01*
X138907483Y-91949204D01*
X139042331Y-91898909D01*
X139157546Y-91812659D01*
X139243796Y-91697444D01*
X139294091Y-91562596D01*
X139300500Y-91502986D01*
X139300499Y-89807241D01*
X139294091Y-89747630D01*
X139243796Y-89612782D01*
X139157546Y-89497567D01*
X139089560Y-89446673D01*
X139049431Y-89416632D01*
X139049430Y-89416631D01*
X139042331Y-89411317D01*
X138907483Y-89361022D01*
X138899770Y-89360192D01*
X138899767Y-89360192D01*
X138851180Y-89354968D01*
X138851169Y-89354967D01*
X138847873Y-89354613D01*
X138844550Y-89354613D01*
X137155439Y-89354613D01*
X137155420Y-89354613D01*
X137152128Y-89354614D01*
X137148850Y-89354966D01*
X137148838Y-89354967D01*
X137100231Y-89360192D01*
X137100225Y-89360193D01*
X137092517Y-89361022D01*
X137085252Y-89363731D01*
X137085246Y-89363733D01*
X136965980Y-89408217D01*
X136965978Y-89408217D01*
X136957669Y-89411317D01*
X136950572Y-89416629D01*
X136950568Y-89416632D01*
X136849550Y-89492254D01*
X136849546Y-89492257D01*
X136842454Y-89497567D01*
X136837144Y-89504659D01*
X136837141Y-89504663D01*
X136761519Y-89605681D01*
X136761516Y-89605685D01*
X136756204Y-89612782D01*
X136753104Y-89621091D01*
X136753104Y-89621093D01*
X136708620Y-89740360D01*
X136708619Y-89740363D01*
X136705909Y-89747630D01*
X136705079Y-89755340D01*
X136705079Y-89755345D01*
X136699855Y-89803932D01*
X136699854Y-89803944D01*
X136699500Y-89807240D01*
X136699500Y-89810561D01*
X136699500Y-89810562D01*
X136699500Y-91499673D01*
X136699500Y-91499691D01*
X119941130Y-91499691D01*
X119971401Y-91478495D01*
X120138495Y-91311401D01*
X120274035Y-91117830D01*
X120373903Y-90903663D01*
X120435063Y-90675408D01*
X120455659Y-90440000D01*
X120435063Y-90204592D01*
X120373903Y-89976337D01*
X120274035Y-89762171D01*
X120138495Y-89568599D01*
X120016569Y-89446673D01*
X119985273Y-89393927D01*
X119983084Y-89332634D01*
X120010537Y-89277789D01*
X120060916Y-89242810D01*
X120192331Y-89193796D01*
X120307546Y-89107546D01*
X120393796Y-88992331D01*
X120444091Y-88857483D01*
X120450500Y-88797873D01*
X120450499Y-87002128D01*
X120444091Y-86942517D01*
X120393796Y-86807669D01*
X120307546Y-86692454D01*
X120192331Y-86606204D01*
X120057483Y-86555909D01*
X120049770Y-86555079D01*
X120049767Y-86555079D01*
X120001180Y-86549855D01*
X120001169Y-86549854D01*
X119997873Y-86549500D01*
X119994550Y-86549500D01*
X118205439Y-86549500D01*
X118205420Y-86549500D01*
X118202128Y-86549501D01*
X118198850Y-86549853D01*
X118198838Y-86549854D01*
X118150231Y-86555079D01*
X118150225Y-86555080D01*
X118142517Y-86555909D01*
X118135252Y-86558618D01*
X118135246Y-86558620D01*
X118015980Y-86603104D01*
X118015978Y-86603104D01*
X118007669Y-86606204D01*
X118000572Y-86611516D01*
X118000568Y-86611519D01*
X117899550Y-86687141D01*
X117899546Y-86687144D01*
X117892454Y-86692454D01*
X117887144Y-86699546D01*
X117887141Y-86699550D01*
X117811519Y-86800568D01*
X117811516Y-86800572D01*
X117806204Y-86807669D01*
X117803104Y-86815978D01*
X117803104Y-86815980D01*
X117758620Y-86935247D01*
X117758619Y-86935250D01*
X117755909Y-86942517D01*
X117755079Y-86950227D01*
X117755079Y-86950232D01*
X117749855Y-86998819D01*
X117749854Y-86998831D01*
X117749500Y-87002127D01*
X117749500Y-87005448D01*
X117749500Y-87005449D01*
X117749500Y-88794560D01*
X117749500Y-88794578D01*
X117749501Y-88797872D01*
X117749853Y-88801150D01*
X117749854Y-88801161D01*
X117755079Y-88849768D01*
X117755080Y-88849773D01*
X117755909Y-88857483D01*
X117758619Y-88864749D01*
X117758620Y-88864753D01*
X117792217Y-88954831D01*
X117806204Y-88992331D01*
X117892454Y-89107546D01*
X118007669Y-89193796D01*
X118117405Y-89234725D01*
X118139082Y-89242810D01*
X118189462Y-89277789D01*
X118216915Y-89332633D01*
X118214726Y-89393926D01*
X118183430Y-89446673D01*
X118061505Y-89568599D01*
X118058402Y-89573029D01*
X118058399Y-89573034D01*
X117929073Y-89757731D01*
X117929068Y-89757738D01*
X117925965Y-89762171D01*
X117923677Y-89767077D01*
X117923675Y-89767081D01*
X117828386Y-89971427D01*
X117828383Y-89971432D01*
X117826097Y-89976337D01*
X117824698Y-89981557D01*
X117824694Y-89981569D01*
X117766337Y-90199365D01*
X117766335Y-90199371D01*
X117764937Y-90204592D01*
X117744341Y-90440000D01*
X117100000Y-90440000D01*
X117100000Y-82144578D01*
X126199500Y-82144578D01*
X126199501Y-82147872D01*
X126199853Y-82151150D01*
X126199854Y-82151161D01*
X126205079Y-82199768D01*
X126205080Y-82199773D01*
X126205909Y-82207483D01*
X126208619Y-82214749D01*
X126208620Y-82214753D01*
X126242217Y-82304831D01*
X126256204Y-82342331D01*
X126342454Y-82457546D01*
X126457669Y-82543796D01*
X126592517Y-82594091D01*
X126652127Y-82600500D01*
X129547872Y-82600499D01*
X129607483Y-82594091D01*
X129742331Y-82543796D01*
X129857546Y-82457546D01*
X129943796Y-82342331D01*
X129994091Y-82207483D01*
X130000500Y-82147873D01*
X130000499Y-79252128D01*
X129994091Y-79192517D01*
X129943796Y-79057669D01*
X129857546Y-78942454D01*
X129742331Y-78856204D01*
X129607483Y-78805909D01*
X129599770Y-78805079D01*
X129599767Y-78805079D01*
X129551180Y-78799855D01*
X129551169Y-78799854D01*
X129547873Y-78799500D01*
X129544550Y-78799500D01*
X126655439Y-78799500D01*
X126655420Y-78799500D01*
X126652128Y-78799501D01*
X126648850Y-78799853D01*
X126648838Y-78799854D01*
X126600231Y-78805079D01*
X126600225Y-78805080D01*
X126592517Y-78805909D01*
X126585252Y-78808618D01*
X126585246Y-78808620D01*
X126465980Y-78853104D01*
X126465978Y-78853104D01*
X126457669Y-78856204D01*
X126450572Y-78861516D01*
X126450568Y-78861519D01*
X126349550Y-78937141D01*
X126349546Y-78937144D01*
X126342454Y-78942454D01*
X126337144Y-78949546D01*
X126337141Y-78949550D01*
X126261519Y-79050568D01*
X126261516Y-79050572D01*
X126256204Y-79057669D01*
X126253104Y-79065978D01*
X126253104Y-79065980D01*
X126208620Y-79185247D01*
X126208619Y-79185250D01*
X126205909Y-79192517D01*
X126205079Y-79200227D01*
X126205079Y-79200232D01*
X126199855Y-79248819D01*
X126199854Y-79248831D01*
X126199500Y-79252127D01*
X126199500Y-79255448D01*
X126199500Y-79255449D01*
X126199500Y-82144560D01*
X126199500Y-82144578D01*
X117100000Y-82144578D01*
X117100000Y-79184543D01*
X117100155Y-79178348D01*
X117106560Y-79050292D01*
X117111936Y-78949550D01*
X117117260Y-78849782D01*
X117118472Y-78837890D01*
X117143707Y-78670856D01*
X117143817Y-78670151D01*
X117172532Y-78492146D01*
X117174788Y-78481292D01*
X117217524Y-78313856D01*
X117217939Y-78312281D01*
X117264392Y-78142163D01*
X117267498Y-78132406D01*
X117327262Y-77968611D01*
X117328236Y-77966035D01*
X117391838Y-77803592D01*
X117395617Y-77794932D01*
X117471777Y-77637196D01*
X117473390Y-77633979D01*
X117553543Y-77479947D01*
X117557770Y-77472475D01*
X117649559Y-77322689D01*
X117651936Y-77318965D01*
X117747762Y-77174736D01*
X117752233Y-77168447D01*
X117858699Y-77028322D01*
X117861975Y-77024200D01*
X117972416Y-76891216D01*
X117977004Y-76886000D01*
X118096949Y-76757171D01*
X118101229Y-76752797D01*
X118225173Y-76632344D01*
X118229601Y-76628250D01*
X118361905Y-76511944D01*
X118367170Y-76507574D01*
X118503352Y-76400899D01*
X118507466Y-76397819D01*
X118650586Y-76295389D01*
X118657035Y-76291076D01*
X118803941Y-76199408D01*
X118807681Y-76197169D01*
X118960078Y-76109665D01*
X118967662Y-76105657D01*
X119123933Y-76029930D01*
X119127106Y-76028450D01*
X119287016Y-75956798D01*
X119295792Y-75953263D01*
X119460040Y-75894307D01*
X119462527Y-75893447D01*
X119628007Y-75838371D01*
X119637885Y-75835534D01*
X119809063Y-75794007D01*
X119810945Y-75793567D01*
X119979391Y-75755663D01*
X119990345Y-75753711D01*
X120169193Y-75730079D01*
X120169693Y-75730015D01*
X120337485Y-75709549D01*
X120349376Y-75708678D01*
X120550061Y-75703711D01*
X120695660Y-75700592D01*
X120698680Y-75700528D01*
X120700354Y-75700510D01*
X120700485Y-75700514D01*
X120700485Y-75700509D01*
X120701334Y-75700500D01*
X140596949Y-75700500D01*
X140603032Y-75700649D01*
G37*
%TD.AperFunction*%
%TD*%
M02*
