%TF.GenerationSoftware,KiCad,Pcbnew,(7.0.0)*%
%TF.CreationDate,2023-03-21T16:51:35-07:00*%
%TF.ProjectId,DRV8874-breakout-board,44525638-3837-4342-9d62-7265616b6f75,rev?*%
%TF.SameCoordinates,Original*%
%TF.FileFunction,Legend,Bot*%
%TF.FilePolarity,Positive*%
%FSLAX46Y46*%
G04 Gerber Fmt 4.6, Leading zero omitted, Abs format (unit mm)*
G04 Created by KiCad (PCBNEW (7.0.0)) date 2023-03-21 16:51:35*
%MOMM*%
%LPD*%
G01*
G04 APERTURE LIST*
%ADD10C,0.150000*%
%ADD11C,0.180000*%
G04 APERTURE END LIST*
D10*
%TO.C,J102*%
X140009523Y-103667380D02*
X140009523Y-102667380D01*
X140009523Y-102667380D02*
X139628571Y-102667380D01*
X139628571Y-102667380D02*
X139533333Y-102715000D01*
X139533333Y-102715000D02*
X139485714Y-102762619D01*
X139485714Y-102762619D02*
X139438095Y-102857857D01*
X139438095Y-102857857D02*
X139438095Y-103000714D01*
X139438095Y-103000714D02*
X139485714Y-103095952D01*
X139485714Y-103095952D02*
X139533333Y-103143571D01*
X139533333Y-103143571D02*
X139628571Y-103191190D01*
X139628571Y-103191190D02*
X140009523Y-103191190D01*
X139009523Y-103667380D02*
X139009523Y-102667380D01*
X139009523Y-102667380D02*
X138676190Y-103381666D01*
X138676190Y-103381666D02*
X138342857Y-102667380D01*
X138342857Y-102667380D02*
X138342857Y-103667380D01*
X137676190Y-102667380D02*
X137485714Y-102667380D01*
X137485714Y-102667380D02*
X137390476Y-102715000D01*
X137390476Y-102715000D02*
X137295238Y-102810238D01*
X137295238Y-102810238D02*
X137247619Y-103000714D01*
X137247619Y-103000714D02*
X137247619Y-103334047D01*
X137247619Y-103334047D02*
X137295238Y-103524523D01*
X137295238Y-103524523D02*
X137390476Y-103619761D01*
X137390476Y-103619761D02*
X137485714Y-103667380D01*
X137485714Y-103667380D02*
X137676190Y-103667380D01*
X137676190Y-103667380D02*
X137771428Y-103619761D01*
X137771428Y-103619761D02*
X137866666Y-103524523D01*
X137866666Y-103524523D02*
X137914285Y-103334047D01*
X137914285Y-103334047D02*
X137914285Y-103000714D01*
X137914285Y-103000714D02*
X137866666Y-102810238D01*
X137866666Y-102810238D02*
X137771428Y-102715000D01*
X137771428Y-102715000D02*
X137676190Y-102667380D01*
X136819047Y-103667380D02*
X136819047Y-102667380D01*
X136819047Y-102667380D02*
X136580952Y-102667380D01*
X136580952Y-102667380D02*
X136438095Y-102715000D01*
X136438095Y-102715000D02*
X136342857Y-102810238D01*
X136342857Y-102810238D02*
X136295238Y-102905476D01*
X136295238Y-102905476D02*
X136247619Y-103095952D01*
X136247619Y-103095952D02*
X136247619Y-103238809D01*
X136247619Y-103238809D02*
X136295238Y-103429285D01*
X136295238Y-103429285D02*
X136342857Y-103524523D01*
X136342857Y-103524523D02*
X136438095Y-103619761D01*
X136438095Y-103619761D02*
X136580952Y-103667380D01*
X136580952Y-103667380D02*
X136819047Y-103667380D01*
X135819047Y-103143571D02*
X135485714Y-103143571D01*
X135342857Y-103667380D02*
X135819047Y-103667380D01*
X135819047Y-103667380D02*
X135819047Y-102667380D01*
X135819047Y-102667380D02*
X135342857Y-102667380D01*
D11*
X129751071Y-85520000D02*
X131251071Y-86020000D01*
X131251071Y-86020000D02*
X129751071Y-86520000D01*
X131179642Y-86948571D02*
X131251071Y-87091428D01*
X131251071Y-87091428D02*
X131251071Y-87377142D01*
X131251071Y-87377142D02*
X131179642Y-87519999D01*
X131179642Y-87519999D02*
X131036785Y-87591428D01*
X131036785Y-87591428D02*
X130965357Y-87591428D01*
X130965357Y-87591428D02*
X130822500Y-87519999D01*
X130822500Y-87519999D02*
X130751071Y-87377142D01*
X130751071Y-87377142D02*
X130751071Y-87162857D01*
X130751071Y-87162857D02*
X130679642Y-87019999D01*
X130679642Y-87019999D02*
X130536785Y-86948571D01*
X130536785Y-86948571D02*
X130465357Y-86948571D01*
X130465357Y-86948571D02*
X130322500Y-87019999D01*
X130322500Y-87019999D02*
X130251071Y-87162857D01*
X130251071Y-87162857D02*
X130251071Y-87377142D01*
X130251071Y-87377142D02*
X130322500Y-87519999D01*
X131251071Y-89091428D02*
X130536785Y-88591428D01*
X131251071Y-88234285D02*
X129751071Y-88234285D01*
X129751071Y-88234285D02*
X129751071Y-88805714D01*
X129751071Y-88805714D02*
X129822500Y-88948571D01*
X129822500Y-88948571D02*
X129893928Y-89020000D01*
X129893928Y-89020000D02*
X130036785Y-89091428D01*
X130036785Y-89091428D02*
X130251071Y-89091428D01*
X130251071Y-89091428D02*
X130393928Y-89020000D01*
X130393928Y-89020000D02*
X130465357Y-88948571D01*
X130465357Y-88948571D02*
X130536785Y-88805714D01*
X130536785Y-88805714D02*
X130536785Y-88234285D01*
X131179642Y-90305714D02*
X131251071Y-90162857D01*
X131251071Y-90162857D02*
X131251071Y-89877143D01*
X131251071Y-89877143D02*
X131179642Y-89734285D01*
X131179642Y-89734285D02*
X131036785Y-89662857D01*
X131036785Y-89662857D02*
X130465357Y-89662857D01*
X130465357Y-89662857D02*
X130322500Y-89734285D01*
X130322500Y-89734285D02*
X130251071Y-89877143D01*
X130251071Y-89877143D02*
X130251071Y-90162857D01*
X130251071Y-90162857D02*
X130322500Y-90305714D01*
X130322500Y-90305714D02*
X130465357Y-90377143D01*
X130465357Y-90377143D02*
X130608214Y-90377143D01*
X130608214Y-90377143D02*
X130751071Y-89662857D01*
X131251071Y-91662857D02*
X130465357Y-91662857D01*
X130465357Y-91662857D02*
X130322500Y-91591428D01*
X130322500Y-91591428D02*
X130251071Y-91448571D01*
X130251071Y-91448571D02*
X130251071Y-91162857D01*
X130251071Y-91162857D02*
X130322500Y-91019999D01*
X131179642Y-91662857D02*
X131251071Y-91519999D01*
X131251071Y-91519999D02*
X131251071Y-91162857D01*
X131251071Y-91162857D02*
X131179642Y-91019999D01*
X131179642Y-91019999D02*
X131036785Y-90948571D01*
X131036785Y-90948571D02*
X130893928Y-90948571D01*
X130893928Y-90948571D02*
X130751071Y-91019999D01*
X130751071Y-91019999D02*
X130679642Y-91162857D01*
X130679642Y-91162857D02*
X130679642Y-91519999D01*
X130679642Y-91519999D02*
X130608214Y-91662857D01*
X131251071Y-92591428D02*
X131179642Y-92448571D01*
X131179642Y-92448571D02*
X131036785Y-92377142D01*
X131036785Y-92377142D02*
X129751071Y-92377142D01*
X131251071Y-93162856D02*
X130251071Y-93162856D01*
X129751071Y-93162856D02*
X129822500Y-93091428D01*
X129822500Y-93091428D02*
X129893928Y-93162856D01*
X129893928Y-93162856D02*
X129822500Y-93234285D01*
X129822500Y-93234285D02*
X129751071Y-93162856D01*
X129751071Y-93162856D02*
X129893928Y-93162856D01*
X130251071Y-93662857D02*
X130251071Y-94234285D01*
X129751071Y-93877142D02*
X131036785Y-93877142D01*
X131036785Y-93877142D02*
X131179642Y-93948571D01*
X131179642Y-93948571D02*
X131251071Y-94091428D01*
X131251071Y-94091428D02*
X131251071Y-94234285D01*
X130251071Y-94591428D02*
X131251071Y-94948571D01*
X130251071Y-95305714D02*
X131251071Y-94948571D01*
X131251071Y-94948571D02*
X131608214Y-94805714D01*
X131608214Y-94805714D02*
X131679642Y-94734285D01*
X131679642Y-94734285D02*
X131751071Y-94591428D01*
X131251071Y-97634285D02*
X130536785Y-97134285D01*
X131251071Y-96777142D02*
X129751071Y-96777142D01*
X129751071Y-96777142D02*
X129751071Y-97348571D01*
X129751071Y-97348571D02*
X129822500Y-97491428D01*
X129822500Y-97491428D02*
X129893928Y-97562857D01*
X129893928Y-97562857D02*
X130036785Y-97634285D01*
X130036785Y-97634285D02*
X130251071Y-97634285D01*
X130251071Y-97634285D02*
X130393928Y-97562857D01*
X130393928Y-97562857D02*
X130465357Y-97491428D01*
X130465357Y-97491428D02*
X130536785Y-97348571D01*
X130536785Y-97348571D02*
X130536785Y-96777142D01*
X131251071Y-98491428D02*
X131179642Y-98348571D01*
X131179642Y-98348571D02*
X131108214Y-98277142D01*
X131108214Y-98277142D02*
X130965357Y-98205714D01*
X130965357Y-98205714D02*
X130536785Y-98205714D01*
X130536785Y-98205714D02*
X130393928Y-98277142D01*
X130393928Y-98277142D02*
X130322500Y-98348571D01*
X130322500Y-98348571D02*
X130251071Y-98491428D01*
X130251071Y-98491428D02*
X130251071Y-98705714D01*
X130251071Y-98705714D02*
X130322500Y-98848571D01*
X130322500Y-98848571D02*
X130393928Y-98920000D01*
X130393928Y-98920000D02*
X130536785Y-98991428D01*
X130536785Y-98991428D02*
X130965357Y-98991428D01*
X130965357Y-98991428D02*
X131108214Y-98920000D01*
X131108214Y-98920000D02*
X131179642Y-98848571D01*
X131179642Y-98848571D02*
X131251071Y-98705714D01*
X131251071Y-98705714D02*
X131251071Y-98491428D01*
X131251071Y-99634285D02*
X129751071Y-99634285D01*
X130322500Y-99634285D02*
X130251071Y-99777143D01*
X130251071Y-99777143D02*
X130251071Y-100062857D01*
X130251071Y-100062857D02*
X130322500Y-100205714D01*
X130322500Y-100205714D02*
X130393928Y-100277143D01*
X130393928Y-100277143D02*
X130536785Y-100348571D01*
X130536785Y-100348571D02*
X130965357Y-100348571D01*
X130965357Y-100348571D02*
X131108214Y-100277143D01*
X131108214Y-100277143D02*
X131179642Y-100205714D01*
X131179642Y-100205714D02*
X131251071Y-100062857D01*
X131251071Y-100062857D02*
X131251071Y-99777143D01*
X131251071Y-99777143D02*
X131179642Y-99634285D01*
X131251071Y-101205714D02*
X131179642Y-101062857D01*
X131179642Y-101062857D02*
X131108214Y-100991428D01*
X131108214Y-100991428D02*
X130965357Y-100920000D01*
X130965357Y-100920000D02*
X130536785Y-100920000D01*
X130536785Y-100920000D02*
X130393928Y-100991428D01*
X130393928Y-100991428D02*
X130322500Y-101062857D01*
X130322500Y-101062857D02*
X130251071Y-101205714D01*
X130251071Y-101205714D02*
X130251071Y-101420000D01*
X130251071Y-101420000D02*
X130322500Y-101562857D01*
X130322500Y-101562857D02*
X130393928Y-101634286D01*
X130393928Y-101634286D02*
X130536785Y-101705714D01*
X130536785Y-101705714D02*
X130965357Y-101705714D01*
X130965357Y-101705714D02*
X131108214Y-101634286D01*
X131108214Y-101634286D02*
X131179642Y-101562857D01*
X131179642Y-101562857D02*
X131251071Y-101420000D01*
X131251071Y-101420000D02*
X131251071Y-101205714D01*
X130251071Y-102134286D02*
X130251071Y-102705714D01*
X129751071Y-102348571D02*
X131036785Y-102348571D01*
X131036785Y-102348571D02*
X131179642Y-102420000D01*
X131179642Y-102420000D02*
X131251071Y-102562857D01*
X131251071Y-102562857D02*
X131251071Y-102705714D01*
X131251071Y-103205714D02*
X130251071Y-103205714D01*
X129751071Y-103205714D02*
X129822500Y-103134286D01*
X129822500Y-103134286D02*
X129893928Y-103205714D01*
X129893928Y-103205714D02*
X129822500Y-103277143D01*
X129822500Y-103277143D02*
X129751071Y-103205714D01*
X129751071Y-103205714D02*
X129893928Y-103205714D01*
X131179642Y-104562858D02*
X131251071Y-104420000D01*
X131251071Y-104420000D02*
X131251071Y-104134286D01*
X131251071Y-104134286D02*
X131179642Y-103991429D01*
X131179642Y-103991429D02*
X131108214Y-103920000D01*
X131108214Y-103920000D02*
X130965357Y-103848572D01*
X130965357Y-103848572D02*
X130536785Y-103848572D01*
X130536785Y-103848572D02*
X130393928Y-103920000D01*
X130393928Y-103920000D02*
X130322500Y-103991429D01*
X130322500Y-103991429D02*
X130251071Y-104134286D01*
X130251071Y-104134286D02*
X130251071Y-104420000D01*
X130251071Y-104420000D02*
X130322500Y-104562858D01*
X131179642Y-105134286D02*
X131251071Y-105277143D01*
X131251071Y-105277143D02*
X131251071Y-105562857D01*
X131251071Y-105562857D02*
X131179642Y-105705714D01*
X131179642Y-105705714D02*
X131036785Y-105777143D01*
X131036785Y-105777143D02*
X130965357Y-105777143D01*
X130965357Y-105777143D02*
X130822500Y-105705714D01*
X130822500Y-105705714D02*
X130751071Y-105562857D01*
X130751071Y-105562857D02*
X130751071Y-105348572D01*
X130751071Y-105348572D02*
X130679642Y-105205714D01*
X130679642Y-105205714D02*
X130536785Y-105134286D01*
X130536785Y-105134286D02*
X130465357Y-105134286D01*
X130465357Y-105134286D02*
X130322500Y-105205714D01*
X130322500Y-105205714D02*
X130251071Y-105348572D01*
X130251071Y-105348572D02*
X130251071Y-105562857D01*
X130251071Y-105562857D02*
X130322500Y-105705714D01*
D10*
X127614285Y-114067380D02*
X128185713Y-114067380D01*
X127899999Y-114067380D02*
X127899999Y-113067380D01*
X127899999Y-113067380D02*
X127995237Y-113210238D01*
X127995237Y-113210238D02*
X128090475Y-113305476D01*
X128090475Y-113305476D02*
X128185713Y-113353095D01*
X139461904Y-100135000D02*
X139557142Y-100087380D01*
X139557142Y-100087380D02*
X139699999Y-100087380D01*
X139699999Y-100087380D02*
X139842856Y-100135000D01*
X139842856Y-100135000D02*
X139938094Y-100230238D01*
X139938094Y-100230238D02*
X139985713Y-100325476D01*
X139985713Y-100325476D02*
X140033332Y-100515952D01*
X140033332Y-100515952D02*
X140033332Y-100658809D01*
X140033332Y-100658809D02*
X139985713Y-100849285D01*
X139985713Y-100849285D02*
X139938094Y-100944523D01*
X139938094Y-100944523D02*
X139842856Y-101039761D01*
X139842856Y-101039761D02*
X139699999Y-101087380D01*
X139699999Y-101087380D02*
X139604761Y-101087380D01*
X139604761Y-101087380D02*
X139461904Y-101039761D01*
X139461904Y-101039761D02*
X139414285Y-100992142D01*
X139414285Y-100992142D02*
X139414285Y-100658809D01*
X139414285Y-100658809D02*
X139604761Y-100658809D01*
X138985713Y-101087380D02*
X138985713Y-100087380D01*
X138985713Y-100087380D02*
X138414285Y-101087380D01*
X138414285Y-101087380D02*
X138414285Y-100087380D01*
X137938094Y-101087380D02*
X137938094Y-100087380D01*
X137938094Y-100087380D02*
X137699999Y-100087380D01*
X137699999Y-100087380D02*
X137557142Y-100135000D01*
X137557142Y-100135000D02*
X137461904Y-100230238D01*
X137461904Y-100230238D02*
X137414285Y-100325476D01*
X137414285Y-100325476D02*
X137366666Y-100515952D01*
X137366666Y-100515952D02*
X137366666Y-100658809D01*
X137366666Y-100658809D02*
X137414285Y-100849285D01*
X137414285Y-100849285D02*
X137461904Y-100944523D01*
X137461904Y-100944523D02*
X137557142Y-101039761D01*
X137557142Y-101039761D02*
X137699999Y-101087380D01*
X137699999Y-101087380D02*
X137938094Y-101087380D01*
X128480951Y-78186428D02*
X127719047Y-78186428D01*
X128099999Y-78567380D02*
X128099999Y-77805476D01*
X136880951Y-92186428D02*
X136119047Y-92186428D01*
X136499999Y-92567380D02*
X136499999Y-91805476D01*
X142467380Y-85105714D02*
X141467380Y-85105714D01*
X141467380Y-85105714D02*
X141467380Y-85343809D01*
X141467380Y-85343809D02*
X141515000Y-85486666D01*
X141515000Y-85486666D02*
X141610238Y-85581904D01*
X141610238Y-85581904D02*
X141705476Y-85629523D01*
X141705476Y-85629523D02*
X141895952Y-85677142D01*
X141895952Y-85677142D02*
X142038809Y-85677142D01*
X142038809Y-85677142D02*
X142229285Y-85629523D01*
X142229285Y-85629523D02*
X142324523Y-85581904D01*
X142324523Y-85581904D02*
X142419761Y-85486666D01*
X142419761Y-85486666D02*
X142467380Y-85343809D01*
X142467380Y-85343809D02*
X142467380Y-85105714D01*
X142467380Y-86677142D02*
X141991190Y-86343809D01*
X142467380Y-86105714D02*
X141467380Y-86105714D01*
X141467380Y-86105714D02*
X141467380Y-86486666D01*
X141467380Y-86486666D02*
X141515000Y-86581904D01*
X141515000Y-86581904D02*
X141562619Y-86629523D01*
X141562619Y-86629523D02*
X141657857Y-86677142D01*
X141657857Y-86677142D02*
X141800714Y-86677142D01*
X141800714Y-86677142D02*
X141895952Y-86629523D01*
X141895952Y-86629523D02*
X141943571Y-86581904D01*
X141943571Y-86581904D02*
X141991190Y-86486666D01*
X141991190Y-86486666D02*
X141991190Y-86105714D01*
X141467380Y-86962857D02*
X142467380Y-87296190D01*
X142467380Y-87296190D02*
X141467380Y-87629523D01*
X141895952Y-88105714D02*
X141848333Y-88010476D01*
X141848333Y-88010476D02*
X141800714Y-87962857D01*
X141800714Y-87962857D02*
X141705476Y-87915238D01*
X141705476Y-87915238D02*
X141657857Y-87915238D01*
X141657857Y-87915238D02*
X141562619Y-87962857D01*
X141562619Y-87962857D02*
X141515000Y-88010476D01*
X141515000Y-88010476D02*
X141467380Y-88105714D01*
X141467380Y-88105714D02*
X141467380Y-88296190D01*
X141467380Y-88296190D02*
X141515000Y-88391428D01*
X141515000Y-88391428D02*
X141562619Y-88439047D01*
X141562619Y-88439047D02*
X141657857Y-88486666D01*
X141657857Y-88486666D02*
X141705476Y-88486666D01*
X141705476Y-88486666D02*
X141800714Y-88439047D01*
X141800714Y-88439047D02*
X141848333Y-88391428D01*
X141848333Y-88391428D02*
X141895952Y-88296190D01*
X141895952Y-88296190D02*
X141895952Y-88105714D01*
X141895952Y-88105714D02*
X141943571Y-88010476D01*
X141943571Y-88010476D02*
X141991190Y-87962857D01*
X141991190Y-87962857D02*
X142086428Y-87915238D01*
X142086428Y-87915238D02*
X142276904Y-87915238D01*
X142276904Y-87915238D02*
X142372142Y-87962857D01*
X142372142Y-87962857D02*
X142419761Y-88010476D01*
X142419761Y-88010476D02*
X142467380Y-88105714D01*
X142467380Y-88105714D02*
X142467380Y-88296190D01*
X142467380Y-88296190D02*
X142419761Y-88391428D01*
X142419761Y-88391428D02*
X142372142Y-88439047D01*
X142372142Y-88439047D02*
X142276904Y-88486666D01*
X142276904Y-88486666D02*
X142086428Y-88486666D01*
X142086428Y-88486666D02*
X141991190Y-88439047D01*
X141991190Y-88439047D02*
X141943571Y-88391428D01*
X141943571Y-88391428D02*
X141895952Y-88296190D01*
X141895952Y-89058095D02*
X141848333Y-88962857D01*
X141848333Y-88962857D02*
X141800714Y-88915238D01*
X141800714Y-88915238D02*
X141705476Y-88867619D01*
X141705476Y-88867619D02*
X141657857Y-88867619D01*
X141657857Y-88867619D02*
X141562619Y-88915238D01*
X141562619Y-88915238D02*
X141515000Y-88962857D01*
X141515000Y-88962857D02*
X141467380Y-89058095D01*
X141467380Y-89058095D02*
X141467380Y-89248571D01*
X141467380Y-89248571D02*
X141515000Y-89343809D01*
X141515000Y-89343809D02*
X141562619Y-89391428D01*
X141562619Y-89391428D02*
X141657857Y-89439047D01*
X141657857Y-89439047D02*
X141705476Y-89439047D01*
X141705476Y-89439047D02*
X141800714Y-89391428D01*
X141800714Y-89391428D02*
X141848333Y-89343809D01*
X141848333Y-89343809D02*
X141895952Y-89248571D01*
X141895952Y-89248571D02*
X141895952Y-89058095D01*
X141895952Y-89058095D02*
X141943571Y-88962857D01*
X141943571Y-88962857D02*
X141991190Y-88915238D01*
X141991190Y-88915238D02*
X142086428Y-88867619D01*
X142086428Y-88867619D02*
X142276904Y-88867619D01*
X142276904Y-88867619D02*
X142372142Y-88915238D01*
X142372142Y-88915238D02*
X142419761Y-88962857D01*
X142419761Y-88962857D02*
X142467380Y-89058095D01*
X142467380Y-89058095D02*
X142467380Y-89248571D01*
X142467380Y-89248571D02*
X142419761Y-89343809D01*
X142419761Y-89343809D02*
X142372142Y-89391428D01*
X142372142Y-89391428D02*
X142276904Y-89439047D01*
X142276904Y-89439047D02*
X142086428Y-89439047D01*
X142086428Y-89439047D02*
X141991190Y-89391428D01*
X141991190Y-89391428D02*
X141943571Y-89343809D01*
X141943571Y-89343809D02*
X141895952Y-89248571D01*
X141467380Y-89772381D02*
X141467380Y-90439047D01*
X141467380Y-90439047D02*
X142467380Y-90010476D01*
X141800714Y-91248571D02*
X142467380Y-91248571D01*
X141419761Y-91010476D02*
X142134047Y-90772381D01*
X142134047Y-90772381D02*
X142134047Y-91391428D01*
X141467380Y-92229524D02*
X142467380Y-92562857D01*
X142467380Y-92562857D02*
X141467380Y-92896190D01*
X142467380Y-93753333D02*
X142467380Y-93181905D01*
X142467380Y-93467619D02*
X141467380Y-93467619D01*
X141467380Y-93467619D02*
X141610238Y-93372381D01*
X141610238Y-93372381D02*
X141705476Y-93277143D01*
X141705476Y-93277143D02*
X141753095Y-93181905D01*
X142372142Y-94181905D02*
X142419761Y-94229524D01*
X142419761Y-94229524D02*
X142467380Y-94181905D01*
X142467380Y-94181905D02*
X142419761Y-94134286D01*
X142419761Y-94134286D02*
X142372142Y-94181905D01*
X142372142Y-94181905D02*
X142467380Y-94181905D01*
X141467380Y-94848571D02*
X141467380Y-94943809D01*
X141467380Y-94943809D02*
X141515000Y-95039047D01*
X141515000Y-95039047D02*
X141562619Y-95086666D01*
X141562619Y-95086666D02*
X141657857Y-95134285D01*
X141657857Y-95134285D02*
X141848333Y-95181904D01*
X141848333Y-95181904D02*
X142086428Y-95181904D01*
X142086428Y-95181904D02*
X142276904Y-95134285D01*
X142276904Y-95134285D02*
X142372142Y-95086666D01*
X142372142Y-95086666D02*
X142419761Y-95039047D01*
X142419761Y-95039047D02*
X142467380Y-94943809D01*
X142467380Y-94943809D02*
X142467380Y-94848571D01*
X142467380Y-94848571D02*
X142419761Y-94753333D01*
X142419761Y-94753333D02*
X142372142Y-94705714D01*
X142372142Y-94705714D02*
X142276904Y-94658095D01*
X142276904Y-94658095D02*
X142086428Y-94610476D01*
X142086428Y-94610476D02*
X141848333Y-94610476D01*
X141848333Y-94610476D02*
X141657857Y-94658095D01*
X141657857Y-94658095D02*
X141562619Y-94705714D01*
X141562619Y-94705714D02*
X141515000Y-94753333D01*
X141515000Y-94753333D02*
X141467380Y-94848571D01*
X125880952Y-97900714D02*
X125880952Y-98567380D01*
X125880952Y-97995952D02*
X125833333Y-97948333D01*
X125833333Y-97948333D02*
X125738095Y-97900714D01*
X125738095Y-97900714D02*
X125595238Y-97900714D01*
X125595238Y-97900714D02*
X125500000Y-97948333D01*
X125500000Y-97948333D02*
X125452381Y-98043571D01*
X125452381Y-98043571D02*
X125452381Y-98567380D01*
X124642857Y-98043571D02*
X124976190Y-98043571D01*
X124976190Y-98567380D02*
X124976190Y-97567380D01*
X124976190Y-97567380D02*
X124500000Y-97567380D01*
X124166666Y-98281666D02*
X123690476Y-98281666D01*
X124261904Y-98567380D02*
X123928571Y-97567380D01*
X123928571Y-97567380D02*
X123595238Y-98567380D01*
X123261904Y-97567380D02*
X123261904Y-98376904D01*
X123261904Y-98376904D02*
X123214285Y-98472142D01*
X123214285Y-98472142D02*
X123166666Y-98519761D01*
X123166666Y-98519761D02*
X123071428Y-98567380D01*
X123071428Y-98567380D02*
X122880952Y-98567380D01*
X122880952Y-98567380D02*
X122785714Y-98519761D01*
X122785714Y-98519761D02*
X122738095Y-98472142D01*
X122738095Y-98472142D02*
X122690476Y-98376904D01*
X122690476Y-98376904D02*
X122690476Y-97567380D01*
X121738095Y-98567380D02*
X122214285Y-98567380D01*
X122214285Y-98567380D02*
X122214285Y-97567380D01*
X121547618Y-97567380D02*
X120976190Y-97567380D01*
X121261904Y-98567380D02*
X121261904Y-97567380D01*
X126099999Y-95400714D02*
X126099999Y-96067380D01*
X126099999Y-95495952D02*
X126052380Y-95448333D01*
X126052380Y-95448333D02*
X125957142Y-95400714D01*
X125957142Y-95400714D02*
X125814285Y-95400714D01*
X125814285Y-95400714D02*
X125719047Y-95448333D01*
X125719047Y-95448333D02*
X125671428Y-95543571D01*
X125671428Y-95543571D02*
X125671428Y-96067380D01*
X125242856Y-96019761D02*
X125099999Y-96067380D01*
X125099999Y-96067380D02*
X124861904Y-96067380D01*
X124861904Y-96067380D02*
X124766666Y-96019761D01*
X124766666Y-96019761D02*
X124719047Y-95972142D01*
X124719047Y-95972142D02*
X124671428Y-95876904D01*
X124671428Y-95876904D02*
X124671428Y-95781666D01*
X124671428Y-95781666D02*
X124719047Y-95686428D01*
X124719047Y-95686428D02*
X124766666Y-95638809D01*
X124766666Y-95638809D02*
X124861904Y-95591190D01*
X124861904Y-95591190D02*
X125052380Y-95543571D01*
X125052380Y-95543571D02*
X125147618Y-95495952D01*
X125147618Y-95495952D02*
X125195237Y-95448333D01*
X125195237Y-95448333D02*
X125242856Y-95353095D01*
X125242856Y-95353095D02*
X125242856Y-95257857D01*
X125242856Y-95257857D02*
X125195237Y-95162619D01*
X125195237Y-95162619D02*
X125147618Y-95115000D01*
X125147618Y-95115000D02*
X125052380Y-95067380D01*
X125052380Y-95067380D02*
X124814285Y-95067380D01*
X124814285Y-95067380D02*
X124671428Y-95115000D01*
X123766666Y-96067380D02*
X124242856Y-96067380D01*
X124242856Y-96067380D02*
X124242856Y-95067380D01*
X123433332Y-95543571D02*
X123099999Y-95543571D01*
X122957142Y-96067380D02*
X123433332Y-96067380D01*
X123433332Y-96067380D02*
X123433332Y-95067380D01*
X123433332Y-95067380D02*
X122957142Y-95067380D01*
X122528570Y-95543571D02*
X122195237Y-95543571D01*
X122052380Y-96067380D02*
X122528570Y-96067380D01*
X122528570Y-96067380D02*
X122528570Y-95067380D01*
X122528570Y-95067380D02*
X122052380Y-95067380D01*
X121623808Y-96067380D02*
X121623808Y-95067380D01*
X121623808Y-95067380D02*
X121242856Y-95067380D01*
X121242856Y-95067380D02*
X121147618Y-95115000D01*
X121147618Y-95115000D02*
X121099999Y-95162619D01*
X121099999Y-95162619D02*
X121052380Y-95257857D01*
X121052380Y-95257857D02*
X121052380Y-95400714D01*
X121052380Y-95400714D02*
X121099999Y-95495952D01*
X121099999Y-95495952D02*
X121147618Y-95543571D01*
X121147618Y-95543571D02*
X121242856Y-95591190D01*
X121242856Y-95591190D02*
X121623808Y-95591190D01*
X133580951Y-78186428D02*
X132819047Y-78186428D01*
X123261904Y-105315000D02*
X123357142Y-105267380D01*
X123357142Y-105267380D02*
X123499999Y-105267380D01*
X123499999Y-105267380D02*
X123642856Y-105315000D01*
X123642856Y-105315000D02*
X123738094Y-105410238D01*
X123738094Y-105410238D02*
X123785713Y-105505476D01*
X123785713Y-105505476D02*
X123833332Y-105695952D01*
X123833332Y-105695952D02*
X123833332Y-105838809D01*
X123833332Y-105838809D02*
X123785713Y-106029285D01*
X123785713Y-106029285D02*
X123738094Y-106124523D01*
X123738094Y-106124523D02*
X123642856Y-106219761D01*
X123642856Y-106219761D02*
X123499999Y-106267380D01*
X123499999Y-106267380D02*
X123404761Y-106267380D01*
X123404761Y-106267380D02*
X123261904Y-106219761D01*
X123261904Y-106219761D02*
X123214285Y-106172142D01*
X123214285Y-106172142D02*
X123214285Y-105838809D01*
X123214285Y-105838809D02*
X123404761Y-105838809D01*
X122785713Y-106267380D02*
X122785713Y-105267380D01*
X122785713Y-105267380D02*
X122214285Y-106267380D01*
X122214285Y-106267380D02*
X122214285Y-105267380D01*
X121738094Y-106267380D02*
X121738094Y-105267380D01*
X121738094Y-105267380D02*
X121499999Y-105267380D01*
X121499999Y-105267380D02*
X121357142Y-105315000D01*
X121357142Y-105315000D02*
X121261904Y-105410238D01*
X121261904Y-105410238D02*
X121214285Y-105505476D01*
X121214285Y-105505476D02*
X121166666Y-105695952D01*
X121166666Y-105695952D02*
X121166666Y-105838809D01*
X121166666Y-105838809D02*
X121214285Y-106029285D01*
X121214285Y-106029285D02*
X121261904Y-106124523D01*
X121261904Y-106124523D02*
X121357142Y-106219761D01*
X121357142Y-106219761D02*
X121499999Y-106267380D01*
X121499999Y-106267380D02*
X121738094Y-106267380D01*
X125299999Y-103286428D02*
X124538095Y-103286428D01*
X124919047Y-103667380D02*
X124919047Y-102905476D01*
X124157142Y-102667380D02*
X123538095Y-102667380D01*
X123538095Y-102667380D02*
X123871428Y-103048333D01*
X123871428Y-103048333D02*
X123728571Y-103048333D01*
X123728571Y-103048333D02*
X123633333Y-103095952D01*
X123633333Y-103095952D02*
X123585714Y-103143571D01*
X123585714Y-103143571D02*
X123538095Y-103238809D01*
X123538095Y-103238809D02*
X123538095Y-103476904D01*
X123538095Y-103476904D02*
X123585714Y-103572142D01*
X123585714Y-103572142D02*
X123633333Y-103619761D01*
X123633333Y-103619761D02*
X123728571Y-103667380D01*
X123728571Y-103667380D02*
X124014285Y-103667380D01*
X124014285Y-103667380D02*
X124109523Y-103619761D01*
X124109523Y-103619761D02*
X124157142Y-103572142D01*
X123109523Y-103572142D02*
X123061904Y-103619761D01*
X123061904Y-103619761D02*
X123109523Y-103667380D01*
X123109523Y-103667380D02*
X123157142Y-103619761D01*
X123157142Y-103619761D02*
X123109523Y-103572142D01*
X123109523Y-103572142D02*
X123109523Y-103667380D01*
X122728571Y-102667380D02*
X122109524Y-102667380D01*
X122109524Y-102667380D02*
X122442857Y-103048333D01*
X122442857Y-103048333D02*
X122300000Y-103048333D01*
X122300000Y-103048333D02*
X122204762Y-103095952D01*
X122204762Y-103095952D02*
X122157143Y-103143571D01*
X122157143Y-103143571D02*
X122109524Y-103238809D01*
X122109524Y-103238809D02*
X122109524Y-103476904D01*
X122109524Y-103476904D02*
X122157143Y-103572142D01*
X122157143Y-103572142D02*
X122204762Y-103619761D01*
X122204762Y-103619761D02*
X122300000Y-103667380D01*
X122300000Y-103667380D02*
X122585714Y-103667380D01*
X122585714Y-103667380D02*
X122680952Y-103619761D01*
X122680952Y-103619761D02*
X122728571Y-103572142D01*
X121823809Y-102667380D02*
X121490476Y-103667380D01*
X121490476Y-103667380D02*
X121157143Y-102667380D01*
X126099999Y-91267380D02*
X126099999Y-90267380D01*
X126099999Y-90267380D02*
X125719047Y-90267380D01*
X125719047Y-90267380D02*
X125623809Y-90315000D01*
X125623809Y-90315000D02*
X125576190Y-90362619D01*
X125576190Y-90362619D02*
X125528571Y-90457857D01*
X125528571Y-90457857D02*
X125528571Y-90600714D01*
X125528571Y-90600714D02*
X125576190Y-90695952D01*
X125576190Y-90695952D02*
X125623809Y-90743571D01*
X125623809Y-90743571D02*
X125719047Y-90791190D01*
X125719047Y-90791190D02*
X126099999Y-90791190D01*
X125099999Y-91267380D02*
X125099999Y-90267380D01*
X125099999Y-90743571D02*
X124528571Y-90743571D01*
X124528571Y-91267380D02*
X124528571Y-90267380D01*
X123814285Y-91600714D02*
X123814285Y-90172142D01*
X123099999Y-91267380D02*
X123099999Y-90267380D01*
X122623809Y-91267380D02*
X122623809Y-90267380D01*
X122623809Y-90267380D02*
X122052381Y-91267380D01*
X122052381Y-91267380D02*
X122052381Y-90267380D01*
X121623809Y-90362619D02*
X121576190Y-90315000D01*
X121576190Y-90315000D02*
X121480952Y-90267380D01*
X121480952Y-90267380D02*
X121242857Y-90267380D01*
X121242857Y-90267380D02*
X121147619Y-90315000D01*
X121147619Y-90315000D02*
X121100000Y-90362619D01*
X121100000Y-90362619D02*
X121052381Y-90457857D01*
X121052381Y-90457857D02*
X121052381Y-90553095D01*
X121052381Y-90553095D02*
X121100000Y-90695952D01*
X121100000Y-90695952D02*
X121671428Y-91267380D01*
X121671428Y-91267380D02*
X121052381Y-91267380D01*
X133285713Y-113162619D02*
X133238094Y-113115000D01*
X133238094Y-113115000D02*
X133142856Y-113067380D01*
X133142856Y-113067380D02*
X132904761Y-113067380D01*
X132904761Y-113067380D02*
X132809523Y-113115000D01*
X132809523Y-113115000D02*
X132761904Y-113162619D01*
X132761904Y-113162619D02*
X132714285Y-113257857D01*
X132714285Y-113257857D02*
X132714285Y-113353095D01*
X132714285Y-113353095D02*
X132761904Y-113495952D01*
X132761904Y-113495952D02*
X133333332Y-114067380D01*
X133333332Y-114067380D02*
X132714285Y-114067380D01*
X139999999Y-105706428D02*
X139238095Y-105706428D01*
X139619047Y-106087380D02*
X139619047Y-105325476D01*
X138857142Y-105087380D02*
X138238095Y-105087380D01*
X138238095Y-105087380D02*
X138571428Y-105468333D01*
X138571428Y-105468333D02*
X138428571Y-105468333D01*
X138428571Y-105468333D02*
X138333333Y-105515952D01*
X138333333Y-105515952D02*
X138285714Y-105563571D01*
X138285714Y-105563571D02*
X138238095Y-105658809D01*
X138238095Y-105658809D02*
X138238095Y-105896904D01*
X138238095Y-105896904D02*
X138285714Y-105992142D01*
X138285714Y-105992142D02*
X138333333Y-106039761D01*
X138333333Y-106039761D02*
X138428571Y-106087380D01*
X138428571Y-106087380D02*
X138714285Y-106087380D01*
X138714285Y-106087380D02*
X138809523Y-106039761D01*
X138809523Y-106039761D02*
X138857142Y-105992142D01*
X137809523Y-105992142D02*
X137761904Y-106039761D01*
X137761904Y-106039761D02*
X137809523Y-106087380D01*
X137809523Y-106087380D02*
X137857142Y-106039761D01*
X137857142Y-106039761D02*
X137809523Y-105992142D01*
X137809523Y-105992142D02*
X137809523Y-106087380D01*
X137428571Y-105087380D02*
X136809524Y-105087380D01*
X136809524Y-105087380D02*
X137142857Y-105468333D01*
X137142857Y-105468333D02*
X137000000Y-105468333D01*
X137000000Y-105468333D02*
X136904762Y-105515952D01*
X136904762Y-105515952D02*
X136857143Y-105563571D01*
X136857143Y-105563571D02*
X136809524Y-105658809D01*
X136809524Y-105658809D02*
X136809524Y-105896904D01*
X136809524Y-105896904D02*
X136857143Y-105992142D01*
X136857143Y-105992142D02*
X136904762Y-106039761D01*
X136904762Y-106039761D02*
X137000000Y-106087380D01*
X137000000Y-106087380D02*
X137285714Y-106087380D01*
X137285714Y-106087380D02*
X137380952Y-106039761D01*
X137380952Y-106039761D02*
X137428571Y-105992142D01*
X136523809Y-105087380D02*
X136190476Y-106087380D01*
X136190476Y-106087380D02*
X135857143Y-105087380D01*
X126052380Y-87743571D02*
X125719047Y-87743571D01*
X125576190Y-88267380D02*
X126052380Y-88267380D01*
X126052380Y-88267380D02*
X126052380Y-87267380D01*
X126052380Y-87267380D02*
X125576190Y-87267380D01*
X125147618Y-88267380D02*
X125147618Y-87267380D01*
X125147618Y-87267380D02*
X124576190Y-88267380D01*
X124576190Y-88267380D02*
X124576190Y-87267380D01*
X123861904Y-88600714D02*
X123861904Y-87172142D01*
X123147618Y-88267380D02*
X123147618Y-87267380D01*
X122671428Y-88267380D02*
X122671428Y-87267380D01*
X122671428Y-87267380D02*
X122100000Y-88267380D01*
X122100000Y-88267380D02*
X122100000Y-87267380D01*
X121100000Y-88267380D02*
X121671428Y-88267380D01*
X121385714Y-88267380D02*
X121385714Y-87267380D01*
X121385714Y-87267380D02*
X121480952Y-87410238D01*
X121480952Y-87410238D02*
X121576190Y-87505476D01*
X121576190Y-87505476D02*
X121671428Y-87553095D01*
X125661903Y-101067380D02*
X125661903Y-100067380D01*
X125185713Y-101067380D02*
X125185713Y-100067380D01*
X125185713Y-100067380D02*
X124804761Y-100067380D01*
X124804761Y-100067380D02*
X124709523Y-100115000D01*
X124709523Y-100115000D02*
X124661904Y-100162619D01*
X124661904Y-100162619D02*
X124614285Y-100257857D01*
X124614285Y-100257857D02*
X124614285Y-100400714D01*
X124614285Y-100400714D02*
X124661904Y-100495952D01*
X124661904Y-100495952D02*
X124709523Y-100543571D01*
X124709523Y-100543571D02*
X124804761Y-100591190D01*
X124804761Y-100591190D02*
X125185713Y-100591190D01*
X123614285Y-101067380D02*
X123947618Y-100591190D01*
X124185713Y-101067380D02*
X124185713Y-100067380D01*
X124185713Y-100067380D02*
X123804761Y-100067380D01*
X123804761Y-100067380D02*
X123709523Y-100115000D01*
X123709523Y-100115000D02*
X123661904Y-100162619D01*
X123661904Y-100162619D02*
X123614285Y-100257857D01*
X123614285Y-100257857D02*
X123614285Y-100400714D01*
X123614285Y-100400714D02*
X123661904Y-100495952D01*
X123661904Y-100495952D02*
X123709523Y-100543571D01*
X123709523Y-100543571D02*
X123804761Y-100591190D01*
X123804761Y-100591190D02*
X124185713Y-100591190D01*
X122995237Y-100067380D02*
X122804761Y-100067380D01*
X122804761Y-100067380D02*
X122709523Y-100115000D01*
X122709523Y-100115000D02*
X122614285Y-100210238D01*
X122614285Y-100210238D02*
X122566666Y-100400714D01*
X122566666Y-100400714D02*
X122566666Y-100734047D01*
X122566666Y-100734047D02*
X122614285Y-100924523D01*
X122614285Y-100924523D02*
X122709523Y-101019761D01*
X122709523Y-101019761D02*
X122804761Y-101067380D01*
X122804761Y-101067380D02*
X122995237Y-101067380D01*
X122995237Y-101067380D02*
X123090475Y-101019761D01*
X123090475Y-101019761D02*
X123185713Y-100924523D01*
X123185713Y-100924523D02*
X123233332Y-100734047D01*
X123233332Y-100734047D02*
X123233332Y-100400714D01*
X123233332Y-100400714D02*
X123185713Y-100210238D01*
X123185713Y-100210238D02*
X123090475Y-100115000D01*
X123090475Y-100115000D02*
X122995237Y-100067380D01*
X122138094Y-101067380D02*
X122138094Y-100067380D01*
X122138094Y-100067380D02*
X121757142Y-100067380D01*
X121757142Y-100067380D02*
X121661904Y-100115000D01*
X121661904Y-100115000D02*
X121614285Y-100162619D01*
X121614285Y-100162619D02*
X121566666Y-100257857D01*
X121566666Y-100257857D02*
X121566666Y-100400714D01*
X121566666Y-100400714D02*
X121614285Y-100495952D01*
X121614285Y-100495952D02*
X121661904Y-100543571D01*
X121661904Y-100543571D02*
X121757142Y-100591190D01*
X121757142Y-100591190D02*
X122138094Y-100591190D01*
X121138094Y-101067380D02*
X121138094Y-100067380D01*
%TD*%
M02*
