%TF.GenerationSoftware,KiCad,Pcbnew,(7.0.0)*%
%TF.CreationDate,2023-03-21T16:51:35-07:00*%
%TF.ProjectId,DRV8874-breakout-board,44525638-3837-4342-9d62-7265616b6f75,rev?*%
%TF.SameCoordinates,Original*%
%TF.FileFunction,Legend,Top*%
%TF.FilePolarity,Positive*%
%FSLAX46Y46*%
G04 Gerber Fmt 4.6, Leading zero omitted, Abs format (unit mm)*
G04 Created by KiCad (PCBNEW (7.0.0)) date 2023-03-21 16:51:35*
%MOMM*%
%LPD*%
G01*
G04 APERTURE LIST*
%ADD10C,0.300000*%
%ADD11C,0.120000*%
%ADD12C,0.150000*%
G04 APERTURE END LIST*
D10*
X125450000Y-94450000D02*
G75*
G03*
X125450000Y-94450000I-150000J0D01*
G01*
D11*
%TO.C,U101*%
X128528571Y-99893904D02*
X128528571Y-100541523D01*
X128528571Y-100541523D02*
X128566666Y-100617714D01*
X128566666Y-100617714D02*
X128604761Y-100655809D01*
X128604761Y-100655809D02*
X128680952Y-100693904D01*
X128680952Y-100693904D02*
X128833333Y-100693904D01*
X128833333Y-100693904D02*
X128909523Y-100655809D01*
X128909523Y-100655809D02*
X128947618Y-100617714D01*
X128947618Y-100617714D02*
X128985714Y-100541523D01*
X128985714Y-100541523D02*
X128985714Y-99893904D01*
X129785713Y-100693904D02*
X129328570Y-100693904D01*
X129557142Y-100693904D02*
X129557142Y-99893904D01*
X129557142Y-99893904D02*
X129480951Y-100008190D01*
X129480951Y-100008190D02*
X129404761Y-100084380D01*
X129404761Y-100084380D02*
X129328570Y-100122476D01*
X130280952Y-99893904D02*
X130357142Y-99893904D01*
X130357142Y-99893904D02*
X130433333Y-99932000D01*
X130433333Y-99932000D02*
X130471428Y-99970095D01*
X130471428Y-99970095D02*
X130509523Y-100046285D01*
X130509523Y-100046285D02*
X130547618Y-100198666D01*
X130547618Y-100198666D02*
X130547618Y-100389142D01*
X130547618Y-100389142D02*
X130509523Y-100541523D01*
X130509523Y-100541523D02*
X130471428Y-100617714D01*
X130471428Y-100617714D02*
X130433333Y-100655809D01*
X130433333Y-100655809D02*
X130357142Y-100693904D01*
X130357142Y-100693904D02*
X130280952Y-100693904D01*
X130280952Y-100693904D02*
X130204761Y-100655809D01*
X130204761Y-100655809D02*
X130166666Y-100617714D01*
X130166666Y-100617714D02*
X130128571Y-100541523D01*
X130128571Y-100541523D02*
X130090475Y-100389142D01*
X130090475Y-100389142D02*
X130090475Y-100198666D01*
X130090475Y-100198666D02*
X130128571Y-100046285D01*
X130128571Y-100046285D02*
X130166666Y-99970095D01*
X130166666Y-99970095D02*
X130204761Y-99932000D01*
X130204761Y-99932000D02*
X130280952Y-99893904D01*
X131309523Y-100693904D02*
X130852380Y-100693904D01*
X131080952Y-100693904D02*
X131080952Y-99893904D01*
X131080952Y-99893904D02*
X131004761Y-100008190D01*
X131004761Y-100008190D02*
X130928571Y-100084380D01*
X130928571Y-100084380D02*
X130852380Y-100122476D01*
%TO.C,C101*%
X135117714Y-96295237D02*
X135155809Y-96333333D01*
X135155809Y-96333333D02*
X135193904Y-96447618D01*
X135193904Y-96447618D02*
X135193904Y-96523809D01*
X135193904Y-96523809D02*
X135155809Y-96638095D01*
X135155809Y-96638095D02*
X135079619Y-96714285D01*
X135079619Y-96714285D02*
X135003428Y-96752380D01*
X135003428Y-96752380D02*
X134851047Y-96790476D01*
X134851047Y-96790476D02*
X134736761Y-96790476D01*
X134736761Y-96790476D02*
X134584380Y-96752380D01*
X134584380Y-96752380D02*
X134508190Y-96714285D01*
X134508190Y-96714285D02*
X134432000Y-96638095D01*
X134432000Y-96638095D02*
X134393904Y-96523809D01*
X134393904Y-96523809D02*
X134393904Y-96447618D01*
X134393904Y-96447618D02*
X134432000Y-96333333D01*
X134432000Y-96333333D02*
X134470095Y-96295237D01*
X135193904Y-95533333D02*
X135193904Y-95990476D01*
X135193904Y-95761904D02*
X134393904Y-95761904D01*
X134393904Y-95761904D02*
X134508190Y-95838095D01*
X134508190Y-95838095D02*
X134584380Y-95914285D01*
X134584380Y-95914285D02*
X134622476Y-95990476D01*
X134393904Y-95038094D02*
X134393904Y-94961904D01*
X134393904Y-94961904D02*
X134432000Y-94885713D01*
X134432000Y-94885713D02*
X134470095Y-94847618D01*
X134470095Y-94847618D02*
X134546285Y-94809523D01*
X134546285Y-94809523D02*
X134698666Y-94771428D01*
X134698666Y-94771428D02*
X134889142Y-94771428D01*
X134889142Y-94771428D02*
X135041523Y-94809523D01*
X135041523Y-94809523D02*
X135117714Y-94847618D01*
X135117714Y-94847618D02*
X135155809Y-94885713D01*
X135155809Y-94885713D02*
X135193904Y-94961904D01*
X135193904Y-94961904D02*
X135193904Y-95038094D01*
X135193904Y-95038094D02*
X135155809Y-95114285D01*
X135155809Y-95114285D02*
X135117714Y-95152380D01*
X135117714Y-95152380D02*
X135041523Y-95190475D01*
X135041523Y-95190475D02*
X134889142Y-95228571D01*
X134889142Y-95228571D02*
X134698666Y-95228571D01*
X134698666Y-95228571D02*
X134546285Y-95190475D01*
X134546285Y-95190475D02*
X134470095Y-95152380D01*
X134470095Y-95152380D02*
X134432000Y-95114285D01*
X134432000Y-95114285D02*
X134393904Y-95038094D01*
X135193904Y-94009523D02*
X135193904Y-94466666D01*
X135193904Y-94238094D02*
X134393904Y-94238094D01*
X134393904Y-94238094D02*
X134508190Y-94314285D01*
X134508190Y-94314285D02*
X134584380Y-94390475D01*
X134584380Y-94390475D02*
X134622476Y-94466666D01*
%TO.C,C104*%
X141617714Y-90495237D02*
X141655809Y-90533333D01*
X141655809Y-90533333D02*
X141693904Y-90647618D01*
X141693904Y-90647618D02*
X141693904Y-90723809D01*
X141693904Y-90723809D02*
X141655809Y-90838095D01*
X141655809Y-90838095D02*
X141579619Y-90914285D01*
X141579619Y-90914285D02*
X141503428Y-90952380D01*
X141503428Y-90952380D02*
X141351047Y-90990476D01*
X141351047Y-90990476D02*
X141236761Y-90990476D01*
X141236761Y-90990476D02*
X141084380Y-90952380D01*
X141084380Y-90952380D02*
X141008190Y-90914285D01*
X141008190Y-90914285D02*
X140932000Y-90838095D01*
X140932000Y-90838095D02*
X140893904Y-90723809D01*
X140893904Y-90723809D02*
X140893904Y-90647618D01*
X140893904Y-90647618D02*
X140932000Y-90533333D01*
X140932000Y-90533333D02*
X140970095Y-90495237D01*
X141693904Y-89733333D02*
X141693904Y-90190476D01*
X141693904Y-89961904D02*
X140893904Y-89961904D01*
X140893904Y-89961904D02*
X141008190Y-90038095D01*
X141008190Y-90038095D02*
X141084380Y-90114285D01*
X141084380Y-90114285D02*
X141122476Y-90190476D01*
X140893904Y-89238094D02*
X140893904Y-89161904D01*
X140893904Y-89161904D02*
X140932000Y-89085713D01*
X140932000Y-89085713D02*
X140970095Y-89047618D01*
X140970095Y-89047618D02*
X141046285Y-89009523D01*
X141046285Y-89009523D02*
X141198666Y-88971428D01*
X141198666Y-88971428D02*
X141389142Y-88971428D01*
X141389142Y-88971428D02*
X141541523Y-89009523D01*
X141541523Y-89009523D02*
X141617714Y-89047618D01*
X141617714Y-89047618D02*
X141655809Y-89085713D01*
X141655809Y-89085713D02*
X141693904Y-89161904D01*
X141693904Y-89161904D02*
X141693904Y-89238094D01*
X141693904Y-89238094D02*
X141655809Y-89314285D01*
X141655809Y-89314285D02*
X141617714Y-89352380D01*
X141617714Y-89352380D02*
X141541523Y-89390475D01*
X141541523Y-89390475D02*
X141389142Y-89428571D01*
X141389142Y-89428571D02*
X141198666Y-89428571D01*
X141198666Y-89428571D02*
X141046285Y-89390475D01*
X141046285Y-89390475D02*
X140970095Y-89352380D01*
X140970095Y-89352380D02*
X140932000Y-89314285D01*
X140932000Y-89314285D02*
X140893904Y-89238094D01*
X141160571Y-88285713D02*
X141693904Y-88285713D01*
X140855809Y-88476189D02*
X141427238Y-88666666D01*
X141427238Y-88666666D02*
X141427238Y-88171427D01*
%TO.C,C102*%
X135117714Y-99695237D02*
X135155809Y-99733333D01*
X135155809Y-99733333D02*
X135193904Y-99847618D01*
X135193904Y-99847618D02*
X135193904Y-99923809D01*
X135193904Y-99923809D02*
X135155809Y-100038095D01*
X135155809Y-100038095D02*
X135079619Y-100114285D01*
X135079619Y-100114285D02*
X135003428Y-100152380D01*
X135003428Y-100152380D02*
X134851047Y-100190476D01*
X134851047Y-100190476D02*
X134736761Y-100190476D01*
X134736761Y-100190476D02*
X134584380Y-100152380D01*
X134584380Y-100152380D02*
X134508190Y-100114285D01*
X134508190Y-100114285D02*
X134432000Y-100038095D01*
X134432000Y-100038095D02*
X134393904Y-99923809D01*
X134393904Y-99923809D02*
X134393904Y-99847618D01*
X134393904Y-99847618D02*
X134432000Y-99733333D01*
X134432000Y-99733333D02*
X134470095Y-99695237D01*
X135193904Y-98933333D02*
X135193904Y-99390476D01*
X135193904Y-99161904D02*
X134393904Y-99161904D01*
X134393904Y-99161904D02*
X134508190Y-99238095D01*
X134508190Y-99238095D02*
X134584380Y-99314285D01*
X134584380Y-99314285D02*
X134622476Y-99390476D01*
X134393904Y-98438094D02*
X134393904Y-98361904D01*
X134393904Y-98361904D02*
X134432000Y-98285713D01*
X134432000Y-98285713D02*
X134470095Y-98247618D01*
X134470095Y-98247618D02*
X134546285Y-98209523D01*
X134546285Y-98209523D02*
X134698666Y-98171428D01*
X134698666Y-98171428D02*
X134889142Y-98171428D01*
X134889142Y-98171428D02*
X135041523Y-98209523D01*
X135041523Y-98209523D02*
X135117714Y-98247618D01*
X135117714Y-98247618D02*
X135155809Y-98285713D01*
X135155809Y-98285713D02*
X135193904Y-98361904D01*
X135193904Y-98361904D02*
X135193904Y-98438094D01*
X135193904Y-98438094D02*
X135155809Y-98514285D01*
X135155809Y-98514285D02*
X135117714Y-98552380D01*
X135117714Y-98552380D02*
X135041523Y-98590475D01*
X135041523Y-98590475D02*
X134889142Y-98628571D01*
X134889142Y-98628571D02*
X134698666Y-98628571D01*
X134698666Y-98628571D02*
X134546285Y-98590475D01*
X134546285Y-98590475D02*
X134470095Y-98552380D01*
X134470095Y-98552380D02*
X134432000Y-98514285D01*
X134432000Y-98514285D02*
X134393904Y-98438094D01*
X134470095Y-97866666D02*
X134432000Y-97828570D01*
X134432000Y-97828570D02*
X134393904Y-97752380D01*
X134393904Y-97752380D02*
X134393904Y-97561904D01*
X134393904Y-97561904D02*
X134432000Y-97485713D01*
X134432000Y-97485713D02*
X134470095Y-97447618D01*
X134470095Y-97447618D02*
X134546285Y-97409523D01*
X134546285Y-97409523D02*
X134622476Y-97409523D01*
X134622476Y-97409523D02*
X134736761Y-97447618D01*
X134736761Y-97447618D02*
X135193904Y-97904761D01*
X135193904Y-97904761D02*
X135193904Y-97409523D01*
%TO.C,R101*%
X124093904Y-99595237D02*
X123712952Y-99861904D01*
X124093904Y-100052380D02*
X123293904Y-100052380D01*
X123293904Y-100052380D02*
X123293904Y-99747618D01*
X123293904Y-99747618D02*
X123332000Y-99671428D01*
X123332000Y-99671428D02*
X123370095Y-99633333D01*
X123370095Y-99633333D02*
X123446285Y-99595237D01*
X123446285Y-99595237D02*
X123560571Y-99595237D01*
X123560571Y-99595237D02*
X123636761Y-99633333D01*
X123636761Y-99633333D02*
X123674857Y-99671428D01*
X123674857Y-99671428D02*
X123712952Y-99747618D01*
X123712952Y-99747618D02*
X123712952Y-100052380D01*
X124093904Y-98833333D02*
X124093904Y-99290476D01*
X124093904Y-99061904D02*
X123293904Y-99061904D01*
X123293904Y-99061904D02*
X123408190Y-99138095D01*
X123408190Y-99138095D02*
X123484380Y-99214285D01*
X123484380Y-99214285D02*
X123522476Y-99290476D01*
X123293904Y-98338094D02*
X123293904Y-98261904D01*
X123293904Y-98261904D02*
X123332000Y-98185713D01*
X123332000Y-98185713D02*
X123370095Y-98147618D01*
X123370095Y-98147618D02*
X123446285Y-98109523D01*
X123446285Y-98109523D02*
X123598666Y-98071428D01*
X123598666Y-98071428D02*
X123789142Y-98071428D01*
X123789142Y-98071428D02*
X123941523Y-98109523D01*
X123941523Y-98109523D02*
X124017714Y-98147618D01*
X124017714Y-98147618D02*
X124055809Y-98185713D01*
X124055809Y-98185713D02*
X124093904Y-98261904D01*
X124093904Y-98261904D02*
X124093904Y-98338094D01*
X124093904Y-98338094D02*
X124055809Y-98414285D01*
X124055809Y-98414285D02*
X124017714Y-98452380D01*
X124017714Y-98452380D02*
X123941523Y-98490475D01*
X123941523Y-98490475D02*
X123789142Y-98528571D01*
X123789142Y-98528571D02*
X123598666Y-98528571D01*
X123598666Y-98528571D02*
X123446285Y-98490475D01*
X123446285Y-98490475D02*
X123370095Y-98452380D01*
X123370095Y-98452380D02*
X123332000Y-98414285D01*
X123332000Y-98414285D02*
X123293904Y-98338094D01*
X124093904Y-97309523D02*
X124093904Y-97766666D01*
X124093904Y-97538094D02*
X123293904Y-97538094D01*
X123293904Y-97538094D02*
X123408190Y-97614285D01*
X123408190Y-97614285D02*
X123484380Y-97690475D01*
X123484380Y-97690475D02*
X123522476Y-97766666D01*
%TO.C,C103*%
X138754762Y-96917714D02*
X138716666Y-96955809D01*
X138716666Y-96955809D02*
X138602381Y-96993904D01*
X138602381Y-96993904D02*
X138526190Y-96993904D01*
X138526190Y-96993904D02*
X138411904Y-96955809D01*
X138411904Y-96955809D02*
X138335714Y-96879619D01*
X138335714Y-96879619D02*
X138297619Y-96803428D01*
X138297619Y-96803428D02*
X138259523Y-96651047D01*
X138259523Y-96651047D02*
X138259523Y-96536761D01*
X138259523Y-96536761D02*
X138297619Y-96384380D01*
X138297619Y-96384380D02*
X138335714Y-96308190D01*
X138335714Y-96308190D02*
X138411904Y-96232000D01*
X138411904Y-96232000D02*
X138526190Y-96193904D01*
X138526190Y-96193904D02*
X138602381Y-96193904D01*
X138602381Y-96193904D02*
X138716666Y-96232000D01*
X138716666Y-96232000D02*
X138754762Y-96270095D01*
X139516666Y-96993904D02*
X139059523Y-96993904D01*
X139288095Y-96993904D02*
X139288095Y-96193904D01*
X139288095Y-96193904D02*
X139211904Y-96308190D01*
X139211904Y-96308190D02*
X139135714Y-96384380D01*
X139135714Y-96384380D02*
X139059523Y-96422476D01*
X140011905Y-96193904D02*
X140088095Y-96193904D01*
X140088095Y-96193904D02*
X140164286Y-96232000D01*
X140164286Y-96232000D02*
X140202381Y-96270095D01*
X140202381Y-96270095D02*
X140240476Y-96346285D01*
X140240476Y-96346285D02*
X140278571Y-96498666D01*
X140278571Y-96498666D02*
X140278571Y-96689142D01*
X140278571Y-96689142D02*
X140240476Y-96841523D01*
X140240476Y-96841523D02*
X140202381Y-96917714D01*
X140202381Y-96917714D02*
X140164286Y-96955809D01*
X140164286Y-96955809D02*
X140088095Y-96993904D01*
X140088095Y-96993904D02*
X140011905Y-96993904D01*
X140011905Y-96993904D02*
X139935714Y-96955809D01*
X139935714Y-96955809D02*
X139897619Y-96917714D01*
X139897619Y-96917714D02*
X139859524Y-96841523D01*
X139859524Y-96841523D02*
X139821428Y-96689142D01*
X139821428Y-96689142D02*
X139821428Y-96498666D01*
X139821428Y-96498666D02*
X139859524Y-96346285D01*
X139859524Y-96346285D02*
X139897619Y-96270095D01*
X139897619Y-96270095D02*
X139935714Y-96232000D01*
X139935714Y-96232000D02*
X140011905Y-96193904D01*
X140545238Y-96193904D02*
X141040476Y-96193904D01*
X141040476Y-96193904D02*
X140773810Y-96498666D01*
X140773810Y-96498666D02*
X140888095Y-96498666D01*
X140888095Y-96498666D02*
X140964286Y-96536761D01*
X140964286Y-96536761D02*
X141002381Y-96574857D01*
X141002381Y-96574857D02*
X141040476Y-96651047D01*
X141040476Y-96651047D02*
X141040476Y-96841523D01*
X141040476Y-96841523D02*
X141002381Y-96917714D01*
X141002381Y-96917714D02*
X140964286Y-96955809D01*
X140964286Y-96955809D02*
X140888095Y-96993904D01*
X140888095Y-96993904D02*
X140659524Y-96993904D01*
X140659524Y-96993904D02*
X140583333Y-96955809D01*
X140583333Y-96955809D02*
X140545238Y-96917714D01*
D12*
%TO.C,J102*%
X124267380Y-83895237D02*
X125267380Y-83561904D01*
X125267380Y-83561904D02*
X124267380Y-83228571D01*
X125267380Y-82895237D02*
X124267380Y-82895237D01*
X125267380Y-82419047D02*
X124267380Y-82419047D01*
X124267380Y-82419047D02*
X125267380Y-81847619D01*
X125267380Y-81847619D02*
X124267380Y-81847619D01*
X126104762Y-93767380D02*
X126104762Y-92767380D01*
X126104762Y-92767380D02*
X126342857Y-92767380D01*
X126342857Y-92767380D02*
X126485714Y-92815000D01*
X126485714Y-92815000D02*
X126580952Y-92910238D01*
X126580952Y-92910238D02*
X126628571Y-93005476D01*
X126628571Y-93005476D02*
X126676190Y-93195952D01*
X126676190Y-93195952D02*
X126676190Y-93338809D01*
X126676190Y-93338809D02*
X126628571Y-93529285D01*
X126628571Y-93529285D02*
X126580952Y-93624523D01*
X126580952Y-93624523D02*
X126485714Y-93719761D01*
X126485714Y-93719761D02*
X126342857Y-93767380D01*
X126342857Y-93767380D02*
X126104762Y-93767380D01*
X127676190Y-93767380D02*
X127342857Y-93291190D01*
X127104762Y-93767380D02*
X127104762Y-92767380D01*
X127104762Y-92767380D02*
X127485714Y-92767380D01*
X127485714Y-92767380D02*
X127580952Y-92815000D01*
X127580952Y-92815000D02*
X127628571Y-92862619D01*
X127628571Y-92862619D02*
X127676190Y-92957857D01*
X127676190Y-92957857D02*
X127676190Y-93100714D01*
X127676190Y-93100714D02*
X127628571Y-93195952D01*
X127628571Y-93195952D02*
X127580952Y-93243571D01*
X127580952Y-93243571D02*
X127485714Y-93291190D01*
X127485714Y-93291190D02*
X127104762Y-93291190D01*
X127961905Y-92767380D02*
X128295238Y-93767380D01*
X128295238Y-93767380D02*
X128628571Y-92767380D01*
X129104762Y-93195952D02*
X129009524Y-93148333D01*
X129009524Y-93148333D02*
X128961905Y-93100714D01*
X128961905Y-93100714D02*
X128914286Y-93005476D01*
X128914286Y-93005476D02*
X128914286Y-92957857D01*
X128914286Y-92957857D02*
X128961905Y-92862619D01*
X128961905Y-92862619D02*
X129009524Y-92815000D01*
X129009524Y-92815000D02*
X129104762Y-92767380D01*
X129104762Y-92767380D02*
X129295238Y-92767380D01*
X129295238Y-92767380D02*
X129390476Y-92815000D01*
X129390476Y-92815000D02*
X129438095Y-92862619D01*
X129438095Y-92862619D02*
X129485714Y-92957857D01*
X129485714Y-92957857D02*
X129485714Y-93005476D01*
X129485714Y-93005476D02*
X129438095Y-93100714D01*
X129438095Y-93100714D02*
X129390476Y-93148333D01*
X129390476Y-93148333D02*
X129295238Y-93195952D01*
X129295238Y-93195952D02*
X129104762Y-93195952D01*
X129104762Y-93195952D02*
X129009524Y-93243571D01*
X129009524Y-93243571D02*
X128961905Y-93291190D01*
X128961905Y-93291190D02*
X128914286Y-93386428D01*
X128914286Y-93386428D02*
X128914286Y-93576904D01*
X128914286Y-93576904D02*
X128961905Y-93672142D01*
X128961905Y-93672142D02*
X129009524Y-93719761D01*
X129009524Y-93719761D02*
X129104762Y-93767380D01*
X129104762Y-93767380D02*
X129295238Y-93767380D01*
X129295238Y-93767380D02*
X129390476Y-93719761D01*
X129390476Y-93719761D02*
X129438095Y-93672142D01*
X129438095Y-93672142D02*
X129485714Y-93576904D01*
X129485714Y-93576904D02*
X129485714Y-93386428D01*
X129485714Y-93386428D02*
X129438095Y-93291190D01*
X129438095Y-93291190D02*
X129390476Y-93243571D01*
X129390476Y-93243571D02*
X129295238Y-93195952D01*
X130057143Y-93195952D02*
X129961905Y-93148333D01*
X129961905Y-93148333D02*
X129914286Y-93100714D01*
X129914286Y-93100714D02*
X129866667Y-93005476D01*
X129866667Y-93005476D02*
X129866667Y-92957857D01*
X129866667Y-92957857D02*
X129914286Y-92862619D01*
X129914286Y-92862619D02*
X129961905Y-92815000D01*
X129961905Y-92815000D02*
X130057143Y-92767380D01*
X130057143Y-92767380D02*
X130247619Y-92767380D01*
X130247619Y-92767380D02*
X130342857Y-92815000D01*
X130342857Y-92815000D02*
X130390476Y-92862619D01*
X130390476Y-92862619D02*
X130438095Y-92957857D01*
X130438095Y-92957857D02*
X130438095Y-93005476D01*
X130438095Y-93005476D02*
X130390476Y-93100714D01*
X130390476Y-93100714D02*
X130342857Y-93148333D01*
X130342857Y-93148333D02*
X130247619Y-93195952D01*
X130247619Y-93195952D02*
X130057143Y-93195952D01*
X130057143Y-93195952D02*
X129961905Y-93243571D01*
X129961905Y-93243571D02*
X129914286Y-93291190D01*
X129914286Y-93291190D02*
X129866667Y-93386428D01*
X129866667Y-93386428D02*
X129866667Y-93576904D01*
X129866667Y-93576904D02*
X129914286Y-93672142D01*
X129914286Y-93672142D02*
X129961905Y-93719761D01*
X129961905Y-93719761D02*
X130057143Y-93767380D01*
X130057143Y-93767380D02*
X130247619Y-93767380D01*
X130247619Y-93767380D02*
X130342857Y-93719761D01*
X130342857Y-93719761D02*
X130390476Y-93672142D01*
X130390476Y-93672142D02*
X130438095Y-93576904D01*
X130438095Y-93576904D02*
X130438095Y-93386428D01*
X130438095Y-93386428D02*
X130390476Y-93291190D01*
X130390476Y-93291190D02*
X130342857Y-93243571D01*
X130342857Y-93243571D02*
X130247619Y-93195952D01*
X130771429Y-92767380D02*
X131438095Y-92767380D01*
X131438095Y-92767380D02*
X131009524Y-93767380D01*
X132247619Y-93100714D02*
X132247619Y-93767380D01*
X132009524Y-92719761D02*
X131771429Y-93434047D01*
X131771429Y-93434047D02*
X132390476Y-93434047D01*
X136615000Y-83461904D02*
X136567380Y-83557142D01*
X136567380Y-83557142D02*
X136567380Y-83699999D01*
X136567380Y-83699999D02*
X136615000Y-83842856D01*
X136615000Y-83842856D02*
X136710238Y-83938094D01*
X136710238Y-83938094D02*
X136805476Y-83985713D01*
X136805476Y-83985713D02*
X136995952Y-84033332D01*
X136995952Y-84033332D02*
X137138809Y-84033332D01*
X137138809Y-84033332D02*
X137329285Y-83985713D01*
X137329285Y-83985713D02*
X137424523Y-83938094D01*
X137424523Y-83938094D02*
X137519761Y-83842856D01*
X137519761Y-83842856D02*
X137567380Y-83699999D01*
X137567380Y-83699999D02*
X137567380Y-83604761D01*
X137567380Y-83604761D02*
X137519761Y-83461904D01*
X137519761Y-83461904D02*
X137472142Y-83414285D01*
X137472142Y-83414285D02*
X137138809Y-83414285D01*
X137138809Y-83414285D02*
X137138809Y-83604761D01*
X137567380Y-82985713D02*
X136567380Y-82985713D01*
X136567380Y-82985713D02*
X137567380Y-82414285D01*
X137567380Y-82414285D02*
X136567380Y-82414285D01*
X137567380Y-81938094D02*
X136567380Y-81938094D01*
X136567380Y-81938094D02*
X136567380Y-81699999D01*
X136567380Y-81699999D02*
X136615000Y-81557142D01*
X136615000Y-81557142D02*
X136710238Y-81461904D01*
X136710238Y-81461904D02*
X136805476Y-81414285D01*
X136805476Y-81414285D02*
X136995952Y-81366666D01*
X136995952Y-81366666D02*
X137138809Y-81366666D01*
X137138809Y-81366666D02*
X137329285Y-81414285D01*
X137329285Y-81414285D02*
X137424523Y-81461904D01*
X137424523Y-81461904D02*
X137519761Y-81557142D01*
X137519761Y-81557142D02*
X137567380Y-81699999D01*
X137567380Y-81699999D02*
X137567380Y-81938094D01*
X121100000Y-91267380D02*
X121100000Y-90267380D01*
X121100000Y-90267380D02*
X121480952Y-90267380D01*
X121480952Y-90267380D02*
X121576190Y-90315000D01*
X121576190Y-90315000D02*
X121623809Y-90362619D01*
X121623809Y-90362619D02*
X121671428Y-90457857D01*
X121671428Y-90457857D02*
X121671428Y-90600714D01*
X121671428Y-90600714D02*
X121623809Y-90695952D01*
X121623809Y-90695952D02*
X121576190Y-90743571D01*
X121576190Y-90743571D02*
X121480952Y-90791190D01*
X121480952Y-90791190D02*
X121100000Y-90791190D01*
X122100000Y-91267380D02*
X122100000Y-90267380D01*
X122100000Y-90743571D02*
X122671428Y-90743571D01*
X122671428Y-91267380D02*
X122671428Y-90267380D01*
X123385714Y-91600714D02*
X123385714Y-90172142D01*
X124100000Y-91267380D02*
X124100000Y-90267380D01*
X124576190Y-91267380D02*
X124576190Y-90267380D01*
X124576190Y-90267380D02*
X125147618Y-91267380D01*
X125147618Y-91267380D02*
X125147618Y-90267380D01*
X125576190Y-90362619D02*
X125623809Y-90315000D01*
X125623809Y-90315000D02*
X125719047Y-90267380D01*
X125719047Y-90267380D02*
X125957142Y-90267380D01*
X125957142Y-90267380D02*
X126052380Y-90315000D01*
X126052380Y-90315000D02*
X126099999Y-90362619D01*
X126099999Y-90362619D02*
X126147618Y-90457857D01*
X126147618Y-90457857D02*
X126147618Y-90553095D01*
X126147618Y-90553095D02*
X126099999Y-90695952D01*
X126099999Y-90695952D02*
X125528571Y-91267380D01*
X125528571Y-91267380D02*
X126147618Y-91267380D01*
X139467380Y-108504761D02*
X138467380Y-108504761D01*
X138467380Y-108504761D02*
X138467380Y-108123809D01*
X138467380Y-108123809D02*
X138515000Y-108028571D01*
X138515000Y-108028571D02*
X138562619Y-107980952D01*
X138562619Y-107980952D02*
X138657857Y-107933333D01*
X138657857Y-107933333D02*
X138800714Y-107933333D01*
X138800714Y-107933333D02*
X138895952Y-107980952D01*
X138895952Y-107980952D02*
X138943571Y-108028571D01*
X138943571Y-108028571D02*
X138991190Y-108123809D01*
X138991190Y-108123809D02*
X138991190Y-108504761D01*
X139467380Y-107504761D02*
X138467380Y-107504761D01*
X138943571Y-107504761D02*
X138943571Y-106933333D01*
X139467380Y-106933333D02*
X138467380Y-106933333D01*
X138419761Y-105742857D02*
X139705476Y-106599999D01*
X138943571Y-105409523D02*
X138943571Y-105076190D01*
X139467380Y-104933333D02*
X139467380Y-105409523D01*
X139467380Y-105409523D02*
X138467380Y-105409523D01*
X138467380Y-105409523D02*
X138467380Y-104933333D01*
X139467380Y-104504761D02*
X138467380Y-104504761D01*
X138467380Y-104504761D02*
X139467380Y-103933333D01*
X139467380Y-103933333D02*
X138467380Y-103933333D01*
X139800714Y-103219047D02*
X138372142Y-103219047D01*
X139467380Y-102504761D02*
X138467380Y-102504761D01*
X138467380Y-102504761D02*
X138467380Y-102123809D01*
X138467380Y-102123809D02*
X138515000Y-102028571D01*
X138515000Y-102028571D02*
X138562619Y-101980952D01*
X138562619Y-101980952D02*
X138657857Y-101933333D01*
X138657857Y-101933333D02*
X138800714Y-101933333D01*
X138800714Y-101933333D02*
X138895952Y-101980952D01*
X138895952Y-101980952D02*
X138943571Y-102028571D01*
X138943571Y-102028571D02*
X138991190Y-102123809D01*
X138991190Y-102123809D02*
X138991190Y-102504761D01*
X138467380Y-101599999D02*
X139467380Y-101361904D01*
X139467380Y-101361904D02*
X138753095Y-101171428D01*
X138753095Y-101171428D02*
X139467380Y-100980952D01*
X139467380Y-100980952D02*
X138467380Y-100742857D01*
X139467380Y-100361904D02*
X138467380Y-100361904D01*
X138467380Y-100361904D02*
X139181666Y-100028571D01*
X139181666Y-100028571D02*
X138467380Y-99695238D01*
X138467380Y-99695238D02*
X139467380Y-99695238D01*
X128190476Y-87367380D02*
X128190476Y-86367380D01*
X128190476Y-86367380D02*
X128571428Y-86367380D01*
X128571428Y-86367380D02*
X128666666Y-86415000D01*
X128666666Y-86415000D02*
X128714285Y-86462619D01*
X128714285Y-86462619D02*
X128761904Y-86557857D01*
X128761904Y-86557857D02*
X128761904Y-86700714D01*
X128761904Y-86700714D02*
X128714285Y-86795952D01*
X128714285Y-86795952D02*
X128666666Y-86843571D01*
X128666666Y-86843571D02*
X128571428Y-86891190D01*
X128571428Y-86891190D02*
X128190476Y-86891190D01*
X129380952Y-86367380D02*
X129571428Y-86367380D01*
X129571428Y-86367380D02*
X129666666Y-86415000D01*
X129666666Y-86415000D02*
X129761904Y-86510238D01*
X129761904Y-86510238D02*
X129809523Y-86700714D01*
X129809523Y-86700714D02*
X129809523Y-87034047D01*
X129809523Y-87034047D02*
X129761904Y-87224523D01*
X129761904Y-87224523D02*
X129666666Y-87319761D01*
X129666666Y-87319761D02*
X129571428Y-87367380D01*
X129571428Y-87367380D02*
X129380952Y-87367380D01*
X129380952Y-87367380D02*
X129285714Y-87319761D01*
X129285714Y-87319761D02*
X129190476Y-87224523D01*
X129190476Y-87224523D02*
X129142857Y-87034047D01*
X129142857Y-87034047D02*
X129142857Y-86700714D01*
X129142857Y-86700714D02*
X129190476Y-86510238D01*
X129190476Y-86510238D02*
X129285714Y-86415000D01*
X129285714Y-86415000D02*
X129380952Y-86367380D01*
X130142857Y-86367380D02*
X130380952Y-87367380D01*
X130380952Y-87367380D02*
X130571428Y-86653095D01*
X130571428Y-86653095D02*
X130761904Y-87367380D01*
X130761904Y-87367380D02*
X131000000Y-86367380D01*
X131380952Y-86843571D02*
X131714285Y-86843571D01*
X131857142Y-87367380D02*
X131380952Y-87367380D01*
X131380952Y-87367380D02*
X131380952Y-86367380D01*
X131380952Y-86367380D02*
X131857142Y-86367380D01*
X132857142Y-87367380D02*
X132523809Y-86891190D01*
X132285714Y-87367380D02*
X132285714Y-86367380D01*
X132285714Y-86367380D02*
X132666666Y-86367380D01*
X132666666Y-86367380D02*
X132761904Y-86415000D01*
X132761904Y-86415000D02*
X132809523Y-86462619D01*
X132809523Y-86462619D02*
X132857142Y-86557857D01*
X132857142Y-86557857D02*
X132857142Y-86700714D01*
X132857142Y-86700714D02*
X132809523Y-86795952D01*
X132809523Y-86795952D02*
X132761904Y-86843571D01*
X132761904Y-86843571D02*
X132666666Y-86891190D01*
X132666666Y-86891190D02*
X132285714Y-86891190D01*
X123667380Y-111776190D02*
X123667380Y-111585714D01*
X123667380Y-111585714D02*
X123715000Y-111490476D01*
X123715000Y-111490476D02*
X123810238Y-111395238D01*
X123810238Y-111395238D02*
X124000714Y-111347619D01*
X124000714Y-111347619D02*
X124334047Y-111347619D01*
X124334047Y-111347619D02*
X124524523Y-111395238D01*
X124524523Y-111395238D02*
X124619761Y-111490476D01*
X124619761Y-111490476D02*
X124667380Y-111585714D01*
X124667380Y-111585714D02*
X124667380Y-111776190D01*
X124667380Y-111776190D02*
X124619761Y-111871428D01*
X124619761Y-111871428D02*
X124524523Y-111966666D01*
X124524523Y-111966666D02*
X124334047Y-112014285D01*
X124334047Y-112014285D02*
X124000714Y-112014285D01*
X124000714Y-112014285D02*
X123810238Y-111966666D01*
X123810238Y-111966666D02*
X123715000Y-111871428D01*
X123715000Y-111871428D02*
X123667380Y-111776190D01*
X123667380Y-110919047D02*
X124476904Y-110919047D01*
X124476904Y-110919047D02*
X124572142Y-110871428D01*
X124572142Y-110871428D02*
X124619761Y-110823809D01*
X124619761Y-110823809D02*
X124667380Y-110728571D01*
X124667380Y-110728571D02*
X124667380Y-110538095D01*
X124667380Y-110538095D02*
X124619761Y-110442857D01*
X124619761Y-110442857D02*
X124572142Y-110395238D01*
X124572142Y-110395238D02*
X124476904Y-110347619D01*
X124476904Y-110347619D02*
X123667380Y-110347619D01*
X123667380Y-110014285D02*
X123667380Y-109442857D01*
X124667380Y-109728571D02*
X123667380Y-109728571D01*
X124667380Y-108585714D02*
X124667380Y-109157142D01*
X124667380Y-108871428D02*
X123667380Y-108871428D01*
X123667380Y-108871428D02*
X123810238Y-108966666D01*
X123810238Y-108966666D02*
X123905476Y-109061904D01*
X123905476Y-109061904D02*
X123953095Y-109157142D01*
X121147619Y-87743571D02*
X121480952Y-87743571D01*
X121623809Y-88267380D02*
X121147619Y-88267380D01*
X121147619Y-88267380D02*
X121147619Y-87267380D01*
X121147619Y-87267380D02*
X121623809Y-87267380D01*
X122052381Y-88267380D02*
X122052381Y-87267380D01*
X122052381Y-87267380D02*
X122623809Y-88267380D01*
X122623809Y-88267380D02*
X122623809Y-87267380D01*
X123338095Y-88600714D02*
X123338095Y-87172142D01*
X124052381Y-88267380D02*
X124052381Y-87267380D01*
X124528571Y-88267380D02*
X124528571Y-87267380D01*
X124528571Y-87267380D02*
X125099999Y-88267380D01*
X125099999Y-88267380D02*
X125099999Y-87267380D01*
X126099999Y-88267380D02*
X125528571Y-88267380D01*
X125814285Y-88267380D02*
X125814285Y-87267380D01*
X125814285Y-87267380D02*
X125719047Y-87410238D01*
X125719047Y-87410238D02*
X125623809Y-87505476D01*
X125623809Y-87505476D02*
X125528571Y-87553095D01*
X135867380Y-111776190D02*
X135867380Y-111585714D01*
X135867380Y-111585714D02*
X135915000Y-111490476D01*
X135915000Y-111490476D02*
X136010238Y-111395238D01*
X136010238Y-111395238D02*
X136200714Y-111347619D01*
X136200714Y-111347619D02*
X136534047Y-111347619D01*
X136534047Y-111347619D02*
X136724523Y-111395238D01*
X136724523Y-111395238D02*
X136819761Y-111490476D01*
X136819761Y-111490476D02*
X136867380Y-111585714D01*
X136867380Y-111585714D02*
X136867380Y-111776190D01*
X136867380Y-111776190D02*
X136819761Y-111871428D01*
X136819761Y-111871428D02*
X136724523Y-111966666D01*
X136724523Y-111966666D02*
X136534047Y-112014285D01*
X136534047Y-112014285D02*
X136200714Y-112014285D01*
X136200714Y-112014285D02*
X136010238Y-111966666D01*
X136010238Y-111966666D02*
X135915000Y-111871428D01*
X135915000Y-111871428D02*
X135867380Y-111776190D01*
X135867380Y-110919047D02*
X136676904Y-110919047D01*
X136676904Y-110919047D02*
X136772142Y-110871428D01*
X136772142Y-110871428D02*
X136819761Y-110823809D01*
X136819761Y-110823809D02*
X136867380Y-110728571D01*
X136867380Y-110728571D02*
X136867380Y-110538095D01*
X136867380Y-110538095D02*
X136819761Y-110442857D01*
X136819761Y-110442857D02*
X136772142Y-110395238D01*
X136772142Y-110395238D02*
X136676904Y-110347619D01*
X136676904Y-110347619D02*
X135867380Y-110347619D01*
X135867380Y-110014285D02*
X135867380Y-109442857D01*
X136867380Y-109728571D02*
X135867380Y-109728571D01*
X135962619Y-109157142D02*
X135915000Y-109109523D01*
X135915000Y-109109523D02*
X135867380Y-109014285D01*
X135867380Y-109014285D02*
X135867380Y-108776190D01*
X135867380Y-108776190D02*
X135915000Y-108680952D01*
X135915000Y-108680952D02*
X135962619Y-108633333D01*
X135962619Y-108633333D02*
X136057857Y-108585714D01*
X136057857Y-108585714D02*
X136153095Y-108585714D01*
X136153095Y-108585714D02*
X136295952Y-108633333D01*
X136295952Y-108633333D02*
X136867380Y-109204761D01*
X136867380Y-109204761D02*
X136867380Y-108585714D01*
X128238095Y-104967380D02*
X128238095Y-103967380D01*
X128238095Y-103967380D02*
X128571428Y-104681666D01*
X128571428Y-104681666D02*
X128904761Y-103967380D01*
X128904761Y-103967380D02*
X128904761Y-104967380D01*
X129571428Y-103967380D02*
X129761904Y-103967380D01*
X129761904Y-103967380D02*
X129857142Y-104015000D01*
X129857142Y-104015000D02*
X129952380Y-104110238D01*
X129952380Y-104110238D02*
X129999999Y-104300714D01*
X129999999Y-104300714D02*
X129999999Y-104634047D01*
X129999999Y-104634047D02*
X129952380Y-104824523D01*
X129952380Y-104824523D02*
X129857142Y-104919761D01*
X129857142Y-104919761D02*
X129761904Y-104967380D01*
X129761904Y-104967380D02*
X129571428Y-104967380D01*
X129571428Y-104967380D02*
X129476190Y-104919761D01*
X129476190Y-104919761D02*
X129380952Y-104824523D01*
X129380952Y-104824523D02*
X129333333Y-104634047D01*
X129333333Y-104634047D02*
X129333333Y-104300714D01*
X129333333Y-104300714D02*
X129380952Y-104110238D01*
X129380952Y-104110238D02*
X129476190Y-104015000D01*
X129476190Y-104015000D02*
X129571428Y-103967380D01*
X130285714Y-103967380D02*
X130857142Y-103967380D01*
X130571428Y-104967380D02*
X130571428Y-103967380D01*
X131380952Y-103967380D02*
X131571428Y-103967380D01*
X131571428Y-103967380D02*
X131666666Y-104015000D01*
X131666666Y-104015000D02*
X131761904Y-104110238D01*
X131761904Y-104110238D02*
X131809523Y-104300714D01*
X131809523Y-104300714D02*
X131809523Y-104634047D01*
X131809523Y-104634047D02*
X131761904Y-104824523D01*
X131761904Y-104824523D02*
X131666666Y-104919761D01*
X131666666Y-104919761D02*
X131571428Y-104967380D01*
X131571428Y-104967380D02*
X131380952Y-104967380D01*
X131380952Y-104967380D02*
X131285714Y-104919761D01*
X131285714Y-104919761D02*
X131190476Y-104824523D01*
X131190476Y-104824523D02*
X131142857Y-104634047D01*
X131142857Y-104634047D02*
X131142857Y-104300714D01*
X131142857Y-104300714D02*
X131190476Y-104110238D01*
X131190476Y-104110238D02*
X131285714Y-104015000D01*
X131285714Y-104015000D02*
X131380952Y-103967380D01*
X132809523Y-104967380D02*
X132476190Y-104491190D01*
X132238095Y-104967380D02*
X132238095Y-103967380D01*
X132238095Y-103967380D02*
X132619047Y-103967380D01*
X132619047Y-103967380D02*
X132714285Y-104015000D01*
X132714285Y-104015000D02*
X132761904Y-104062619D01*
X132761904Y-104062619D02*
X132809523Y-104157857D01*
X132809523Y-104157857D02*
X132809523Y-104300714D01*
X132809523Y-104300714D02*
X132761904Y-104395952D01*
X132761904Y-104395952D02*
X132714285Y-104443571D01*
X132714285Y-104443571D02*
X132619047Y-104491190D01*
X132619047Y-104491190D02*
X132238095Y-104491190D01*
D11*
%TO.C,R102*%
X121593904Y-102895237D02*
X121212952Y-103161904D01*
X121593904Y-103352380D02*
X120793904Y-103352380D01*
X120793904Y-103352380D02*
X120793904Y-103047618D01*
X120793904Y-103047618D02*
X120832000Y-102971428D01*
X120832000Y-102971428D02*
X120870095Y-102933333D01*
X120870095Y-102933333D02*
X120946285Y-102895237D01*
X120946285Y-102895237D02*
X121060571Y-102895237D01*
X121060571Y-102895237D02*
X121136761Y-102933333D01*
X121136761Y-102933333D02*
X121174857Y-102971428D01*
X121174857Y-102971428D02*
X121212952Y-103047618D01*
X121212952Y-103047618D02*
X121212952Y-103352380D01*
X121593904Y-102133333D02*
X121593904Y-102590476D01*
X121593904Y-102361904D02*
X120793904Y-102361904D01*
X120793904Y-102361904D02*
X120908190Y-102438095D01*
X120908190Y-102438095D02*
X120984380Y-102514285D01*
X120984380Y-102514285D02*
X121022476Y-102590476D01*
X120793904Y-101638094D02*
X120793904Y-101561904D01*
X120793904Y-101561904D02*
X120832000Y-101485713D01*
X120832000Y-101485713D02*
X120870095Y-101447618D01*
X120870095Y-101447618D02*
X120946285Y-101409523D01*
X120946285Y-101409523D02*
X121098666Y-101371428D01*
X121098666Y-101371428D02*
X121289142Y-101371428D01*
X121289142Y-101371428D02*
X121441523Y-101409523D01*
X121441523Y-101409523D02*
X121517714Y-101447618D01*
X121517714Y-101447618D02*
X121555809Y-101485713D01*
X121555809Y-101485713D02*
X121593904Y-101561904D01*
X121593904Y-101561904D02*
X121593904Y-101638094D01*
X121593904Y-101638094D02*
X121555809Y-101714285D01*
X121555809Y-101714285D02*
X121517714Y-101752380D01*
X121517714Y-101752380D02*
X121441523Y-101790475D01*
X121441523Y-101790475D02*
X121289142Y-101828571D01*
X121289142Y-101828571D02*
X121098666Y-101828571D01*
X121098666Y-101828571D02*
X120946285Y-101790475D01*
X120946285Y-101790475D02*
X120870095Y-101752380D01*
X120870095Y-101752380D02*
X120832000Y-101714285D01*
X120832000Y-101714285D02*
X120793904Y-101638094D01*
X120870095Y-101066666D02*
X120832000Y-101028570D01*
X120832000Y-101028570D02*
X120793904Y-100952380D01*
X120793904Y-100952380D02*
X120793904Y-100761904D01*
X120793904Y-100761904D02*
X120832000Y-100685713D01*
X120832000Y-100685713D02*
X120870095Y-100647618D01*
X120870095Y-100647618D02*
X120946285Y-100609523D01*
X120946285Y-100609523D02*
X121022476Y-100609523D01*
X121022476Y-100609523D02*
X121136761Y-100647618D01*
X121136761Y-100647618D02*
X121593904Y-101104761D01*
X121593904Y-101104761D02*
X121593904Y-100609523D01*
%TO.C,J105*%
X143290000Y-107010000D02*
X141960000Y-107010000D01*
X143290000Y-105680000D02*
X143290000Y-107010000D01*
X143290000Y-104410000D02*
X143290000Y-99270000D01*
X143290000Y-104410000D02*
X140630000Y-104410000D01*
X143290000Y-99270000D02*
X140630000Y-99270000D01*
X140630000Y-104410000D02*
X140630000Y-99270000D01*
%TO.C,U101*%
X129950000Y-94040000D02*
X126300000Y-94040000D01*
X129950000Y-94040000D02*
X132150000Y-94040000D01*
X129950000Y-99560000D02*
X127750000Y-99560000D01*
X129950000Y-99560000D02*
X132150000Y-99560000D01*
%TO.C,J104*%
X117770000Y-94190000D02*
X119100000Y-94190000D01*
X117770000Y-95520000D02*
X117770000Y-94190000D01*
X117770000Y-96790000D02*
X117770000Y-107010000D01*
X117770000Y-96790000D02*
X120430000Y-96790000D01*
X117770000Y-107010000D02*
X120430000Y-107010000D01*
X120430000Y-96790000D02*
X120430000Y-107010000D01*
%TO.C,C101*%
X135690000Y-95640580D02*
X135690000Y-95359420D01*
X136710000Y-95640580D02*
X136710000Y-95359420D01*
%TO.C,J103*%
X125600000Y-75700000D02*
X135600000Y-75700000D01*
X125600000Y-85700000D02*
X135600000Y-85700000D01*
X125600000Y-86000000D02*
X125600000Y-75700000D01*
X135600000Y-75700000D02*
X135600000Y-86000000D01*
X135600000Y-75700000D02*
X136200000Y-75700000D01*
X135600000Y-86000000D02*
X125600000Y-86000000D01*
X136200000Y-75700000D02*
X136200000Y-86000000D01*
X136200000Y-86000000D02*
X135600000Y-86000000D01*
%TO.C,C104*%
X136525000Y-92459888D02*
X136525000Y-91959888D01*
X136275000Y-92209888D02*
X136775000Y-92209888D01*
X135420000Y-89655113D02*
X136960000Y-89655113D01*
X139040000Y-89655113D02*
X140580000Y-89655113D01*
X135420000Y-89615113D02*
X136960000Y-89615113D01*
X139040000Y-89615113D02*
X140580000Y-89615113D01*
X135421000Y-89575113D02*
X136960000Y-89575113D01*
X139040000Y-89575113D02*
X140579000Y-89575113D01*
X135422000Y-89535113D02*
X136960000Y-89535113D01*
X139040000Y-89535113D02*
X140578000Y-89535113D01*
X135424000Y-89495113D02*
X136960000Y-89495113D01*
X139040000Y-89495113D02*
X140576000Y-89495113D01*
X135427000Y-89455113D02*
X136960000Y-89455113D01*
X139040000Y-89455113D02*
X140573000Y-89455113D01*
X135431000Y-89415113D02*
X136960000Y-89415113D01*
X139040000Y-89415113D02*
X140569000Y-89415113D01*
X135435000Y-89375113D02*
X136960000Y-89375113D01*
X139040000Y-89375113D02*
X140565000Y-89375113D01*
X135439000Y-89335113D02*
X136960000Y-89335113D01*
X139040000Y-89335113D02*
X140561000Y-89335113D01*
X135444000Y-89295113D02*
X136960000Y-89295113D01*
X139040000Y-89295113D02*
X140556000Y-89295113D01*
X135450000Y-89255113D02*
X136960000Y-89255113D01*
X139040000Y-89255113D02*
X140550000Y-89255113D01*
X135457000Y-89215113D02*
X136960000Y-89215113D01*
X139040000Y-89215113D02*
X140543000Y-89215113D01*
X135464000Y-89175113D02*
X136960000Y-89175113D01*
X139040000Y-89175113D02*
X140536000Y-89175113D01*
X135472000Y-89135113D02*
X136960000Y-89135113D01*
X139040000Y-89135113D02*
X140528000Y-89135113D01*
X135480000Y-89095113D02*
X136960000Y-89095113D01*
X139040000Y-89095113D02*
X140520000Y-89095113D01*
X135489000Y-89055113D02*
X136960000Y-89055113D01*
X139040000Y-89055113D02*
X140511000Y-89055113D01*
X135499000Y-89015113D02*
X136960000Y-89015113D01*
X139040000Y-89015113D02*
X140501000Y-89015113D01*
X135509000Y-88975113D02*
X136960000Y-88975113D01*
X139040000Y-88975113D02*
X140491000Y-88975113D01*
X135520000Y-88934113D02*
X136960000Y-88934113D01*
X139040000Y-88934113D02*
X140480000Y-88934113D01*
X135532000Y-88894113D02*
X136960000Y-88894113D01*
X139040000Y-88894113D02*
X140468000Y-88894113D01*
X135545000Y-88854113D02*
X136960000Y-88854113D01*
X139040000Y-88854113D02*
X140455000Y-88854113D01*
X135558000Y-88814113D02*
X136960000Y-88814113D01*
X139040000Y-88814113D02*
X140442000Y-88814113D01*
X135572000Y-88774113D02*
X136960000Y-88774113D01*
X139040000Y-88774113D02*
X140428000Y-88774113D01*
X135586000Y-88734113D02*
X136960000Y-88734113D01*
X139040000Y-88734113D02*
X140414000Y-88734113D01*
X135602000Y-88694113D02*
X136960000Y-88694113D01*
X139040000Y-88694113D02*
X140398000Y-88694113D01*
X135618000Y-88654113D02*
X136960000Y-88654113D01*
X139040000Y-88654113D02*
X140382000Y-88654113D01*
X135635000Y-88614113D02*
X136960000Y-88614113D01*
X139040000Y-88614113D02*
X140365000Y-88614113D01*
X135652000Y-88574113D02*
X136960000Y-88574113D01*
X139040000Y-88574113D02*
X140348000Y-88574113D01*
X135671000Y-88534113D02*
X136960000Y-88534113D01*
X139040000Y-88534113D02*
X140329000Y-88534113D01*
X135690000Y-88494113D02*
X136960000Y-88494113D01*
X139040000Y-88494113D02*
X140310000Y-88494113D01*
X135710000Y-88454113D02*
X136960000Y-88454113D01*
X139040000Y-88454113D02*
X140290000Y-88454113D01*
X135732000Y-88414113D02*
X136960000Y-88414113D01*
X139040000Y-88414113D02*
X140268000Y-88414113D01*
X135753000Y-88374113D02*
X136960000Y-88374113D01*
X139040000Y-88374113D02*
X140247000Y-88374113D01*
X135776000Y-88334113D02*
X136960000Y-88334113D01*
X139040000Y-88334113D02*
X140224000Y-88334113D01*
X135800000Y-88294113D02*
X136960000Y-88294113D01*
X139040000Y-88294113D02*
X140200000Y-88294113D01*
X135825000Y-88254113D02*
X136960000Y-88254113D01*
X139040000Y-88254113D02*
X140175000Y-88254113D01*
X135851000Y-88214113D02*
X136960000Y-88214113D01*
X139040000Y-88214113D02*
X140149000Y-88214113D01*
X135878000Y-88174113D02*
X136960000Y-88174113D01*
X139040000Y-88174113D02*
X140122000Y-88174113D01*
X135905000Y-88134113D02*
X136960000Y-88134113D01*
X139040000Y-88134113D02*
X140095000Y-88134113D01*
X135935000Y-88094113D02*
X136960000Y-88094113D01*
X139040000Y-88094113D02*
X140065000Y-88094113D01*
X135965000Y-88054113D02*
X136960000Y-88054113D01*
X139040000Y-88054113D02*
X140035000Y-88054113D01*
X135996000Y-88014113D02*
X136960000Y-88014113D01*
X139040000Y-88014113D02*
X140004000Y-88014113D01*
X136029000Y-87974113D02*
X136960000Y-87974113D01*
X139040000Y-87974113D02*
X139971000Y-87974113D01*
X136063000Y-87934113D02*
X136960000Y-87934113D01*
X139040000Y-87934113D02*
X139937000Y-87934113D01*
X136099000Y-87894113D02*
X136960000Y-87894113D01*
X139040000Y-87894113D02*
X139901000Y-87894113D01*
X136136000Y-87854113D02*
X136960000Y-87854113D01*
X139040000Y-87854113D02*
X139864000Y-87854113D01*
X136174000Y-87814113D02*
X136960000Y-87814113D01*
X139040000Y-87814113D02*
X139826000Y-87814113D01*
X136215000Y-87774113D02*
X136960000Y-87774113D01*
X139040000Y-87774113D02*
X139785000Y-87774113D01*
X136257000Y-87734113D02*
X136960000Y-87734113D01*
X139040000Y-87734113D02*
X139743000Y-87734113D01*
X136301000Y-87694113D02*
X136960000Y-87694113D01*
X139040000Y-87694113D02*
X139699000Y-87694113D01*
X136347000Y-87654113D02*
X136960000Y-87654113D01*
X139040000Y-87654113D02*
X139653000Y-87654113D01*
X136395000Y-87614113D02*
X139605000Y-87614113D01*
X136446000Y-87574113D02*
X139554000Y-87574113D01*
X136500000Y-87534113D02*
X139500000Y-87534113D01*
X136557000Y-87494113D02*
X139443000Y-87494113D01*
X136617000Y-87454113D02*
X139383000Y-87454113D01*
X136681000Y-87414113D02*
X139319000Y-87414113D01*
X136749000Y-87374113D02*
X139251000Y-87374113D01*
X136822000Y-87334113D02*
X139178000Y-87334113D01*
X136902000Y-87294113D02*
X139098000Y-87294113D01*
X136989000Y-87254113D02*
X139011000Y-87254113D01*
X137085000Y-87214113D02*
X138915000Y-87214113D01*
X137195000Y-87174113D02*
X138805000Y-87174113D01*
X137323000Y-87134113D02*
X138677000Y-87134113D01*
X137482000Y-87094113D02*
X138518000Y-87094113D01*
X137716000Y-87054113D02*
X138284000Y-87054113D01*
X140620000Y-89655113D02*
G75*
G03*
X140620000Y-89655113I-2620000J0D01*
G01*
%TO.C,C102*%
X135690000Y-98940580D02*
X135690000Y-98659420D01*
X136710000Y-98940580D02*
X136710000Y-98659420D01*
%TO.C,R101*%
X121977500Y-98937258D02*
X121977500Y-98462742D01*
X123022500Y-98937258D02*
X123022500Y-98462742D01*
%TO.C,C103*%
X139790580Y-95910000D02*
X139509420Y-95910000D01*
X139790580Y-94890000D02*
X139509420Y-94890000D01*
%TO.C,J102*%
X117770000Y-86570000D02*
X119100000Y-86570000D01*
X117770000Y-87900000D02*
X117770000Y-86570000D01*
X117770000Y-89170000D02*
X117770000Y-91770000D01*
X117770000Y-89170000D02*
X120430000Y-89170000D01*
X117770000Y-91770000D02*
X120430000Y-91770000D01*
X120430000Y-89170000D02*
X120430000Y-91770000D01*
%TO.C,R102*%
X123022500Y-101762742D02*
X123022500Y-102237258D01*
X121977500Y-101762742D02*
X121977500Y-102237258D01*
%TO.C,J101*%
X135600000Y-115700000D02*
X125600000Y-115700000D01*
X135600000Y-105700000D02*
X125600000Y-105700000D01*
X135600000Y-105400000D02*
X135600000Y-115700000D01*
X125600000Y-115700000D02*
X125600000Y-105400000D01*
X125600000Y-115700000D02*
X125000000Y-115700000D01*
X125600000Y-105400000D02*
X135600000Y-105400000D01*
X125000000Y-115700000D02*
X125000000Y-105400000D01*
X125000000Y-105400000D02*
X125600000Y-105400000D01*
%TD*%
M02*
