M48
; DRILL file {KiCad (7.0.0)} date Tue Mar 21 16:51:25 2023
; FORMAT={3:3/ absolute / metric / suppress leading zeros}
; #@! TF.CreationDate,2023-03-21T16:51:25-07:00
; #@! TF.GenerationSoftware,Kicad,Pcbnew,(7.0.0)
; #@! TF.FileFunction,MixedPlating,1,2
FMAT,2
METRIC,TZ
; #@! TA.AperFunction,Plated,PTH,ComponentDrill
T1C0.200
; #@! TA.AperFunction,Plated,PTH,ViaDrill
T2C0.400
; #@! TA.AperFunction,Plated,PTH,ComponentDrill
T3C0.800
; #@! TA.AperFunction,Plated,PTH,ComponentDrill
T4C1.000
; #@! TA.AperFunction,Plated,PTH,ComponentDrill
T5C1.200
; #@! TA.AperFunction,Plated,PTH,ComponentDrill
T6C3.200
%
G90
G05
T1
X129200Y-95300
X129200Y-96800
X129200Y-98300
X130700Y-95300
X130700Y-96800
X130700Y-98300
T2
X120700Y-99300
X120700Y-101900
X121600Y-96600
X121900Y-84320
X122100Y-88900
X122100Y-93200
X122900Y-107120
X123800Y-99500
X123900Y-102300
X125500Y-100720
X127850Y-84320
X130500Y-106920
X132700Y-100300
X132900Y-93400
X134100Y-90100
X134500Y-84120
X134650Y-94650
X136300Y-101320
X137100Y-103520
X137700Y-93400
X139100Y-86300
X139300Y-102120
X139900Y-104320
X140100Y-93300
X141960Y-98060
T3
X138000Y-88655
X138000Y-90655
T4
X119100Y-87900
X119100Y-90440
X119100Y-95520
X119100Y-98060
X119100Y-100600
X119100Y-103140
X119100Y-105680
X141960Y-100600
X141960Y-103140
X141960Y-105680
T5
X128100Y-80700
X128100Y-110700
X133100Y-80700
X133100Y-110700
T6
X120600Y-79200
X120600Y-112200
X140600Y-79200
X140600Y-112200
T0
M30
